<svg width="50" height="50" fill="none" xmlns="http://www.w3.org/2000/svg"><g clip-path="url(#clip0_547:4545)" fill="#1B1C1F"><path fill-rule="evenodd" clip-rule="evenodd" d="M20.75 19.303c-4.674 2.697 2.456 16.063 7.569 13.11l4.74 8.212c-2.157 1.246-3.983 2.03-6.484.601-6.944-3.97-14.588-17.204-14.37-25.099.075-2.741 1.69-3.816 3.804-5.036l4.74 8.211zm1.959-.223a1.06 1.06 0 01-1.446-.388l-4.47-7.74a1.06 1.06 0 01.388-1.447l2.349-1.356a1.06 1.06 0 011.446.387l4.47 7.741a1.06 1.06 0 01-.388 1.446l-2.35 1.357zm12.209 21.147a1.06 1.06 0 01-1.446-.387l-4.469-7.741a1.06 1.06 0 01.387-1.446l2.35-1.356a1.06 1.06 0 011.446.387l4.469 7.74a1.06 1.06 0 01-.388 1.447l-2.349 1.356z"/><path d="M25 0v.006a24.917 24.917 0 0117.676 7.317A24.92 24.92 0 0149.994 25H50v.002h-.006a24.917 24.917 0 01-7.318 17.676A24.92 24.92 0 0125 49.994V50v-.006a24.917 24.917 0 01-17.676-7.318A24.92 24.92 0 01.006 25H0h.006A24.917 24.917 0 017.323 7.322 24.92 24.92 0 0124.999.006V0H25zm0 2.982v.006-.006c-6.074 0-11.577 2.467-15.564 6.453C5.449 13.422 2.982 18.926 2.982 25h.006-.006c0 6.074 2.467 11.577 6.454 15.564 3.987 3.986 9.49 6.454 15.564 6.454v-.006.006c6.074 0 11.577-2.467 15.564-6.454 3.987-3.987 6.454-9.49 6.454-15.564h-.006v-.001h.006c0-6.073-2.467-11.577-6.454-15.563C36.577 5.449 31.074 2.982 25 2.982z"/></g><defs><clipPath id="clip0_547:4545"><path fill="#fff" d="M0 0h50v50H0z"/></clipPath></defs></svg>