<svg version="1.0" xmlns="http://www.w3.org/2000/svg" width="346.667" height="346.667" viewBox="0 0 260 260"><path d="M17 66.8c0 2.5.5 2.9 5 4.1 3.2.8 6.2 2.5 8.8 5 3.9 3.8 15.4 23.7 28.6 49.5l6.6 12.9v18.6c-.1 22.8-.3 23.2-12.8 24.7-6 .6-6.2.8-6.2 3.5v2.9h58v-2.8c0-2.6-.3-2.8-6.7-4-7.8-1.5-11-3.3-12.3-6.8-1.7-4.3-1.2-33.5.5-38.4 2.1-5.9 16.9-31.8 26.7-46.5 8.1-12.3 12.1-16.2 19.1-18.4 3.1-1.1 3.7-1.7 3.7-4.2V64H93v2.8c0 2.7.3 2.8 6.5 3.9 13.7 2.4 13.7 2.5-7.2 37-5.8 9.5-10.8 17.3-11.1 17.3-.7 0-19.1-33.5-24.7-44.9-1.4-2.9-2.4-5.9-2.1-6.6.6-1.7 6.8-3.5 11.9-3.5 3.4 0 3.7-.2 3.7-3v-3H17v2.8zm122 0c0 2.6.4 2.9 6.9 4.5 11.4 3 10.6-1.4 10.9 53.1.3 49 0 53.6-3.8 55.6-1 .6-4.6 1.3-8 1.7-5.8.6-6 .7-6 3.4v2.9h54v-2.9c0-2.7-.3-3-5-3.6-2.7-.4-6.4-1.7-8.2-2.9l-3.3-2.2-.3-24.3-.2-24.3 11.9.3c10.1.3 12.4.7 14.8 2.5 3.3 2.4 7.1 9.4 8 14.6.5 3.5.8 3.8 3.9 3.8h3.4v-49h-3.4c-3.1 0-3.4.2-4 4.1-1 6.1-4.1 11.4-8.2 14-3.2 1.9-5.5 2.4-15.1 2.7l-11.3.5V71h16.3c8.9 0 17.9.5 19.9 1 4.7 1.3 11.9 9.3 15.6 17.1 2.5 5.4 3 5.9 6 5.9h3.2V64h-98v2.8z"/></svg>