<svg viewBox="0 0 394.1 569.863" xmlns="http://www.w3.org/2000/svg" xmlns:xlink="http://www.w3.org/1999/xlink"><defs><linearGradient id="a"><stop stop-color="#fff" stop-opacity=".792" offset="0"/><stop stop-color="#fff" stop-opacity="0" offset="1"/></linearGradient><linearGradient id="e" x1="1471.1" x2="1340.6" y1="631.72" y2="615.94" gradientUnits="userSpaceOnUse" xlink:href="#a"/><linearGradient id="d" x1="1275.6" x2="1263.9" y1="190.45" y2="253.31" gradientUnits="userSpaceOnUse" xlink:href="#a"/><linearGradient id="c" x1="1347.9" x2="1353.6" y1="224.2" y2="249.74" gradientUnits="userSpaceOnUse" xlink:href="#a"/><linearGradient id="b" x1="1184.3" x2="1145" y1="192.28" y2="211.57" gradientUnits="userSpaceOnUse" xlink:href="#a"/></defs><path d="M233.437 138.33l-11.502 345.96c-53.678 37.873-133.013 35.408-190.231 2.654L5.16 141.868c88.878-33.861 160.421-23.4 228.278-3.54z" fill="#bedbff" fill-rule="evenodd" stroke="#000" stroke-width="2.265"/><path d="M224.718 153.708L204.98 449.429C152.528 471.52 96.988 473.04 43.95 445.89L13.774 155.893c78.688 31.876 157.132 24.167 210.947-2.185z" fill="#ffa2c2" fill-rule="evenodd" stroke="#000" stroke-width="2.265"/><path d="M225.567 143.137c.316.37-43.411 22.992-100.038 23.818-59.228.865-114.821-19.658-111.447-21.994 0 0 43.301-18.792 96.392-19.899s115.099 18.075 115.099 18.075z" fill="#fff" fill-opacity=".466" fill-rule="evenodd" stroke="#000" stroke-width="2.265"/><path d="M216.791 147.05c-56.038-19.533-141.986-22.525-194.42 1.965 67.285 30.088 155.801 19.617 194.42-1.965z" fill="#ffa2c2" fill-rule="evenodd" stroke="#000" stroke-width="2.265"/><path d="M217.414 148.306c-8.059 3.625-16.001 6.9-23.763 9.632l-6.838 343.212c5.612-1.875 11.161-3.999 16.477-7.056l14.124-345.789z" fill="#fff" fill-opacity=".585" fill-rule="evenodd"/><path d="M1405.3 339.49c24.287-6.892 46.934-14.25 69.715-24.771l-63.667 613.72c-23.578 10.386-36.216 14.269-52.087 18.941L1405.3 339.5z" fill="url(#e)" fill-rule="evenodd" transform="matrix(-.56618 0 0 .56618 846.61 -31.903)"/><path d="M81.474 505.198L55.668 161.583l9.362 2.554 23.968 342.946-7.524-1.884z" fill="#fff" fill-opacity=".49" fill-rule="evenodd"/><path d="M42.521 148.657c2.942-4.702 10.433-4.855 15.877-7.056" fill="none" stroke="#000" stroke-width="2.831"/><path d="M89.231 84.3l16.493-24.74-18.142 14.514 6.267-21.111-19.792 20.451-.33-17.483-8.906 20.782-24.74-9.896 14.184 15.174-26.06 1.65 19.133 5.937-19.462 15.173L89.233 84.3z" fill="#006f00" fill-rule="evenodd" stroke="#000" stroke-linejoin="round" stroke-width="2.265"/><path d="M139.338 144.19c7.049-.227 11.236-70.382-27.238-75.019-22.633-2.726-35.275 12.503-35.275 12.503-23.245-1.281-35.354 9.368-41.973 25.899 0 0-4.13 16.298 4.018 27.684s28.578 17.861 28.578 17.861 24.45-9.742 38.739-11.863 18.746 3.71 18.746 3.71l14.406-.777z" fill="#f30600" fill-rule="evenodd" stroke="#000" stroke-width="2.265"/><path d="M86.287 108.94s4.153 1.66 5.015 4.894-1.565 8.044-1.565 8.044-3.825-4.2-4.687-7.435 1.237-5.503 1.237-5.503zm-24.119-9.92s3.285 2.672 3.393 5.475-2.962 5.738-2.962 5.738-2.273-2.878-2.381-5.681 1.95-5.532 1.95-5.532z" fill="#ffca00" fill-rule="evenodd" stroke="#000" stroke-width="2.265"/><path d="M50.051 112.082s2.21 2.663 2.117 5.25-2.488 5.1-2.488 5.1-2.324-2.587-2.23-5.175 2.601-5.175 2.601-5.175z" fill="#ffca00" fill-rule="evenodd" stroke="#000" stroke-width="2.103"/><path d="M71.793 122.087s3.055 2.456 3.69 5.788-1.152 7.54-1.152 7.54-3.262-2.863-3.897-6.195 1.359-7.133 1.359-7.133z" fill="#ffca00" fill-rule="evenodd" stroke="#000" stroke-width="1.666"/><path d="M110.406 81.984s-.238 4.382 1.762 6.73 6.238 2.66 6.238 2.66-.087-4.358-2.087-6.706-5.913-2.684-5.913-2.684z" fill="#ffca00" fill-rule="evenodd" stroke="#000" stroke-width="1.826"/><path d="M90.76 88.818s-1.003 3.446.287 6.107 4.874 4.537 4.874 4.537 1.535-4.07.245-6.731-5.406-3.913-5.406-3.913z" fill="#ffca00" fill-rule="evenodd" stroke="#000" stroke-width="1.694"/><path d="M108.481 119.284s2.822 3.24 3.037 6.366-2.174 6.14-2.174 6.14-2.597-2.658-2.813-5.784 1.95-6.723 1.95-6.723zm24.233 1.926s-2.94 3.396-3.43 6.813 1.475 6.854 1.475 6.854 3.34-2.747 3.83-6.164-1.875-7.504-1.875-7.504z" fill="#ffca00" fill-rule="evenodd" stroke="#000" stroke-width="2.265"/><path d="M126.939 96.258s-2.075 4.851-1.51 7.762 3.773 3.882 3.773 3.882 2.074-3.99 1.508-6.9-3.771-4.744-3.771-4.744z" fill="#ffca00" fill-rule="evenodd" stroke="#000" stroke-width="2.118"/><path d="M1342.4 197.36c-10.55-6.504-25.476-17.287-54.18-9.03 0 0-10.233 19.944-12.264 38.682s4.515 37.023 4.515 37.023l17.157 1.806s-6.773-14.674 4.515-31.605 40.258-36.876 40.258-36.876z" fill="url(#d)" fill-rule="evenodd" transform="matrix(-.56618 0 0 .56618 846.61 -31.903)"/><path transform="matrix(-.5502 -.13352 -.13352 .5502 854.349 142.571)" d="M1343.7 227.21a20.963 10.953 0 11-.084.019" fill="url(#c)"/><path d="M157.965 147.706L217.675 5.68c11.501-2.476 16.768 1.801 18.55 9.855l-55.07 134.49" fill="#725eff" fill-rule="evenodd" stroke="#000" stroke-width="2.831"/><path d="M1109.6 68.431l-8.713 12.447 98.97 236.83h13.691l-103.95-249.27z" fill="url(#b)" fill-rule="evenodd" transform="matrix(-.56618 0 0 .56618 846.61 -31.903)"/><path d="M217.98 5.285s7.501-2.054 12.145.536 6.43 9.822 6.43 9.822-4.181 3.637-12.604-.551c-7.296-3.628-5.97-9.807-5.97-9.807z" fill-rule="evenodd" stroke="#000" stroke-width=".566"/><path d="M110.802 144.49c16.603-7.017 27.26-1.37 37.016 5.52m13.997.335c6.243-4.422 16.202-3.416 20.846-.46" fill="#ffa2c2" fill-rule="evenodd" stroke="#000" stroke-width="2.831"/><path d="M160.893 191.768l11.502 345.959c53.678 37.873 133.013 35.408 190.231 2.654l26.544-345.075c-88.878-33.861-160.421-23.4-228.278-3.54z" fill="#bedbff" fill-rule="evenodd" stroke="#000" stroke-width="2.265"/><path d="M169.612 207.146l19.737 295.721c52.453 22.09 107.993 23.611 161.032-3.539l30.175-289.997c-78.688 31.876-157.132 24.167-210.947-2.185z" fill="#ffa2c2" fill-rule="evenodd" stroke="#000" stroke-width="2.265"/><path d="M168.763 196.575c-.316.37 43.411 22.992 100.038 23.818 59.228.865 114.821-19.658 111.447-21.994 0 0-43.301-18.792-96.392-19.899s-115.099 18.075-115.099 18.075z" fill="#fff" fill-opacity=".466" fill-rule="evenodd" stroke="#000" stroke-width="2.265"/><path d="M177.539 200.488c56.038-19.533 141.986-22.525 194.42 1.965-67.285 30.088-155.801 19.617-194.42-1.965z" fill="#ffa2c2" fill-rule="evenodd" stroke="#000" stroke-width="2.265"/><path d="M176.916 201.744c8.059 3.625 16.001 6.9 23.763 9.632l6.838 343.212c-5.612-1.875-11.161-3.999-16.477-7.056l-14.124-345.789z" fill="#fff" fill-opacity=".585" fill-rule="evenodd"/><path d="M1405.3 339.49c24.287-6.892 46.934-14.25 69.715-24.771l-63.667 613.72c-23.578 10.386-36.216 14.269-52.087 18.941L1405.3 339.5z" fill="url(#e)" fill-rule="evenodd" transform="translate(-452.28 21.535) scale(.56618)"/><path d="M312.856 558.636l25.806-343.615-9.362 2.554-23.968 342.946 7.524-1.884z" fill="#fff" fill-opacity=".49" fill-rule="evenodd"/><path d="M351.809 202.095c-2.942-4.702-10.433-4.855-15.877-7.056" fill="none" stroke="#000" stroke-width="2.831"/><path d="M305.099 137.738l-16.493-24.74 18.142 14.514-6.267-21.111 19.792 20.451.33-17.483 8.906 20.782 24.74-9.896-14.184 15.174 26.06 1.65-19.133 5.937 19.462 15.173-61.357-20.451z" fill="#006f00" fill-rule="evenodd" stroke="#000" stroke-linejoin="round" stroke-width="2.265"/><path d="M254.992 197.628c-7.049-.227-11.236-70.382 27.238-75.019 22.633-2.726 35.275 12.503 35.275 12.503 23.245-1.281 35.354 9.368 41.973 25.899 0 0 4.13 16.298-4.018 27.684s-28.578 17.861-28.578 17.861-24.45-9.742-38.739-11.863-18.746 3.71-18.746 3.71l-14.406-.777z" fill="#f30600" fill-rule="evenodd" stroke="#000" stroke-width="2.265"/><path d="M308.043 162.378s-4.153 1.66-5.015 4.894 1.565 8.044 1.565 8.044 3.825-4.2 4.687-7.435-1.237-5.503-1.237-5.503zm24.119-9.92s-3.285 2.672-3.393 5.475 2.962 5.738 2.962 5.738 2.273-2.878 2.381-5.681-1.95-5.532-1.95-5.532z" fill="#ffca00" fill-rule="evenodd" stroke="#000" stroke-width="2.265"/><path d="M344.279 165.52s-2.21 2.663-2.117 5.25 2.488 5.1 2.488 5.1 2.324-2.587 2.23-5.175-2.601-5.175-2.601-5.175z" fill="#ffca00" fill-rule="evenodd" stroke="#000" stroke-width="2.103"/><path d="M322.537 175.525s-3.055 2.456-3.69 5.788 1.152 7.54 1.152 7.54 3.262-2.863 3.897-6.195-1.359-7.133-1.359-7.133z" fill="#ffca00" fill-rule="evenodd" stroke="#000" stroke-width="1.666"/><path d="M283.924 135.422s.238 4.382-1.762 6.73-6.238 2.66-6.238 2.66.087-4.358 2.087-6.706 5.913-2.684 5.913-2.684z" fill="#ffca00" fill-rule="evenodd" stroke="#000" stroke-width="1.826"/><path d="M303.57 142.256s1.003 3.446-.287 6.107-4.874 4.537-4.874 4.537-1.535-4.07-.245-6.731 5.406-3.913 5.406-3.913z" fill="#ffca00" fill-rule="evenodd" stroke="#000" stroke-width="1.694"/><path d="M285.849 172.722s-2.822 3.24-3.037 6.366 2.174 6.14 2.174 6.14 2.597-2.658 2.813-5.784-1.95-6.723-1.95-6.723zm-24.233 1.925s2.94 3.397 3.43 6.814-1.475 6.854-1.475 6.854-3.34-2.747-3.83-6.164 1.875-7.504 1.875-7.504z" fill="#ffca00" fill-rule="evenodd" stroke="#000" stroke-width="2.265"/><path d="M267.391 149.696s2.075 4.851 1.51 7.762-3.773 3.882-3.773 3.882-2.074-3.99-1.508-6.9 3.771-4.744 3.771-4.744z" fill="#ffca00" fill-rule="evenodd" stroke="#000" stroke-width="2.118"/><path d="M1342.4 197.36c-10.55-6.504-25.476-17.287-54.18-9.03 0 0-10.233 19.944-12.264 38.682s4.515 37.023 4.515 37.023l17.157 1.806s-6.773-14.674 4.515-31.605 40.258-36.876 40.258-36.876z" fill="url(#d)" fill-rule="evenodd" transform="translate(-452.28 21.535) scale(.56618)"/><path transform="rotate(-13.642 589.377 2021.138) scale(.56618)" d="M1343.7 227.21a20.963 10.953 0 11-.084.019" fill="url(#c)"/><path d="M236.365 201.144l-59.71-142.026c-11.501-2.476-16.768 1.801-18.55 9.855l55.07 134.49" fill="#725eff" fill-rule="evenodd" stroke="#000" stroke-width="2.831"/><path d="M1109.6 68.431l-8.713 12.447 98.97 236.83h13.691l-103.95-249.27z" fill="url(#b)" fill-rule="evenodd" transform="translate(-452.28 21.535) scale(.56618)"/><path d="M176.35 58.723s-7.501-2.054-12.145.536-6.43 9.822-6.43 9.822 4.181 3.637 12.604-.551c7.296-3.628 5.97-9.807 5.97-9.807z" fill-rule="evenodd" stroke="#000" stroke-width=".566"/><path d="M283.528 197.928c-16.603-7.017-27.26-1.37-37.016 5.52m-13.997.335c-6.243-4.422-16.202-3.416-20.846-.46" fill="#ffa2c2" fill-rule="evenodd" stroke="#000" stroke-width="2.831"/></svg>