<svg xmlns:xlink="http://www.w3.org/1999/xlink" xmlns="http://www.w3.org/2000/svg" viewBox="0 0 2330.86 2463"><defs><linearGradient id="Degradado_sin_nombre_87" x1="430.71" y1="1370.25" x2="1675.71" y2="1370.25" gradientUnits="userSpaceOnUse"><stop offset="0" stop-color="#3cc"/><stop offset=".09" stop-color="#25c2bf"/><stop offset=".24" stop-color="#10b4ac"/><stop offset=".4" stop-color="#04aca1"/><stop offset=".55" stop-color="#00a99d"/><stop offset=".77" stop-color="#01a99f"/><stop offset=".85" stop-color="#05a9a6"/><stop offset=".9" stop-color="#0caab1"/><stop offset=".95" stop-color="#16aac2"/><stop offset=".99" stop-color="#23abd8"/><stop offset="1" stop-color="#29abe2"/></linearGradient><linearGradient id="Degradado_sin_nombre_87-2" x1="631.21" y1="2148" x2="1475.21" y2="2148" xlink:href="#Degradado_sin_nombre_87"/><linearGradient id="Degradado_sin_nombre_35" x1="616.19" y1="1617.06" x2="1367.03" y2="866.22" gradientUnits="userSpaceOnUse"><stop offset="0" stop-color="#f90"/><stop offset=".2" stop-color="#ffa404"/><stop offset=".56" stop-color="#fec110"/><stop offset="1" stop-color="#fcee21"/></linearGradient><linearGradient id="Degradado_sin_nombre_12" x1="785.49" y1="790.52" x2="745.23" y2="-.48" gradientUnits="userSpaceOnUse"><stop offset="0" stop-color="#6c0"/><stop offset=".41" stop-color="#36b120"/><stop offset=".8" stop-color="#0f9a3b"/><stop offset="1" stop-color="#009245"/></linearGradient><linearGradient id="Degradado_sin_nombre_15" x1="527.47" y1="397.75" x2="742.75" y2="397.75" gradientUnits="userSpaceOnUse"><stop offset="0" stop-color="#6c0"/><stop offset=".17" stop-color="#84d633"/><stop offset=".47" stop-color="#b8e789"/><stop offset=".72" stop-color="#def4c9"/><stop offset=".91" stop-color="#f6fcf0"/><stop offset="1" stop-color="#fff"/></linearGradient><linearGradient id="Degradado_sin_nombre_12-2" x1="-8.5" y1="644.06" x2="-33.01" y2="162.51" gradientTransform="rotate(-48.83 320.9 147.846)" xlink:href="#Degradado_sin_nombre_12"/><linearGradient id="Degradado_sin_nombre_15-2" x1="-165.58" y1="404.95" x2="-34.52" y2="404.95" gradientTransform="rotate(-48.83 320.9 147.846)" xlink:href="#Degradado_sin_nombre_15"/><linearGradient id="Degradado_sin_nombre_12-3" x1="-421.47" y1="658.97" x2="-441.76" y2="260.44" gradientTransform="rotate(-84.05 171.887 369.078)" xlink:href="#Degradado_sin_nombre_12"/><linearGradient id="Degradado_sin_nombre_15-3" x1="-551.47" y1="461.08" x2="-443.01" y2="461.08" gradientTransform="rotate(-84.05 171.887 369.078)" xlink:href="#Degradado_sin_nombre_15"/><linearGradient id="Degradado_sin_nombre_35-3" x1="715.89" y1="1400.54" x2="770.98" y2="1345.45" xlink:href="#Degradado_sin_nombre_35"/><linearGradient id="Degradado_sin_nombre_12-4" x1="67.91" y1="889.08" x2="89.83" y2="867.17" gradientTransform="rotate(-25.61 274.782 914.035)" xlink:href="#Degradado_sin_nombre_12"/><linearGradient id="Degradado_sin_nombre_12-5" x1="155.17" y1="1054.76" x2="169.19" y2="1040.75" gradientTransform="rotate(-5.13 -39.583 646.434)" xlink:href="#Degradado_sin_nombre_12"/><linearGradient id="Degradado_sin_nombre_12-6" x1="264.07" y1="1046.01" x2="277.97" y2="1032.12" gradientTransform="rotate(5.28 1380.67 846.871)" xlink:href="#Degradado_sin_nombre_12"/><linearGradient id="Degradado_sin_nombre_12-7" x1="143.49" y1="394.91" x2="179.83" y2="358.57" gradientTransform="rotate(-37.8 334.976 428.402)" xlink:href="#Degradado_sin_nombre_12"/><linearGradient id="Degradado_sin_nombre_12-8" x1="105.61" y1="529.7" x2="117.16" y2="518.15" gradientTransform="rotate(-37.8 334.976 428.402)" xlink:href="#Degradado_sin_nombre_12"/><linearGradient id="Degradado_sin_nombre_12-9" x1="255.55" y1="492.62" x2="267.1" y2="481.07" gradientTransform="rotate(-37.8 334.976 428.402)" xlink:href="#Degradado_sin_nombre_12"/><linearGradient id="Degradado_sin_nombre_12-10" x1="182.09" y1="568.37" x2="190.71" y2="559.75" gradientTransform="rotate(-37.8 334.976 428.402)" xlink:href="#Degradado_sin_nombre_12"/><linearGradient id="Degradado_sin_nombre_12-11" x1="152.55" y1="649.16" x2="161.17" y2="640.54" gradientTransform="rotate(-37.8 334.976 428.402)" xlink:href="#Degradado_sin_nombre_12"/><linearGradient id="Degradado_sin_nombre_12-12" x1="272.62" y1="586.67" x2="284.17" y2="575.12" gradientTransform="rotate(-37.8 334.976 428.402)" xlink:href="#Degradado_sin_nombre_12"/><linearGradient id="Degradado_sin_nombre_12-13" x1="656.3" y1="288.19" x2="712.58" y2="231.91" xlink:href="#Degradado_sin_nombre_12"/><linearGradient id="Degradado_sin_nombre_12-14" x1="752.9" y1="149.04" x2="779.56" y2="122.38" xlink:href="#Degradado_sin_nombre_12"/><linearGradient id="Degradado_sin_nombre_12-15" x1="866.12" y1="261.84" x2="874.08" y2="253.88" xlink:href="#Degradado_sin_nombre_12"/><linearGradient id="Degradado_sin_nombre_12-16" x1="810.08" y1="387.42" x2="828.27" y2="369.23" xlink:href="#Degradado_sin_nombre_12"/><linearGradient id="Degradado_sin_nombre_12-17" x1="880.67" y1="498.72" x2="915.92" y2="463.47" xlink:href="#Degradado_sin_nombre_12"/><linearGradient id="Degradado_sin_nombre_12-18" x1="665.67" y1="581.72" x2="700.92" y2="546.47" xlink:href="#Degradado_sin_nombre_12"/><linearGradient id="Degradado_sin_nombre_12-19" x1="645.44" y1="437.7" x2="656.81" y2="426.33" xlink:href="#Degradado_sin_nombre_12"/><linearGradient id="Degradado_sin_nombre_35-4" x1="1213.89" y1="1736.54" x2="1268.98" y2="1681.45" xlink:href="#Degradado_sin_nombre_35"/><linearGradient id="Degradado_sin_nombre_35-5" x1="621.87" y1="1052.07" x2="648.59" y2="1025.35" xlink:href="#Degradado_sin_nombre_35"/><linearGradient id="Degradado_sin_nombre_35-6" x1="637.87" y1="1257.07" x2="664.59" y2="1230.35" xlink:href="#Degradado_sin_nombre_35"/><linearGradient id="Degradado_sin_nombre_35-7" x1="1106.92" y1="1320.49" x2="1123.4" y2="1304" xlink:href="#Degradado_sin_nombre_35"/><linearGradient id="Degradado_sin_nombre_35-8" x1="1211.92" y1="1334.49" x2="1228.4" y2="1318" xlink:href="#Degradado_sin_nombre_35"/><linearGradient id="Degradado_sin_nombre_35-9" x1="1044.92" y1="1481.49" x2="1061.4" y2="1465" xlink:href="#Degradado_sin_nombre_35"/><linearGradient id="Degradado_sin_nombre_35-10" x1="744.92" y1="1573.49" x2="761.4" y2="1557" xlink:href="#Degradado_sin_nombre_35"/><linearGradient id="Degradado_sin_nombre_35-11" x1="902.58" y1="1225.88" x2="958.3" y2="1170.16" xlink:href="#Degradado_sin_nombre_35"/><linearGradient id="Degradado_sin_nombre_35-12" x1="906.69" y1="1639.4" x2="974.35" y2="1571.73" xlink:href="#Degradado_sin_nombre_35"/><linearGradient id="Degradado_sin_nombre_35-13" x1="1381.1" y1="1520.61" x2="1402.31" y2="1499.39" xlink:href="#Degradado_sin_nombre_35"/><linearGradient id="Degradado_sin_nombre_35-14" x1="1049.17" y1="1797.54" x2="1056.24" y2="1790.46" xlink:href="#Degradado_sin_nombre_35"/><linearGradient id="Degradado_sin_nombre_35-15" x1="939.05" y1="1771.66" x2="950.36" y2="1760.34" xlink:href="#Degradado_sin_nombre_35"/><linearGradient id="Degradado_sin_nombre_35-16" x1="1040.46" y1="1724.24" x2="1048.95" y2="1715.76" xlink:href="#Degradado_sin_nombre_35"/><linearGradient id="Degradado_sin_nombre_35-17" x1="1200.46" y1="1529.24" x2="1208.95" y2="1520.76" xlink:href="#Degradado_sin_nombre_35"/><linearGradient id="Degradado_sin_nombre_35-18" x1="1408.46" y1="1343.24" x2="1416.95" y2="1334.76" xlink:href="#Degradado_sin_nombre_35"/><linearGradient id="Degradado_sin_nombre_35-19" x1="1447.22" y1="1204.49" x2="1464.19" y2="1187.51" xlink:href="#Degradado_sin_nombre_35"/><linearGradient id="Degradado_sin_nombre_35-20" x1="1386.91" y1="784.8" x2="1426.51" y2="745.2" xlink:href="#Degradado_sin_nombre_35"/><linearGradient id="Degradado_sin_nombre_35-21" x1="1197.27" y1="1004.44" x2="1224.14" y2="977.56" xlink:href="#Degradado_sin_nombre_35"/><linearGradient id="Degradado_sin_nombre_35-22" x1="1494.22" y1="1030.49" x2="1511.19" y2="1013.51" xlink:href="#Degradado_sin_nombre_35"/><linearGradient id="Degradado_sin_nombre_35-23" x1="1324.98" y1="1288.73" x2="1350.43" y2="1263.27" xlink:href="#Degradado_sin_nombre_35"/><linearGradient id="Degradado_sin_nombre_35-24" x1="1249.71" y1="879.99" x2="1307.7" y2="822.01" xlink:href="#Degradado_sin_nombre_35"/><linearGradient id="Degradado_sin_nombre_35-25" x1="1181.46" y1="1089.24" x2="1189.95" y2="1080.76" xlink:href="#Degradado_sin_nombre_35"/><linearGradient id="Degradado_sin_nombre_35-26" x1="946.22" y1="1393.49" x2="963.19" y2="1376.51" xlink:href="#Degradado_sin_nombre_35"/><linearGradient id="Degradado_sin_nombre_35-27" x1="1098.27" y1="926.44" x2="1125.14" y2="899.56" xlink:href="#Degradado_sin_nombre_35"/><linearGradient id="Degradado_sin_nombre_35-28" x1="796.27" y1="1218.44" x2="823.14" y2="1191.56" xlink:href="#Degradado_sin_nombre_35"/><linearGradient id="Degradado_sin_nombre_35-29" x1="683.76" y1="1184.95" x2="693.66" y2="1175.05" xlink:href="#Degradado_sin_nombre_35"/><linearGradient id="Degradado_sin_nombre_35-30" x1="887.1" y1="1040.61" x2="908.31" y2="1019.39" xlink:href="#Degradado_sin_nombre_35"/><linearGradient id="Degradado_sin_nombre_35-31" x1="586.05" y1="1127.66" x2="597.36" y2="1116.34" xlink:href="#Degradado_sin_nombre_35"/><linearGradient id="Degradado_sin_nombre_35-32" x1="616.93" y1="1424.78" x2="632.48" y2="1409.22" xlink:href="#Degradado_sin_nombre_35"/><linearGradient id="Degradado_sin_nombre_87-3" x1="630.71" y1="2232.07" x2="1050.43" y2="2232.07" xlink:href="#Degradado_sin_nombre_87"/><style>.cls-6{fill:url(#Degradado_sin_nombre_35)}.cls-16{fill:#020202;opacity:.21}.cls-17,.cls-35{fill:#fff}.cls-17{opacity:.15}</style></defs><g id="Capa_2" data-name="Capa 2"><g id="Capa_1-2" data-name="Capa 1"><ellipse cx="1053.21" cy="2386" rx="621.5" ry="77" opacity=".05"/><path d="M1788.06 377.69l-13.12 31.38 2.78-31.61a117.32 117.32 0 00-37.48 5.76l2.26 49-16.09-43.51a117.72 117.72 0 00-30.29 20.61l16 43.72-25.79-33.3a115.89 115.89 0 00-10 13.91l-13 21.29 37.38 34.06-45.43-20.89-639.91 1046.68 81.91 50.07L1733.63 524a117.5 117.5 0 01103.2-56.17l491.79 12.36 2.24-89z" fill="#efefef"/><path d="M1691.71 525a241.84 241.84 0 0127.46-34.72c24.22-25.93 52.1-43.7 86.35-53 48.71-13.14 105.48-5.28 155.48-5.07 105.23 0 210.44.64 315.68.26l43.49-.16h9.62l1-41.06-542.8-13.52-13.12 31.38 2.78-31.61a117.32 117.32 0 00-37.48 5.76l2.26 49-16.09-43.51a117.72 117.72 0 00-30.29 20.61l16 43.72-25.79-33.3a115.89 115.89 0 00-10 13.91l-13 21.29 37.45 34.02-45.43-20.89-639.91 1046.68 2.34-3.79s673.83-985.74 674-986z" fill="#6b6968" opacity=".13"/><path d="M460.71 818v512c0 327.23 265.27 592.5 592.5 592.5h0c327.23 0 592.5-265.27 592.5-592.5V818" fill="none" stroke-linecap="round" stroke-miterlimit="10" stroke-width="60" stroke="url(#Degradado_sin_nombre_87)"/><path d="M1369 2303h-122.79c-82.28 0-149-43.94-149-98.14V1923h-88.05v281.86c0 54.2-66.7 98.14-149 98.14H737.47c-58.69 0-106.26 31.34-106.26 70h844c0-38.66-47.58-70-106.21-70z" fill="url(#Degradado_sin_nombre_87-2)"/><path class="cls-6" d="M1016.71 988c-62.86-109.58-137.18-164.69-208.16-189.59H807c-17.76 1.7-28 15.28-28.25 32.72-.57 47.29 47.66 97.49 1.45 138.36-14.16 12.52-34.68 19-53 12.3-18.42-6.79-30.7-26.79-35.04-45.23-5.35-22.7 1.13-43.1 13.36-62.11 11.16-17.34 25-34.92 25.77-56.45 1-28-18.24-35.72-34.91-37.25-8 .15-15.87.57-23.49 1.21h-.18c-77 6.55-131.5 36-131.5 36v512a510.65 510.65 0 0036.25 189.61c75.36 188.9 260 322.39 475.75 322.39 282.77 0 512-229.23 512-512V1064.4c-90.57 52.6-390.91 198.33-548.5-76.4z"/><path class="cls-6" d="M1016.71 988c-62.86-109.58-137.18-164.69-208.16-189.59H807c-17.76 1.7-28 15.28-28.25 32.72-.57 47.29 47.66 97.49 1.45 138.36-14.16 12.52-34.68 19-53 12.3-18.42-6.79-30.7-26.79-35.04-45.23-5.35-22.7 1.13-43.1 13.36-62.11 11.16-17.34 25-34.92 25.77-56.45 1-28-18.24-35.72-34.91-37.25-8 .15-15.87.57-23.49 1.21h-.18c-77 6.55-131.5 36-131.5 36v512a510.65 510.65 0 0036.25 189.61c75.36 188.9 260 322.39 475.75 322.39 282.77 0 512-229.23 512-512V1064.4c-90.57 52.6-390.91 198.33-548.5-76.4z"/><path d="M765.52 412.26L866.6 764.89c88.95-89.65 142.32-214.24 138.11-350.44C999 230.93 890.33 74.86 735.79 0c-130 88.68-213.3 239.78-208.08 408.7 5 161.44 89.71 301.63 215.23 384z" fill="url(#Degradado_sin_nombre_12)"/><path d="M582.74 408.7C578.17 241.72 619.54 92 731.56 2.94 604 92 522.54 241.62 527.71 408.7c5 161.37 89.63 301.49 215 383.87-110.32-82.46-155.57-222.88-159.97-383.87z" fill="url(#Degradado_sin_nombre_15)"/><path d="M1004.71 414.45C999 230.93 890.33 74.86 735.79 0h-.06C836.11 75 964 212.5 967.63 395.87c2.74 136.19-43.22 279.07-101 368.72l-.25-.64.27.94c88.9-89.65 142.27-214.24 138.06-350.44z"/><path d="M296.23 580l202.1 95a289.3 289.3 0 00-105.24-203.69c-86.37-70.95-201.46-83.69-297.7-42.88-11.45 95.1 24.39 193.85 103.89 259.16a289.77 289.77 0 00262.22 55.27z" fill="url(#Degradado_sin_nombre_12-2)"/><path d="M221.34 662.37C143 597.54 91 518.58 95 431.55c-10.3 94.13 25.61 191.44 104.24 256 75.94 62.39 174.08 79.76 262.1 55.3-81.98 17.57-164.46-17.97-240-80.48z" fill="url(#Degradado_sin_nombre_15-2)"/><path d="M393.09 471.31c-86.37-70.95-201.46-83.69-297.7-42.88 74.55-16 188.82-19.42 274.33 52.38 63.51 53.33 110.56 131.66 128.46 194.09l-.39-.15.54.26a289.3 289.3 0 00-105.24-203.7z"/><path d="M208.15 979.52l182-32.25A240.16 240.16 0 000 972.9a240.16 240.16 0 00397.61 37.79z" fill="url(#Degradado_sin_nombre_12-3)"/><path d="M196.82 1070.93C112.91 1064.5 40 1036 1.25 975.17a240.16 240.16 0 00396.29 35.61c-47.08 51-119.81 66.35-200.72 60.15z" fill="url(#Degradado_sin_nombre_15-3)"/><path d="M221.73 859.77A240.08 240.08 0 000 972.9c42.77-46.39 118.38-103.27 210.46-95.55 68.39 5.74 137.59 36.23 179.5 69.89l-.33.09.48-.09a239.43 239.43 0 00-168.38-87.47z"/><path d="M772.45 1370.5c11.29 23.06-13.05 46.5-29.14 46.5s-41.88-24.2-29.14-46.5c13.57-23.75 13.05-46.5 29.14-46.5s14.77 17.16 29.14 46.5z" fill="url(#Degradado_sin_nombre_35-3)"/><path class="cls-16" d="M772.45 1370.5c-14.37-29.34-13.05-46.5-29.14-46.5-.49 0-1 0-1.42.06 14.43 1.13 13.68 18.1 27.56 46.44 10.94 22.35-11.57 45-27.62 46.43a14.8 14.8 0 001.48.07c16.09 0 40.43-23.44 29.14-46.5z"/><path class="cls-17" d="M724.15 1368.11c10.88-19 12.7-37.46 21.3-44a20.83 20.83 0 00-2.14-.11c-16.09 0-15.57 22.75-29.14 46.5-12.74 22.3 13.05 46.5 29.14 46.5a24.08 24.08 0 009.81-2.4c-16.12-.16-41.67-24.27-28.97-46.49z"/><path d="M92.59 960.44c8 6.34 3.32 18.93-2.45 21.7S71 980.66 71.69 970.47c.78-10.86-3.32-18.93 2.45-21.7s8.25 3.62 18.45 11.67z" fill="url(#Degradado_sin_nombre_12-4)"/><path class="cls-16" d="M92.59 960.44c-10.2-8.05-12.68-14.44-18.45-11.67l-.5.27c5.38-2.08 8 4.14 17.88 11.92 7.77 6.13 3.59 18.15-1.93 21.41l.55-.23c5.77-2.77 10.47-15.36 2.45-21.7z"/><path class="cls-17" d="M74.85 967.89c.63-8.71-1.88-15.62.08-19.45a7.39 7.39 0 00-.79.33c-5.77 2.77-1.67 10.84-2.45 21.7-.69 10.19 12.67 14.43 18.45 11.67a9.59 9.59 0 003.1-2.55c-5.8 2.71-19.12-1.54-18.39-11.7z"/><path d="M204.49 1026.83c3.39 5.59-2.25 12.08-6.32 12.44s-11.16-5.18-8.44-11.11c2.9-6.33 2.25-12.08 6.32-12.45s4.13 4.02 8.44 11.12z" fill="url(#Degradado_sin_nombre_12-5)"/><path class="cls-16" d="M204.49 1026.83c-4.31-7.1-4.36-11.48-8.44-11.12h-.35c3.68 0 3.87 4.28 8 11.14 3.28 5.41-1.9 11.67-5.94 12.39h.38c4.1-.33 9.74-6.82 6.35-12.41z"/><path class="cls-17" d="M192.2 1027.32c2.33-5.07 2.37-9.77 4.4-11.63h-.55c-4.07.37-3.42 6.12-6.32 12.45-2.72 5.93 4.36 11.48 8.44 11.11a6.07 6.07 0 002.43-.83c-4.08.35-11.11-5.18-8.4-11.1z"/><path d="M265.43 936.18c2.3 6.06-4.36 11.38-8.4 11s-10-7-6.24-12.35c4-5.65 4.36-11.38 8.4-11s3.31 4.65 6.24 12.35z" fill="url(#Degradado_sin_nombre_12-6)"/><path class="cls-16" d="M265.43 936.18c-2.93-7.7-2.2-12-6.24-12.35h-.36c3.6.62 3 4.86 5.84 12.3 2.23 5.87-3.95 11-8 11a2.52 2.52 0 00.37 0c4.03.43 10.69-4.89 8.39-10.95z"/><path class="cls-17" d="M253.35 934.46c3.18-4.53 4.06-9.11 6.37-10.55a2.81 2.81 0 00-.53-.08c-4-.38-4.44 5.35-8.4 11-3.72 5.3 2.2 12 6.24 12.35a5.9 5.9 0 002.52-.37c-4.04-.41-9.9-7.06-6.2-12.35z"/><path d="M181.39 480.64c15.2 7.49 11.94 29.54 3.54 36s-31.62 4.25-34-12.53c-2.49-17.87-11.94-29.54-3.54-36s14.67 3.01 34 12.53z" fill="url(#Degradado_sin_nombre_12-7)"/><path class="cls-16" d="M181.39 480.64c-19.33-9.52-25.56-19-34-12.53-.25.2-.49.4-.71.61 8-5.23 14.44 3.94 33.11 13.13 14.72 7.26 12.12 28.19 4.3 35.38a9.47 9.47 0 00.8-.56c8.44-6.49 11.7-28.54-3.5-36.03z"/><path class="cls-17" d="M155.21 498.87c-2-14.34-8.47-24.68-6.62-31.56a12.74 12.74 0 00-1.16.8c-8.4 6.49 1 18.16 3.54 36 2.34 16.78 25.56 19 34 12.53a15.78 15.78 0 004.16-5.21c-8.52 6.44-31.59 4.16-33.92-12.56z"/><path d="M221.92 636.73c4.83 2.38 3.79 9.39 1.13 11.45s-10.05 1.35-10.8-4c-.79-5.68-3.79-9.39-1.12-11.45s4.65.98 10.79 4z" fill="url(#Degradado_sin_nombre_12-8)"/><path class="cls-16" d="M221.92 636.73c-6.14-3-8.12-6-10.79-4l-.23.19c2.54-1.66 4.59 1.25 10.52 4.18 4.68 2.3 3.86 9 1.37 11.24l.26-.18c2.67-2.04 3.7-9.05-1.13-11.43z"/><path class="cls-17" d="M213.6 642.52c-.63-4.55-2.69-7.84-2.1-10a4 4 0 00-.37.25c-2.67 2.06.33 5.77 1.12 11.45.75 5.33 8.13 6 10.8 4a5.3 5.3 0 001.32-1.65c-2.7 1.99-10.03 1.27-10.77-4.05z"/><path d="M317.92 515.73c4.83 2.38 3.79 9.39 1.13 11.45s-10.05 1.35-10.8-4c-.79-5.68-3.79-9.39-1.12-11.45s4.65.98 10.79 4z" fill="url(#Degradado_sin_nombre_12-9)"/><path class="cls-16" d="M317.92 515.73c-6.14-3-8.12-6-10.79-4l-.23.19c2.54-1.66 4.59 1.25 10.52 4.18 4.68 2.3 3.86 9 1.37 11.24l.26-.18c2.67-2.04 3.7-9.05-1.13-11.43z"/><path class="cls-17" d="M309.6 521.52c-.63-4.55-2.69-7.84-2.1-10a4 4 0 00-.37.25c-2.67 2.06.33 5.77 1.12 11.45.75 5.33 8.13 6 10.8 4a5.3 5.3 0 001.32-1.65c-2.7 1.99-10.03 1.27-10.77-4.05z"/><path d="M304.68 623.69c3.61 1.77 2.83 7 .84 8.54s-7.5 1-8-3c-.59-4.24-2.83-7-.84-8.54s3.42.74 8 3z" fill="url(#Degradado_sin_nombre_12-10)"/><path class="cls-16" d="M304.68 623.69c-4.58-2.26-6.06-4.51-8.05-3l-.17.14c1.9-1.24 3.42.93 7.85 3.12 3.49 1.72 2.88 6.68 1 8.38l.19-.13c2.01-1.51 2.79-6.74-.82-8.51z"/><path class="cls-17" d="M298.48 628c-.48-3.4-2-5.85-1.57-7.48a1.73 1.73 0 00-.28.19c-2 1.54.25 4.3.84 8.54.55 4 6.06 4.51 8 3a3.75 3.75 0 001-1.23c-1.97 1.5-7.47.98-7.99-3.02z"/><path d="M330.68 705.69c3.61 1.77 2.83 7 .84 8.54s-7.5 1-8-3c-.59-4.24-2.83-7-.84-8.54s3.42.74 8 3z" fill="url(#Degradado_sin_nombre_12-11)"/><path class="cls-16" d="M330.68 705.69c-4.58-2.26-6.06-4.51-8.05-3l-.17.14c1.9-1.24 3.42.93 7.85 3.12 3.49 1.72 2.88 6.68 1 8.38l.19-.13c2.01-1.51 2.79-6.74-.82-8.51z"/><path class="cls-17" d="M324.48 710c-.48-3.4-2-5.85-1.57-7.48a1.73 1.73 0 00-.28.19c-2 1.54.25 4.3.84 8.54.55 4 6.06 4.51 8 3a3.75 3.75 0 001-1.23c-1.97 1.5-7.47.98-7.99-3.02z"/><path d="M388.92 579.73c4.83 2.38 3.79 9.39 1.13 11.45s-10.05 1.35-10.8-4c-.79-5.68-3.79-9.39-1.12-11.45s4.65.98 10.79 4z" fill="url(#Degradado_sin_nombre_12-12)"/><path class="cls-16" d="M388.92 579.73c-6.14-3-8.12-6-10.79-4l-.23.19c2.54-1.66 4.59 1.25 10.52 4.18 4.68 2.3 3.86 9 1.37 11.24l.26-.18c2.67-2.04 3.7-9.05-1.13-11.43z"/><path class="cls-17" d="M380.6 585.52c-.63-4.55-2.69-7.84-2.1-10a4 4 0 00-.37.25c-2.67 2.06.33 5.77 1.12 11.45.75 5.33 8.13 6 10.8 4a5.3 5.3 0 001.32-1.65c-2.7 1.99-10.03 1.27-10.77-4.05z"/><path d="M714.08 257.5c11.54 23.56-13.33 47.5-29.77 47.5s-42.78-24.72-29.76-47.5c13.86-24.26 13.33-47.5 29.76-47.5s15.09 17.53 29.77 47.5z" fill="url(#Degradado_sin_nombre_12-13)"/><path class="cls-16" d="M714.08 257.5c-14.68-30-13.33-47.5-29.77-47.5a13.62 13.62 0 00-1.44.07c14.74 1.15 14 18.49 28.14 47.43 11.18 22.83-11.81 46-28.21 47.43.51.05 1 .07 1.51.07 16.44 0 41.31-23.94 29.77-47.5z"/><path class="cls-17" d="M664.74 255.05c11.12-19.46 13-38.26 21.76-44.94a21.68 21.68 0 00-2.19-.11c-16.43 0-15.9 23.24-29.76 47.5-13 22.78 13.33 47.5 29.76 47.5a24.5 24.5 0 0010-2.45c-16.42-.17-42.54-24.8-29.57-47.5z"/><path d="M780.27 134.5c5.47 11.16-6.31 22.5-14.1 22.5s-20.26-11.71-14.1-22.5c6.57-11.49 6.31-22.5 14.1-22.5s7.15 8.3 14.1 22.5z" fill="url(#Degradado_sin_nombre_12-14)"/><path class="cls-16" d="M780.27 134.5c-6.95-14.2-6.31-22.5-14.1-22.5h-.68c7 .55 6.61 8.76 13.33 22.47 5.29 10.81-5.6 21.8-13.36 22.47h.71c7.83.06 19.57-11.28 14.1-22.44z"/><path class="cls-17" d="M756.9 133.34c5.27-9.22 6.15-18.12 10.31-21.29h-1c-7.79 0-7.53 11-14.1 22.5-6.16 10.79 6.31 22.5 14.1 22.5a11.56 11.56 0 004.75-1.16c-7.83-.13-20.2-11.8-14.06-22.55z"/><path d="M874.29 257.5c1.63 3.33-1.88 6.71-4.21 6.71s-6.05-3.49-4.21-6.71c2-3.43 1.89-6.71 4.21-6.71s2.13 2.47 4.21 6.71z" fill="url(#Degradado_sin_nombre_12-15)"/><path class="cls-16" d="M874.29 257.5c-2.08-4.24-1.88-6.71-4.21-6.71h-.2c2.08.16 2 2.61 4 6.7 1.58 3.23-1.67 6.5-4 6.7h.21c2.32.02 5.83-3.36 4.2-6.69z"/><path class="cls-17" d="M867.32 257.15c1.57-2.75 1.83-5.4 3.07-6.35h-.31c-2.32 0-2.25 3.28-4.21 6.71-1.84 3.22 1.89 6.71 4.21 6.71a3.5 3.5 0 001.42-.34c-2.33-.04-6.02-3.52-4.18-6.73z"/><path d="M828.75 377.5c3.73 7.62-4.31 15.35-9.62 15.35s-13.83-8-9.62-15.35c4.48-7.84 4.31-15.35 9.62-15.35s4.87 5.66 9.62 15.35z" fill="url(#Degradado_sin_nombre_12-16)"/><path class="cls-16" d="M828.75 377.5c-4.74-9.69-4.31-15.35-9.62-15.35a3.62 3.62 0 00-.47 0c4.77.37 4.52 6 9.1 15.33 3.61 7.38-3.82 14.87-9.12 15.33a4.1 4.1 0 00.49 0c5.31.04 13.35-7.69 9.62-15.31z"/><path class="cls-17" d="M812.81 376.71c3.59-6.29 4.19-12.37 7-14.53h-.71c-5.31 0-5.14 7.51-9.62 15.35-4.21 7.36 4.31 15.35 9.62 15.35a7.89 7.89 0 003.24-.79c-5.29-.09-13.73-8.04-9.53-15.38z"/><path d="M916.86 479.5c7.22 14.76-8.35 29.75-18.65 29.75s-26.79-15.48-18.64-29.75c8.68-15.2 8.35-29.75 18.64-29.75s9.45 10.98 18.65 29.75z" fill="url(#Degradado_sin_nombre_12-17)"/><path class="cls-16" d="M916.86 479.5c-9.2-18.77-8.35-29.75-18.65-29.75a8.77 8.77 0 00-.9 0c9.23.72 8.75 11.58 17.63 29.71 7 14.3-7.41 28.82-17.67 29.71h.94c10.3.08 25.87-14.91 18.65-29.67z"/><path class="cls-17" d="M886 478c7-12.19 8.13-24 13.63-28.15a12 12 0 00-1.37-.07c-10.29 0-10 14.55-18.64 29.75-8.15 14.27 8.35 29.75 18.64 29.75a15.45 15.45 0 006.28-1.53c-10.35-.14-26.71-15.56-18.54-29.75z"/><path d="M701.86 562.5c7.22 14.76-8.35 29.75-18.65 29.75s-26.79-15.48-18.64-29.75c8.68-15.2 8.35-29.75 18.64-29.75s9.45 10.98 18.65 29.75z" fill="url(#Degradado_sin_nombre_12-18)"/><path class="cls-16" d="M701.86 562.5c-9.2-18.77-8.35-29.75-18.65-29.75a8.77 8.77 0 00-.9 0c9.23.72 8.75 11.58 17.63 29.71 7 14.3-7.41 28.82-17.67 29.71h.94c10.3.08 25.87-14.91 18.65-29.67z"/><path class="cls-17" d="M671 561c7-12.19 8.13-24 13.63-28.15a12 12 0 00-1.37-.07c-10.29 0-10 14.55-18.64 29.75-8.15 14.27 8.35 29.75 18.64 29.75a15.45 15.45 0 006.28-1.53c-10.35-.14-26.71-15.56-18.54-29.75z"/><path d="M657.11 431.5c2.33 4.76-2.69 9.59-6 9.59s-8.64-5-6-9.59c2.8-4.9 2.69-9.59 6-9.59s3.03 3.54 6 9.59z" fill="url(#Degradado_sin_nombre_12-19)"/><path class="cls-16" d="M657.11 431.5c-3-6.05-2.69-9.59-6-9.59h-.29c3 .23 2.82 3.73 5.68 9.58 2.26 4.61-2.39 9.29-5.7 9.58h.31c3.31.02 8.33-4.81 6-9.57z"/><path class="cls-17" d="M647.15 431c2.24-3.93 2.62-7.73 4.39-9.08a3.17 3.17 0 00-.44 0c-3.32 0-3.21 4.69-6 9.59-2.63 4.6 2.69 9.59 6 9.59a4.9 4.9 0 002-.49c-3.3-.05-8.57-5.02-5.95-9.61z"/><path class="cls-35" d="M789.37 959.73zm7.89 813.78q-7.68-4.44-15.2-9.15 7.52 4.71 15.2 9.15zm.65.37q7.83 4.51 15.83 8.76-8-4.24-15.83-8.76zm-75.33-52.96c2.46 2.09 4.94 4.14 7.44 6.18q-3.75-3.1-7.44-6.18zm72.96-822.02c-.69-2.43-1.44-4.86-2.21-7.3.77 2.4 1.52 4.87 2.21 7.3zm28.07-94.76c1.47.61 2.94 1.22 4.41 1.85-1.47-.63-2.94-1.24-4.41-1.85zM960.5 1833.61c2.66.48 5.33 1 8 1.39-2.67-.44-5.34-.91-8-1.39zM814 800.38c1.38.51 2.77 1 4.15 1.57-1.4-.53-2.79-1.06-4.15-1.57zm-5.45-1.97c1.45.51 2.9 1 4.35 1.57-1.45-.54-2.9-1.06-4.35-1.57zM828.1 806q2.39 1 4.77 2.1-2.39-1.1-4.77-2.1zm-111.31 910c1.22 1.07 2.45 2.12 3.68 3.18-1.23-1.11-2.47-2.18-3.68-3.18zm-26.47-798.18q.12-3 .49-5.88-.37 2.93-.49 5.88zm17.32-46.63l-2.12 3.26a120.88 120.88 0 00-6.23 10.84 120.88 120.88 0 016.23-10.84zm.28 96.81a65.75 65.75 0 01-3.52-4.43 94.78 94.78 0 003.52 4.43zm-.28-96.81l2.16-3.26zm245.07 960.94l5 1zM692.74 902.19zM842 1796.53q2.84 1.29 5.68 2.54-2.83-1.24-5.68-2.54zM701.26 958.81a77.87 77.87 0 01-9.1-22.25 69.2 69.2 0 01-1.89-16.56 69.2 69.2 0 001.89 16.61 77.87 77.87 0 009.1 22.2zm1.74 744.7l3.32 3.08zm5.73 5.26c2 1.83 4 3.64 6.09 5.44-2.05-1.79-4.07-3.61-6.09-5.44zm-7.47-749.96c.66 1.08 1.34 2.14 2 3.18-.66-.99-1.34-2.1-2-3.18zM818.34 802c1.51.59 3 1.19 4.52 1.81-1.51-.59-3.01-1.19-4.52-1.81zm-57.82 948.12c-3-2.11-6-4.25-9-6.42 2.98 2.17 5.97 4.3 9 6.42zm-10.52-7.54c-1.45-1.07-2.91-2.15-4.35-3.24 1.43 1.09 2.89 2.17 4.35 3.24zm15.37 10.89c-1.56-1.07-3.12-2.13-4.66-3.21 1.54 1.08 3.1 2.14 4.66 3.21zm-20.2-14.47q-4.2-3.16-8.33-6.43 4.16 3.25 8.33 6.43zm35.96 24.78q-7.35-4.62-14.53-9.48 7.17 4.86 14.53 9.48zm-22.45-781.94zM652.69 1649c.63.8 1.28 1.59 1.92 2.38-.61-.82-1.29-1.61-1.92-2.38zm82.31 82.13c-1.34-1.07-2.69-2.14-4-3.23 1.33 1.1 2.68 2.16 4 3.23zm95.74 60.12q5.5 2.65 11.07 5.19-5.56-2.53-11.07-5.19zm-160.88-121.87zm-5.32-6.09l2.26 2.61zm-4.54-5.41l-2.13-2.57zm129.23-852.07a26.79 26.79 0 00-2 2 26.79 26.79 0 012-2zm3.39-2.59a28.05 28.05 0 012.5-1.45 28.05 28.05 0 00-2.5 1.45zm2.5-1.45a30.21 30.21 0 014.11-1.75 30.21 30.21 0 00-4.11 1.75zm19.01 981.08q5.37 2.84 10.82 5.56-5.44-2.72-10.82-5.56zm10.87 5.58q2.78 1.38 5.57 2.73-2.8-1.35-5.57-2.73zm-36.86-912.51zm-18.06 100.83c-.85.49-1.72 1-2.6 1.41.88-.45 1.75-.92 2.6-1.41zm8.73-147.37c0 .57 0 1.15-.06 1.73.01-.58.03-1.11.06-1.73zm8.07 133.37a71.59 71.59 0 01-6.68 6.72 62.47 62.47 0 01-10.12 7.28 62.47 62.47 0 0010.12-7.28 71.59 71.59 0 006.68-6.72zm-2.29-151.64zm-4.28 9.19a33.13 33.13 0 012.79-6.76 33.13 33.13 0 00-2.79 6.76zm191.36 1015.23c1.55.25 3.11.49 4.66.72-1.55-.25-3.11-.47-4.66-.72zm504.61-727.35l.28-.11zm-6.53 2.64l.53-.21zm12.76-5.22h.09zm-25.7 10.22l.58-.21zm31.55-12.72l.61-.26zm-44.81 17.53l.3-.11zm-35.29 11.18l.38-.11zm-7.51 2.06l.56-.15zm99.25-35.93l.61-.28zm-63.51 25.11l.5-.17zm-14.01 4.54l.62-.2zm118.67-49.85l.74-.39zm-35.24 17.5l.41-.19zM646.3 1640.79c.62.81 1.24 1.62 1.87 2.42-.63-.8-1.25-1.61-1.87-2.42zm907.7-570.02l.56-.31zm7.42-4.19l.68-.39zm-3.75 2.13l.54-.3zm-171.79 68.92l.75-.17zm130.76-47.47l.68-.33zm-5.27 2.52l.28-.13zm20.63-10.16l.51-.26zm-5.16 2.61l.7-.35zm9.74-4.98l.45-.24zm13.13-7.01l.72-.4zm-276 719.07q-3.26 1.55-6.52 3.06a512.53 512.53 0 00116.72-74.39q-2.6 2.19-5.2 4.35v-585.94c-33.63 7.5-69.18 11.89-105 10.8zM969.4 917.85c1.29 1.61 2.58 3.25 3.86 4.9-1.26-1.65-2.57-3.29-3.86-4.9zM981.75 934q1.63 2.24 3.27 4.51-1.63-2.27-3.27-4.51zm-8.44-11.18q3.95 5.08 7.86 10.39-3.92-5.31-7.86-10.39zm-20.6-24.77zm32.95 41.36q3.76 5.3 7.51 10.82-3.73-5.52-7.51-10.82zm5.51 898.85l3.93.47zm-10.99-1.45c2.16.31 4.33.6 6.5.89-2.17-.29-4.34-.58-6.5-.89zm22.16 2.69l3.07.28zm8.88.79l2.92.23zM847.71 815.24v983.83a507.43 507.43 0 00105 33V898.05c-38.62-43.23-79.35-71.73-119.56-89.81q7.28 3.27 14.56 7zm109.19 87.58q6.11 7 12.13 14.57-6.03-7.54-12.13-14.57zm56.34 79.18c1.16 2 2.31 4 3.47 6-1.16-2-2.31-4-3.47-6zm174.39 153.61l.23.08zm-14.12-5l.26.1zm64.16 16.45h.13zm-14.4-2.36h.18zM997.79 957.16c1 1.5 2 3 3 4.54-1.03-1.53-2.02-3.04-3-4.54zm11.87 18.84q1.27 2.12 2.53 4.24-1.26-2.1-2.53-4.24zm-8.23-13.22zm-7.55-11.51c1 1.47 2 2.94 3 4.43-1.03-1.49-2.02-2.96-3-4.43zm11.8 18.25q1.44 2.33 2.88 4.69-1.44-2.37-2.88-4.69zm462.22 660.82q-1.32 1.83-2.66 3.63 1.34-1.8 2.66-3.63zm70.53-136.51q-1.08 3.21-2.2 6.39 1.13-3.22 2.2-6.39zm-20.88 52.17c-1 2-1.91 4.06-2.88 6.08.97-2.03 1.93-4.08 2.88-6.08zm-2.93 6.16c-.94 2-1.9 3.92-2.87 5.87.97-1.95 1.93-3.9 2.87-5.87zm8.38-18.31c-.57 1.32-1.16 2.64-1.74 4 .59-1.36 1.18-2.68 1.74-4zm-15.35 32.2c-.66 1.27-1.32 2.54-2 3.8.68-1.26 1.35-2.53 2-3.8zm3.22-6.28c-.71 1.4-1.41 2.79-2.13 4.18.72-1.39 1.42-2.78 2.13-4.18zm14.77-32.09c-.53 1.28-1.07 2.55-1.62 3.82.55-1.27 1.09-2.5 1.62-3.82zm10.54-27.32q-1.1 3.09-2.22 6.15 1.13-3.06 2.22-6.15zm-2.94 8.09zm-5.03 12.99l-1.56 3.83zm2.51-6.36c-.51 1.32-1 2.64-1.55 4 .52-1.36 1.04-2.68 1.55-4zm-10.4 24.92l-2 4.46zm-40.95 73.86q-1.21 1.82-2.44 3.62 1.23-1.8 2.44-3.62zm-3.8 5.61c-.8 1.17-1.61 2.33-2.42 3.49.85-1.16 1.62-2.32 2.42-3.49zm-3.81 5.53l-2.49 3.49zm11.48-17l-2.62 4q1.32-2 2.62-4zm-19.24 27.66q-1.58 2.11-3.17 4.21l3.17-4.21zm27.29-40.52c-1.16 1.92-2.34 3.83-3.52 5.73 1.23-1.87 2.36-3.81 3.52-5.73zm9.98-17.2c-.68 1.23-1.37 2.45-2.06 3.67.69-1.22 1.38-2.44 2.06-3.67zm-3.27 5.8l-2.22 3.83zm-10.24 17.14q-1.74 2.79-3.53 5.57 1.77-2.78 3.53-5.57zm6.92-11.41q-1.29 2.19-2.61 4.37 1.32-2.17 2.61-4.37zm9.8-17.41c-.66 1.23-1.33 2.45-2 3.67.67-1.22 1.34-2.44 2-3.67zm49.09-133.06q-.72 3.33-1.48 6.64.77-3.28 1.48-6.64zm8.28-50q-.39 3.36-.82 6.71.44-3.39.82-6.71zm-3.2 23.07zm-18.12 75.39q-.73 2.26-1.49 4.53.75-2.26 1.49-4.53zm19.19-82.34c-.2 1.4-.41 2.79-.62 4.18.21-1.39.42-2.78.62-4.18zm1.02-7.23c-.21 1.53-.41 3.07-.63 4.6.22-1.49.42-3.07.63-4.6zm1.86-15.96q-.35 3.45-.73 6.88.39-3.43.73-6.88zm2.32-35.09c0 1.44-.09 2.87-.15 4.31.06-1.44.11-2.87.15-4.31zm.19-7.46c0 1.58-.06 3.15-.1 4.72.04-1.57.07-3.1.1-4.72zm-1.3 28.69zm.46-6.99q-.12 2.07-.27 4.14.15-2.07.27-4.14zm.37-7.08c-.06 1.39-.13 2.78-.2 4.17.07-1.38.14-2.77.2-4.17zm-1.39 21c-.14 1.57-.29 3.13-.44 4.69.19-1.54.3-3.1.44-4.69zm-16.86 93c-.37 1.31-.74 2.62-1.12 3.93.38-1.31.73-2.62 1.12-3.93zm3.61-13.63c-.38 1.49-.75 3-1.14 4.47.38-1.48.75-2.98 1.14-4.47zm-1.8 6.95c-.36 1.36-.72 2.72-1.09 4.07.37-1.39.73-2.71 1.09-4.07zm-5.64 19.68c-.42 1.36-.85 2.71-1.28 4.07.43-1.33.86-2.68 1.28-4.07zm1.95-6.45l-1.17 3.93zm7.49-28.65q-.73 3.19-1.52 6.37.81-3.18 1.52-6.37zm4.28-20.25c-.26 1.39-.54 2.79-.81 4.18.27-1.39.53-2.83.81-4.18zm1.23-6.76c-.24 1.35-.48 2.7-.73 4 .22-1.3.49-2.65.73-4zm-2.51 13.47c-.31 1.54-.64 3.07-1 4.6.33-1.53.66-3.06 1-4.6zm-95 208.55q-4.07 5.29-8.24 10.48 4.24-5.19 8.24-10.48zm-13.78 17.25l-2.85 3.39zm-761.13 27.69l-2.73-2.86zm-5.59-5.85c-.87-.93-1.75-1.86-2.61-2.8.86.9 1.74 1.8 2.61 2.8zM585 1537.43l-.15-.34zm-4.33-9.99l.81 1.93zm109.05 163.13l3 3zm5.61 5.55q1.63 1.61 3.28 3.2-1.61-1.59-3.28-3.2zm326.8-698.95l-1.25-2.06zm22.12 844.74h-2.11zm-455.94-297.12zm445.19 296.83l-1.65-.07zm-8.89-.42l-2.47-.14zm-389.33-215.38l1.63 2.3zm-20.47-31.21l1.26 2.07zm9.96 15.81l1.44 2.18zm-4.53-7.01l1 1.58zm406.31-599.11l-1.35-2.14zM630.52 1619l1.3 1.88zm-19.24-30.31l-.76-1.29zm-9.92-17.69l.53 1zm-4.8-9.22l1 1.94zm8.84 16.61l1.11 2zm-12.61-24.16c.11.22.22.43.32.65-.11-.22-.21-.43-.32-.65zm815.76 144.37q-1.6 1.55-3.22 3.08 1.67-1.53 3.22-3.08zm-9.79 9.2l-3.25 3zm14.83-14.13q-1.74 1.72-3.49 3.44 1.76-1.71 3.49-3.44zm-9.94 9.6l-3.17 3zM1565.21 1330zm-114.51 322.73c-1 1.25-2 2.51-3.09 3.76 1.04-1.25 2.07-2.49 3.09-3.76zm-35.91 39.76q4.71-4.71 9.32-9.54-4.6 4.83-9.32 9.54zm-771.85-56.15c-.53-.71-1.07-1.42-1.6-2.14.53.72 1.07 1.43 1.6 2.14zm785.67 41.81q-1.84 2-3.72 4 1.88-2.01 3.72-4zm13.23-14.82q-1.39 1.64-2.81 3.25 1.41-1.58 2.81-3.25zm-8.78 9.96c-1 1.15-2.07 2.28-3.11 3.41 1.05-1.13 2.05-2.26 3.11-3.41zm4.41-4.93c-1 1.09-1.93 2.17-2.89 3.25.96-1.08 1.93-2.16 2.89-3.25zm-48.57 48.24c-1.4 1.21-2.8 2.42-4.21 3.61 1.41-1.21 2.81-2.4 4.21-3.61zm-128.58 81.77q3.2-1.41 6.36-2.87-3.17 1.5-6.36 2.87zM1053.21 1842a512.16 512.16 0 00143.34-20.35q-18.15 5.3-36.84 9.25v-706.05c-37.4-16.81-73.09-43-105-81.6V1842zm-3.35-804.74l-.26-.33zm-5.03-6.5v-.06zm-9.6-13.31l-.34-.5zm190.12 794.88zm-28.7 9.29q14.52-4.21 28.66-9.27-14.14 5.04-28.66 9.27zm35.9-11.92q14-5.22 27.49-11.2-13.55 5.99-27.49 11.2zM1030.88 1011l-1.15-1.75zm362.97 701.24l-3.49 3.08z" opacity=".05"/><path d="M1270.45 1706.5c11.29 23.06-13 46.5-29.14 46.5s-41.88-24.2-29.14-46.5c13.57-23.75 13-46.5 29.14-46.5s14.77 17.16 29.14 46.5z" fill="url(#Degradado_sin_nombre_35-4)"/><path class="cls-16" d="M1270.45 1706.5c-14.37-29.34-13-46.5-29.14-46.5-.49 0-1 0-1.42.06 14.43 1.13 13.68 18.1 27.56 46.44 10.94 22.35-11.57 45-27.62 46.43a14.8 14.8 0 001.48.07c16.09 0 40.43-23.44 29.14-46.5z"/><path class="cls-17" d="M1222.15 1704.11c10.88-19 12.7-37.46 21.3-44a20.83 20.83 0 00-2.14-.11c-16.09 0-15.57 22.75-29.14 46.5-12.74 22.3 13 46.5 29.14 46.5a24.08 24.08 0 009.81-2.4c-16.12-.16-41.67-24.27-28.97-46.49z"/><path d="M649.3 1037.5c5.48 11.19-6.32 22.55-14.13 22.55s-20.31-11.74-14.13-22.55c6.58-11.52 6.33-22.55 14.13-22.55s7.16 8.32 14.13 22.55z" fill="url(#Degradado_sin_nombre_35-5)"/><path class="cls-16" d="M649.3 1037.5c-7-14.23-6.32-22.55-14.13-22.55h-.68c7 .54 6.63 8.78 13.36 22.52 5.31 10.84-5.61 21.85-13.4 22.52h.72c7.83.06 19.61-11.3 14.13-22.49z"/><path class="cls-17" d="M625.88 1036.34c5.28-9.24 6.16-18.17 10.33-21.34h-1c-7.8 0-7.55 11-14.13 22.55-6.18 10.81 6.33 22.55 14.13 22.55a11.61 11.61 0 004.76-1.16c-7.85-.13-20.25-11.82-14.09-22.6z"/><path d="M665.3 1242.5c5.48 11.19-6.32 22.55-14.13 22.55s-20.31-11.74-14.13-22.55c6.58-11.52 6.33-22.55 14.13-22.55s7.16 8.32 14.13 22.55z" fill="url(#Degradado_sin_nombre_35-6)"/><path class="cls-16" d="M665.3 1242.5c-7-14.23-6.32-22.55-14.13-22.55h-.68c7 .54 6.63 8.78 13.36 22.52 5.31 10.84-5.61 21.85-13.4 22.52h.72c7.83.06 19.61-11.3 14.13-22.49z"/><path class="cls-17" d="M641.88 1241.34c5.28-9.24 6.16-18.17 10.33-21.34h-1c-7.8 0-7.55 11-14.13 22.55-6.18 10.81 6.33 22.55 14.13 22.55a11.61 11.61 0 004.76-1.16c-7.85-.13-20.25-11.82-14.09-22.6z"/><path d="M1123.84 1311.5c3.38 6.9-3.9 13.91-8.72 13.91s-12.53-7.24-8.72-13.91c4.06-7.11 3.91-13.91 8.72-13.91s4.42 5.13 8.72 13.91z" fill="url(#Degradado_sin_nombre_35-7)"/><path class="cls-16" d="M1123.84 1311.5c-4.3-8.78-3.9-13.91-8.72-13.91a3 3 0 00-.42 0c4.32.33 4.09 5.41 8.24 13.89 3.28 6.69-3.46 13.48-8.26 13.89a3.31 3.31 0 00.44 0c4.82.04 12.1-6.97 8.72-13.87z"/><path class="cls-17" d="M1109.39 1310.78c3.26-5.7 3.8-11.2 6.37-13.16a6.4 6.4 0 00-.64 0c-4.81 0-4.66 6.8-8.72 13.91-3.81 6.67 3.91 13.91 8.72 13.91a7.22 7.22 0 002.94-.71c-4.82-.08-12.47-7.3-8.67-13.95z"/><path d="M1228.84 1325.5c3.38 6.9-3.9 13.91-8.72 13.91s-12.53-7.24-8.72-13.91c4.06-7.11 3.91-13.91 8.72-13.91s4.42 5.13 8.72 13.91z" fill="url(#Degradado_sin_nombre_35-8)"/><path class="cls-16" d="M1228.84 1325.5c-4.3-8.78-3.9-13.91-8.72-13.91a3 3 0 00-.42 0c4.32.33 4.09 5.41 8.24 13.89 3.28 6.69-3.46 13.48-8.26 13.89a3.31 3.31 0 00.44 0c4.82.04 12.1-6.97 8.72-13.87z"/><path class="cls-17" d="M1214.39 1324.78c3.26-5.7 3.8-11.2 6.37-13.16a6.4 6.4 0 00-.64 0c-4.81 0-4.66 6.8-8.72 13.91-3.81 6.67 3.91 13.91 8.72 13.91a7.22 7.22 0 002.94-.71c-4.82-.08-12.47-7.3-8.67-13.95z"/><path d="M1061.84 1472.5c3.38 6.9-3.9 13.91-8.72 13.91s-12.53-7.24-8.72-13.91c4.06-7.11 3.91-13.91 8.72-13.91s4.42 5.13 8.72 13.91z" fill="url(#Degradado_sin_nombre_35-9)"/><path class="cls-16" d="M1061.84 1472.5c-4.3-8.78-3.9-13.91-8.72-13.91a3 3 0 00-.42 0c4.32.33 4.09 5.41 8.24 13.89 3.28 6.69-3.46 13.48-8.26 13.89a3.31 3.31 0 00.44 0c4.82.04 12.1-6.97 8.72-13.87z"/><path class="cls-17" d="M1047.39 1471.78c3.26-5.7 3.8-11.2 6.37-13.16a6.4 6.4 0 00-.64 0c-4.81 0-4.66 6.8-8.72 13.91-3.81 6.67 3.91 13.91 8.72 13.91a7.22 7.22 0 002.94-.71c-4.82-.08-12.47-7.3-8.67-13.95z"/><path d="M761.84 1564.5c3.38 6.9-3.9 13.91-8.72 13.91s-12.53-7.24-8.72-13.91c4.06-7.11 3.91-13.91 8.72-13.91s4.42 5.13 8.72 13.91z" fill="url(#Degradado_sin_nombre_35-10)"/><path class="cls-16" d="M761.84 1564.5c-4.3-8.78-3.9-13.91-8.72-13.91a3 3 0 00-.42 0c4.32.33 4.09 5.41 8.24 13.89 3.28 6.69-3.46 13.48-8.26 13.89a3.31 3.31 0 00.44 0c4.82.04 12.1-6.97 8.72-13.87z"/><path class="cls-17" d="M747.39 1563.78c3.26-5.7 3.8-11.2 6.37-13.16a6.4 6.4 0 00-.64 0c-4.81 0-4.66 6.8-8.72 13.91-3.81 6.67 3.91 13.91 8.72 13.91a7.22 7.22 0 002.94-.71c-4.82-.08-12.47-7.3-8.67-13.95z"/><path d="M959.78 1195.5c11.43 23.33-13.19 47-29.47 47s-42.36-24.48-29.47-47c13.73-24 13.2-47 29.47-47s14.94 17.33 29.47 47z" fill="url(#Degradado_sin_nombre_35-11)"/><path class="cls-16" d="M959.78 1195.5c-14.53-29.67-13.19-47-29.47-47-.49 0-1 0-1.43.06 14.6 1.14 13.83 18.31 27.87 47 11.07 22.6-11.7 45.56-27.93 47 .5 0 1 .07 1.49.07 16.28-.1 40.9-23.8 29.47-47.13z"/><path class="cls-17" d="M910.93 1193.08c11-19.27 12.85-37.88 21.55-44.5a21.43 21.43 0 00-2.17-.11c-16.27 0-15.74 23-29.47 47-12.89 22.55 13.2 47 29.47 47a24.26 24.26 0 009.92-2.43c-16.23-.1-42.14-24.49-29.3-46.96z"/><path d="M976.15 1602.5c13.88 28.33-16 57.11-35.78 57.11s-51.44-29.72-35.79-57.11c16.67-29.17 16-57.11 35.79-57.11s18.14 21.08 35.78 57.11z" fill="url(#Degradado_sin_nombre_35-12)"/><path class="cls-16" d="M976.15 1602.5c-17.64-36-16-57.11-35.78-57.11-.6 0-1.18 0-1.74.08 17.72 1.38 16.79 22.23 33.84 57 13.44 27.45-14.21 55.32-33.92 57 .62 0 1.22.08 1.82.08 19.76.06 49.63-28.72 35.78-57.05z"/><path class="cls-17" d="M916.84 1599.56c13.37-23.4 15.6-46 26.16-54a24.43 24.43 0 00-2.63-.14c-19.77 0-19.12 27.94-35.79 57.11-15.65 27.39 16 57.11 35.79 57.11a29.45 29.45 0 0012-2.95c-19.73-.23-51.13-29.84-35.53-57.13z"/><circle cx="1391.71" cy="1510" r="15" fill="url(#Degradado_sin_nombre_35-13)"/><circle cx="1052.71" cy="1794" r="5" fill="url(#Degradado_sin_nombre_35-14)"/><circle cx="944.71" cy="1766" r="8" fill="url(#Degradado_sin_nombre_35-15)"/><circle cx="1044.71" cy="1720" r="6" fill="url(#Degradado_sin_nombre_35-16)"/><circle cx="1204.71" cy="1525" r="6" fill="url(#Degradado_sin_nombre_35-17)"/><circle cx="1412.71" cy="1339" r="6" fill="url(#Degradado_sin_nombre_35-18)"/><circle cx="1455.71" cy="1196" r="12" fill="url(#Degradado_sin_nombre_35-19)"/><circle cx="1406.71" cy="765" r="28" fill="url(#Degradado_sin_nombre_35-20)"/><circle cx="1210.71" cy="991" r="19" fill="url(#Degradado_sin_nombre_35-21)"/><circle cx="1502.71" cy="1022" r="12" fill="url(#Degradado_sin_nombre_35-22)"/><circle cx="1337.71" cy="1276" r="18" fill="url(#Degradado_sin_nombre_35-23)"/><circle cx="1278.71" cy="851" r="41" fill="url(#Degradado_sin_nombre_35-24)"/><circle cx="1185.71" cy="1085" r="6" fill="url(#Degradado_sin_nombre_35-25)"/><circle cx="954.71" cy="1385" r="12" fill="url(#Degradado_sin_nombre_35-26)"/><circle cx="1111.71" cy="913" r="19" fill="url(#Degradado_sin_nombre_35-27)"/><circle cx="809.71" cy="1205" r="19" fill="url(#Degradado_sin_nombre_35-28)"/><circle cx="688.71" cy="1180" r="7" fill="url(#Degradado_sin_nombre_35-29)"/><circle cx="897.71" cy="1030" r="15" fill="url(#Degradado_sin_nombre_35-30)"/><circle cx="591.71" cy="1122" r="8" fill="url(#Degradado_sin_nombre_35-31)"/><circle cx="624.71" cy="1417" r="11" fill="url(#Degradado_sin_nombre_35-32)"/><path d="M1050.43 2204c0-40.7-15.09-79.08-41.75-112.86v113.72c0 54.2-66.7 98.14-149 98.14H737c-58.69 0-106.26 31.34-106.26 70h317.04c63.6-44 102.65-103.48 102.65-169z" fill="url(#Degradado_sin_nombre_87-3)"/><path d="M1303 1149.81a582.1 582.1 0 014.74 74.19c0 284.21-205.85 520.33-476.58 567.44a509.94 509.94 0 00222.05 50.56c282.77 0 512-229.23 512-512v-265.6c-47.15 27.39-151.14 80-262.21 85.41z" opacity=".02"/><path class="cls-35" d="M881.75 835.39a319.13 319.13 0 00-73.2-37H807c-17.76 1.7-28 15.28-28.25 32.72-.24 20.22 8.43 41 14.84 61.31a644.47 644.47 0 0188.16-57.03zM570.71 1327c0-134.92 52.09-258.94 139.24-356.84-8.91-9.23-15-21.75-17.79-33.6-5.35-22.7 1.13-43.1 13.36-62.11 11.16-17.34 25-34.92 25.77-56.45 1-28-18.24-35.72-34.91-37.25-8 .15-15.87.57-23.49 1.21h-.18c-77 6.55-131.5 36-131.5 36v512a511.44 511.44 0 00307 469.31C680.61 1696 570.71 1523 570.71 1327z" opacity=".1"/></g></g></svg>