<svg viewBox="0 0 56 40" xmlns="http://www.w3.org/2000/svg"><path d="M6 0C2.686 0 0 2.682 0 6c.074 9.098 0 18.728 0 28a5.975 5.975 0 005.625 5.969L50.25 40A5.999 5.999 0 0056 34V4.97A5.985 5.985 0 0050.094 0C35.404.007 20.696 0 6 0zm-.094 3.156h44.375l-21.469 21.47a.988.988 0 01-1.406 0l-21.5-21.47zM53 4.687v29.094c0 1.734-.624 2.713-1.875 3.063L36 21.688l17-17zm-49.656.125l16.72 16.72-15.282 15.28c-1.046-.353-1.41-1.195-1.437-2.343V4.813zm18.844 18.812l5.22 5.25a.988.988 0 001.405 0l5.063-5.062L47.064 37H8.814l13.375-13.375z"/></svg>