<svg width="18" height="18" fill="none" xmlns="http://www.w3.org/2000/svg"><path fill-rule="evenodd" clip-rule="evenodd" d="M18 9A9 9 0 110 9a9 9 0 0118 0zM9.323 6.644c-.876.364-2.625 1.118-5.25 2.261-.425.17-.648.335-.669.497-.034.274.309.382.776.529l.197.062c.46.15 1.078.325 1.399.332.291.006.617-.114.976-.361 2.451-1.655 3.717-2.491 3.796-2.51.056-.012.134-.028.187.019.052.047.047.135.042.159-.034.145-1.38 1.397-2.078 2.044-.217.202-.37.345-.402.378-.071.073-.143.143-.212.21-.427.411-.747.72.018 1.224.367.242.661.442.955.642.32.218.64.436 1.053.707.106.069.206.14.304.21.373.266.708.505 1.122.467.24-.022.489-.248.615-.923.298-1.594.884-5.047 1.02-6.47a1.59 1.59 0 00-.015-.355.379.379 0 00-.129-.243.592.592 0 00-.348-.105c-.339.006-.858.187-3.357 1.226z" fill="#fff"/></svg>