<svg width="18" height="18" fill="none" xmlns="http://www.w3.org/2000/svg"><g clip-path="url(#clip0_547:4405)"><path d="M5.663 16.313c6.79 0 10.506-5.628 10.506-10.507 0-.158-.004-.32-.01-.478A7.5 7.5 0 0018 3.417a7.296 7.296 0 01-2.12.58 3.713 3.713 0 001.624-2.043 7.423 7.423 0 01-2.344.897 3.698 3.698 0 00-6.295 3.367 10.488 10.488 0 01-7.61-3.856A3.697 3.697 0 002.397 7.29a3.697 3.697 0 01-1.673-.46v.045a3.691 3.691 0 002.963 3.621 3.67 3.67 0 01-1.666.064 3.7 3.7 0 003.448 2.566A7.406 7.406 0 010 14.654a10.476 10.476 0 005.663 1.659z" fill="#fff"/></g><defs><clipPath id="clip0_547:4405"><path fill="#fff" d="M0 0h18v18H0z"/></clipPath></defs></svg>