<svg width="361" height="249" fill="none" xmlns="http://www.w3.org/2000/svg"><path fill-rule="evenodd" clip-rule="evenodd" d="M162.179 175.633c-.938-.069-1.782.481-2.724.394-1.097-.101-2.163-.383-3.232-.618-2.384-.525-4.586-1.555-6.704-2.683-4.096-2.181-7.814-5.402-10.841-8.776-3.313-3.693-6.062-7.823-9.131-11.69-2.512-3.165-5.56-5.998-9.626-7.303-4.255-1.366-8.715.363-12.976-.771-3.917-1.043-7.718-4.771-9.464-8.113-.96-1.84-1.387-4.011-1.15-6.048.24-2.069 1.645-3.768 3.008-5.332 2.774-3.184 6.744-4.791 10.743-6.233 9.483-3.42 19.694-5.7 29.846-6.49 10.321-.804 21.104-1.486 31.16 1.427 1.875.543 3.902.771 5.627 1.703 2.353 1.271 4.584 2.873 6.801 4.341 1.681 1.112 2.51 2.955 3.516 4.567 1.293 2.071 2.641 4.09 3.469 6.376 1.556 4.3 2.318 8.776 2.483 13.305.167 4.551.131 9.463-1.651 13.754-1.087 2.618-2.224 5.057-4.039 7.311-1.925 2.39-4.289 4.141-6.966 5.776-5.516 3.371-11.847 4.032-18.149 5.104m94.346-15.232c9.183-.629 18.867-3.293 26.779-7.567 3.945-2.132 7.674-4.571 11.043-7.411 1.719-1.449 3.501-2.837 5.164-4.342 1.767-1.598 3.259-3.439 5.161-4.914 1.645-1.277 2.909-2.871 4.643-4.047 1.984-1.347 4.059-2.586 6.071-3.896 1.772-1.154 3.578-2.271 5.264-3.529 1.633-1.218 3.794-2.799 4.622-4.623 1.723-3.792-2.431-6.871-5.34-8.903-3.669-2.565-7.977-4.258-12.2-5.894-9.348-3.623-19.249-6.17-29.382-6.853-2.364-.159-4.732-.248-7.098-.39-2.251-.133-4.406.48-6.538 1.038-2.031.534-4.13.957-5.988 1.907-2.092 1.071-4.247 2.615-5.982 4.123-1.517 1.318-2.186 3.383-3.211 5.014-1.348 2.147-2.462 4.207-3.227 6.59-1.461 4.551-3.016 9.06-4.365 13.642-1.273 4.327-2.388 8.445-2.676 12.94-.233 3.631.058 7.932 2.64 10.882 1.564 1.789 3.509 3.034 5.734 4.051 2.761 1.263 5.899 1.565 8.887 2.183" fill="#010101"/><path fill-rule="evenodd" clip-rule="evenodd" d="M160.323 173.18c-9.536 0-18.457-5.744-23.748-12.974-5.1-6.972-8.638-16.481-18.193-19.125-4.486-1.24-9.348.146-13.896-1.064-3.516-.935-6.706-4.653-7.09-8.059-.17-1.493-.102-3.383.817-4.666 1.207-1.684 3.809-3.233 5.634-4.266 4.083-2.311 8.964-3.608 13.555-4.668 10.315-2.382 20.753-3.752 31.281-4.911 2.445-.269 4.775-.263 7.227-.057 2.559.215 5.164.232 7.693.683 2.489.444 4.918 1.199 7.394 1.71 2.423.5 4.216 1.698 6.172 3.082 1.676 1.186 3.413 2.268 4.718 3.846 1.548 1.872 2.474 4.139 3.727 6.183 1.027 1.674 1.147 3.704 1.538 5.562.5 2.374 1.109 4.699 1.193 7.132.297 8.569-.212 19.23-8.661 24.518-1.336.836-2.541 1.84-3.974 2.531-1.633.787-3.377 1.393-5.051 2.098-3.268 1.379-6.866 1.755-10.335 2.445m107.153-17.234c4.466-.597 8.941-2.247 13.061-3.872 2.017-.795 3.71-2.12 5.505-3.246 2.036-1.278 4.151-2.465 6.04-3.926 3.681-2.85 6.899-6.185 9.689-9.775 2.343-3.016 5.546-5.768 9.284-7.275 4.63-1.868 18.763-7.918 11.131-14.001-3.44-2.741-8.108-4.543-12.242-6.206-4.743-1.907-9.679-3.491-14.612-4.924-9.123-2.651-18.53-4.384-28.001-2.651-2.105.385-4.094.788-5.887 1.902-1.632 1.015-3.779 2.261-4.973 3.703-1.284 1.552-2.263 3.625-3.173 5.383-1.117 2.158-1.875 4.456-2.674 6.726-1.53 4.343-3.097 8.784-3.676 13.339-.271 2.133-.355 4.282-.38 6.43-.025 2.129-.169 4.327.254 6.435.342 1.706.969 3.511 1.679 5.122.707 1.6 2.639 2.965 3.919 4.204 1.31 1.27 4.209 2.074 6.04 2.465 2.334.498 4.821.255 7.189.206l1.828-.04" fill="#7FFF00"/><path fill-rule="evenodd" clip-rule="evenodd" d="M110.857 121.54c.66-1.008 2.289-.931 3.402-.961 1.888-.05 3.774-.139 5.661-.21 3.966-.15 6.954.884 10.536 2.307 3.25 1.29 6.239 3.03 8.983 5.059 1.443 1.067 2.872 2.151 4.352 3.177 1.423.985 3.051 1.738 4.305 2.914-1.555-.733 2.101-3.069 2.572-3.5 1.971-1.802 3.321-4.052 4.523-6.32a22.046 22.046 0 002.265-6.819c.059-.37.128-3.316.499-3.35.222-.02 1.011 3.501 1.097 3.836.287 1.11.449 2.238.694 3.355.299 1.36-.001 2.949-.212 4.326-.176 1.149-.907 2.08-1.589 3.029-.954 1.329-1.831 2.691-2.839 3.99-.357.46-.658.943-1.16 1.285-.33.224-1.16.589-1.201 1.023-.067.709 1.556 1.452 2.081 1.775 1.23.756 2.332 1.709 3.469 2.572 1.067.81 1.983 1.926 3.213.78 1.951-1.818 4.052-3.532 5.518-5.726 1.705-2.55 2.879-5.408 3.549-8.318.357-1.549.741-3.102 1.027-4.662.215-1.169 1.136-2.805.956-3.961-.075 1.171.898 2.386 1.196 3.512.377 1.425.719 2.86.942 4.312.439 2.857.46 5.829-.313 8.643-.623 2.268-1.64 4.414-3.608 5.995-1.093.878-2.351 1.587-3.613 2.248-.637.334-2.212.705-1.942 1.629.337 1.153 1.365 2.42 1.97 3.488.522.922.789 1.577 2.11 1.383 2.848-.421 5.356-2.22 8.008-3.153 1.219-.428 2.056-1.364 3.068-2.067.967-.671 2.047-1.144 2.832-2.014.933-1.033 2.038-1.984 2.897-3.066.317-.399 1.701-1.441 1.526-1.98-.729.411-.476 1.41-.62 2.046-.231 1.024-.953 1.896-1.494 2.797-1.003 1.67-1.728 3.5-3.07 4.988-2.674 2.968-6.488 6.373-11.04 6.544l4.376 7.425 2.077 3.524c.676 1.149 1.924 1.873 2.883 2.805-2.313.861-4.681 1.618-6.885 2.698-1.398.685-3.111 1.58-3.816-.219-1.476-3.759-1.397-8.722-4.398-11.89-1.2-1.267-3.357-1.438-4.993-.843-1.09.396-2.309.41-3.455.703-1.335.341-2.792.254-4.159.18-2.738-.148-5.44-.524-8.152-.88-1.52-.199-3.051-.343-4.564-.585-1.176-.189-2.459-.933-3.666-.778 1.003.042 1.89-.486 2.88-.523 1.273-.048 2.491-.422 3.728-.663 2.128-.413 4.317-.637 6.374-1.308 1.973-.642 3.763-1.87 5.923-1.951 1-.038 1.915-.487 2.916-.525l3.625-.137-2.715-2.903c-.903-.966-1.632-.434-2.882-.278-3.038.38-5.708 1.948-8.849 2.066-3.244.122-6.524.339-9.741-.189a26.985 26.985 0 01-3.832-.939c-.625-.2-1.253.126-1.885.051-.627-.074-1.198-.421-1.85-.345.549-.99 2.636-.603 3.594-.616 2.08-.029 4.299-.67 6.366-.938 4.768-.619 9.315-2.491 14.151-2.673-1.076-.826-2.109-1.696-3.162-2.545-.669-.539-2.077-2.074-2.988-2.159-.754-.072-1.591.547-2.226.84-1.112.514-2.34.897-3.488 1.344-1.298.505-2.62.967-3.973 1.337-1.317.359-2.718.223-4.072.274-3.161.119-6.321-.176-9.482-.057.986.148 2.175-.905 2.895-1.388 1.283-.863 3.011-1.023 4.384-1.836 1.483-.88 3.076-1.533 4.623-2.307 1.548-.774 2.673-1.655 4.277-1.716-.823.167-1.831-1.33-2.305-1.777-1.508-1.425-3.068-3.022-5.109-3.823-3.525-1.383-7.252.082-10.594 1.195-1.865.621-3.638 1.465-5.5 2.071-2.073.674-4.101 1.061-6.03 2.079-1.572.83-3.054 1.838-4.707 2.536-1.134.478-2.994.969-3.617 2.049-.169-.602.502-1.478.952-1.868.901-.779 1.383-1.857 2.285-2.643 1.758-1.533 4.129-2.269 6.318-3.145 2.284-.914 4.378-2.224 6.787-2.876a31.553 31.553 0 003.692-1.238c.55-.223 1.091-.397 1.677-.53.62-.142 1.365-.657 2.004-.625-.847-.705-1.588-1.548-2.631-2.031-1.326-.614-2.795-.919-4.223-1.27-3.055-.753-6.236-.927-9.388-1.067m203.706-9.399c-2.701-1.214-5.642-2.173-8.685-1.956-1.419.102-2.843.213-4.235.488-1.606.317-2.936 1.099-4.392 1.746-2.738 1.217-5.245 2.815-7.601 4.564-1.185.878-2.394 1.744-3.496 2.71-.912.8-1.806 2.04-3.148 2.243 1.319-.076-.46-2.561-.722-2.949-1.056-1.562-2.351-3.244-2.855-5.023-.744-2.623-1.396-5.156-1.637-7.863-.148-1.661-1.197-4.227-.104-5.73-1.106 2.082-1.411 4.462-1.947 6.705-.504 2.112-1.005 4.343-.643 6.516.323 1.937 1.31 3.578 2.085 5.372.402.931.922 3.219 2.18 3.514l-6.833 5.647c-.214-.954-1.226-1.548-1.858-2.263a18.784 18.784 0 01-2.147-2.971c-1.132-1.962-1.409-4.174-1.657-6.339-.294-2.564-.614-5.125-.91-7.688-.129-1.118-.306-2.235-.308-3.361-.002-.924.263-1.926-.224-2.796-.351.536-.217 1.223-.457 1.799-.263.629-.631 1.207-.877 1.846-.564 1.467-1.001 2.974-1.38 4.49-.707 2.836-1.262 5.817-.87 8.737.372 2.769 1.4 5.567 3.377 7.738.411.45.842.894 1.281 1.322.48.468 1.336.587 1.734 1.072.171.208-.358 1.094-.443 1.279-.644 1.416-1.357 2.862-2.263 4.154-.889 1.268-3.307-.866-4.217-1.475-2.562-1.714-4.877-3.91-6.73-6.263-.883-1.123-1.818-2.315-2.526-3.538-.299-.515-.219-.867-.309-1.413-.076-.458-.86-.749-.454-1.255-.48.623-.036 1.464.105 2.122.235 1.098.434 2.203.697 3.297.539 2.239 1.517 4.347 2.459 6.467.683 1.538 2.508 2.72 3.737 3.91.707.686 1.696 1.019 2.385 1.702.253.25 1.058 1.09 1.259.358l-9.877 4.532-5.001 2.294c-1.426.655-2.475 1.75-3.616 2.735l6.176 3.842c.52.323 1.211 1.067 1.867.545.852-.679 1.799-1.246 2.725-1.835 4.031-2.565 8.097-5.466 12.447-7.567 1.478-.714 2.774-.149 4.251.264 2.17.608 4.348 1.217 6.622 1.362 2.129.137 4.207-.115 6.311-.351 1.785-.199 4.412.054 6.031-.681-.609-.336-1.36-.175-1.989-.458-1.079-.485-2.122-1.128-3.296-1.404-2.004-.47-3.847-1.286-5.669-2.202-1.695-.851-3.235-1.565-5.017-2.232-.952-.356-2.708-1.451-3.733-.812l2.352-2.929c.576-.716.974-.382 1.772-.004 1.227.581 2.498.888 3.783 1.325 1.307.445 2.467 1.137 3.816 1.503 2.416.657 4.815.515 7.288.373 1.206-.068 2.414-.049 3.605-.258.783-.137 2.188-.778 2.934-.3-3.131-1.406-6.651-1.828-9.819-3.088-1.723-.686-3.573-1.075-5.199-1.961-1.221-.665-2.467-.626-3.713-1.186l5.699-4.413c.983 1.172 2.469 1.747 3.784 2.536 1.612.967 2.992 1.79 4.933 2.08 1.901.284 3.79.625 5.688.93 1.048.168 2.647-.303 3.551.341-.46-.108-.379-.55-.717-.77-.726-.472-1.428-.884-2.116-1.407-1.49-1.132-3.059-2.081-4.512-3.267-1.014-.828-2.243-1.52-3.088-2.503-.166-.194-1.433-1.734-1.612-.95.414-1.028 1.641-1.521 2.526-2.144 1.138-.803 2.16-1.685 3.343-2.443 1.922-1.231 3.759-1.716 6.06-.933 2.552.869 4.552 2.485 6.967 3.496.828.347 1.406 1.088 1.749 1.839.543 1.193-.658 2.251-1.192 3.256 1.053-.189 2.655-1.077 3.397-1.779.975-.922 1.244-2.059.367-3.149-.978-1.217-2.439-2.217-3.791-3.061-1.328-.83-2.868-1.931-4.485-2.185-.429-.068-2.339.147-2.282-.534.051-.596.885-.923 1.398-1.092.78-.256 1.246-.686 1.896-1.124 1.04-.7 3.298-.538 4.541-.783 1.836-.36 3.604-.355 5.474-.363" fill="#3F7F00"/><path fill-rule="evenodd" clip-rule="evenodd" d="M196.694 134.693c-9.165 0-18.672-.405-27.28-3.544-4.273-1.558-8.459-3.668-11.95-6.416-1.635-1.288-2.44-2.686-3.519-4.346-1.176-1.81-1.411-3.185-1.5-5.289-.091-2.125.214-3.883.919-5.915.698-2.013 1.094-3.768 2.645-5.409 3.113-3.295 5.811-6.796 9.43-9.683 1.654-1.32 3.488-2.237 5.452-3.118 2.133-.956 4.193-2.017 6.409-2.816 4.495-1.618 9.328-3.304 14.187-3.453 5.158-.16 10.133-.589 15.3-.188 5.174.401 10.329.814 15.412 1.83 4.703.941 9.22 2.436 13.595 4.252 3.918 1.627 7.481 5.172 10.047 8.239 2.751 3.287 4.649 7.338 5.767 11.329 1.069 3.815.528 7.933-2.408 10.957-1.252 1.289-2.59 3.021-4.144 4.001-2.052 1.295-4.231 2.451-6.422 3.539-4.127 2.05-8.698 3.247-13.262 4.189a128.984 128.984 0 01-13.877 2.068c-4.926.469-9.874-.066-14.801-.226" fill="#010101"/><path d="M196.694 134.693c-9.165 0-18.672-.405-27.28-3.544-4.273-1.558-8.459-3.668-11.95-6.416-1.635-1.288-2.44-2.686-3.519-4.346-1.176-1.81-1.411-3.185-1.5-5.289-.091-2.125.214-3.883.919-5.915.698-2.013 1.094-3.768 2.645-5.409 3.113-3.295 5.811-6.796 9.43-9.683 1.654-1.32 3.488-2.237 5.452-3.118 2.133-.956 4.193-2.017 6.409-2.816 4.495-1.618 9.328-3.304 14.187-3.453 5.158-.16 10.133-.589 15.3-.188 5.174.401 10.329.814 15.412 1.83 4.703.941 9.22 2.436 13.595 4.252 3.918 1.627 7.481 5.172 10.047 8.239 2.751 3.287 4.649 7.338 5.767 11.329 1.069 3.815.528 7.933-2.408 10.957-1.252 1.289-2.59 3.021-4.144 4.001-2.052 1.295-4.231 2.451-6.422 3.539-4.127 2.05-8.698 3.247-13.262 4.189a128.984 128.984 0 01-13.877 2.068c-4.926.469-9.874-.066-14.801-.226" stroke="#010101" stroke-width=".75" stroke-miterlimit="10" stroke-linecap="round" stroke-linejoin="round"/><path fill-rule="evenodd" clip-rule="evenodd" d="M196.694 133.127c-9.268 0-19.758-.459-28.146-4.46-3.779-1.803-7.848-4.137-10.375-7.333-1.143-1.447-1.851-2.995-2.178-4.751-.381-2.04-.979-4.109-.06-6.058.828-1.756 1.169-3.641 2.308-5.283 1.189-1.716 2.41-3.649 4.046-5.044 1.713-1.46 3.46-2.888 5.125-4.393 1.763-1.593 3.962-2.668 6.074-3.82 3.946-2.154 8.302-3.5 12.754-4.486 4.691-1.038 9.837-1.573 14.659-1.764 2.359-.094 4.68.264 7.02.47 2.651.232 5.295.44 7.926.833 4.82.721 9.668 1.648 14.124 3.52 4.022 1.69 8.201 3.925 11.138 7.012 2.918 3.066 4.736 6.876 6.315 10.625.815 1.935 1.096 3.968 1.283 6.019.169 1.839-.947 3.748-1.986 5.255-2.35 3.408-6.037 5.821-9.868 7.71-4.101 2.022-8.595 3.214-13.078 4.306-2.2.536-4.402 1.105-6.653 1.436-2.585.38-5.219.368-7.827.507-4.244.227-8.365-.153-12.601-.301" fill="#E1EDC2"/><path d="M196.689 133.127c-9.268 0-19.758-.459-28.147-4.46-3.778-1.803-7.847-4.137-10.374-7.333-1.143-1.447-1.851-2.995-2.178-4.751-.381-2.04-.979-4.11-.06-6.058.828-1.756 1.169-3.641 2.308-5.283 1.189-1.716 2.41-3.649 4.046-5.044 1.713-1.46 3.46-2.888 5.125-4.393 1.762-1.593 3.962-2.668 6.074-3.82 3.946-2.154 8.301-3.5 12.754-4.486 4.691-1.038 9.837-1.573 14.659-1.764 2.359-.094 4.679.264 7.02.47 2.651.232 5.295.44 7.926.833 4.819.721 9.668 1.648 14.125 3.52 4.021 1.69 8.2 3.925 11.138 7.012 2.917 3.065 4.735 6.876 6.314 10.625.815 1.935 1.096 3.968 1.284 6.019.168 1.839-.948 3.748-1.987 5.255-2.35 3.408-6.036 5.821-9.868 7.71-4.101 2.022-8.594 3.214-13.078 4.306-2.2.536-4.402 1.105-6.653 1.436-2.585.381-5.219.368-7.827.507-4.244.227-8.365-.153-12.601-.301z" fill="#7FFF00"/><path d="M196.689 133.127c-9.268 0-19.758-.459-28.147-4.46-3.778-1.803-7.847-4.137-10.374-7.333-1.143-1.447-1.851-2.995-2.178-4.751-.381-2.04-.979-4.11-.06-6.058.828-1.756 1.169-3.641 2.308-5.283 1.189-1.716 2.41-3.649 4.046-5.044 1.713-1.46 3.46-2.888 5.125-4.393 1.762-1.593 3.962-2.668 6.074-3.82 3.946-2.154 8.301-3.5 12.754-4.486 4.691-1.038 9.837-1.573 14.659-1.764 2.359-.094 4.679.264 7.02.47 2.651.232 5.295.44 7.926.833 4.819.721 9.668 1.648 14.125 3.52 4.021 1.69 8.2 3.925 11.138 7.012 2.917 3.065 4.735 6.876 6.314 10.625.815 1.935 1.096 3.968 1.284 6.019.168 1.839-.948 3.748-1.987 5.255-2.35 3.408-6.036 5.821-9.868 7.71-4.101 2.022-8.594 3.214-13.078 4.306-2.2.536-4.402 1.105-6.653 1.436-2.585.381-5.219.368-7.827.507-4.244.227-8.365-.153-12.601-.301" stroke="#010101" stroke-width=".75" stroke-miterlimit="10" stroke-linecap="round" stroke-linejoin="round"/><path fill-rule="evenodd" clip-rule="evenodd" d="M197.552 133.521v-6.16c0-1.339.221-2.071-1.543-1.354-1.569.639-3.893.156-5.523-.045-2.386-.293-4.75-.696-7.11-1.13-4.572-.842-9.128-1.751-13.602-2.959-3.777-1.019-7.69-2.206-10.542-4.799 1.971-.127 3.838.805 5.67 1.319 1.902.533 3.853.903 5.79 1.31 4.179.88 8.245 1.58 12.546 1.647 3.509.054 7.32-.208 10.752.544.796.175 2.274.649 3.022.139.923-.63.452-3.608.54-4.568-3.54 0-7.041-.672-10.574-.813-3.208-.128-6.442-.478-9.517-1.35-3.259-.924-6.594-1.664-9.734-2.906-1.4-.554-2.635-1.373-3.901-2.135-1.242-.747-2.663-1.221-3.733-2.195 1.828.555 3.703 1.089 5.564 1.539 1.888.456 3.867.527 5.773.925 4.217.882 8.51 1.658 12.779 2.302 3.722.562 7.655 1.084 11.427 1.222 1.342.048 1.687-.308 2.046-1.428.316-.984.435-2.007.73-2.993-2.941 0-5.789-.752-8.671-1.181-2.75-.41-5.418-1.127-7.835-2.415-2.249-1.199-4.224-2.743-5.853-4.596a23.675 23.675 0 01-2.196-2.915c-.64-1.003-1.091-2.264-2.139-2.992 1.124-.209 2.417 1.457 3.101 2.065 1.591 1.415 3.761 2.25 5.707 3.174 4.437 2.104 8.451 4.123 13.473 4.813 1.729.237 3.962.608 4.997-1.044 1.046-1.669 1.803-3.56 2.751-5.284.603-1.099.652-.923-.543-1.48a153.814 153.814 0 01-3.19-1.547c-2.242-1.116-4.479-2.246-6.61-3.532-1.325-.8-2.631-1.712-3.301-3.045-.065-.129-.613-1.085-.396-1.208.338-.192 1.287.827 1.545.99 1.621 1.033 3.652 1.75 5.429 2.545 1.995.891 4.345 1.424 6.526 1.795 1.452.247 4.748.847 5.754-.376 1.237-1.505 2.405-2.998 4.063-4.169.472-.333 2.7-1.922 2.866-.62.221 1.745-1.651 3.101-1.743 4.805-.067 1.256-.716 2.266-.849 3.497-.07.652-.372 2.824.305 3.249.681.426 1.899.046 2.615-.106 1.132-.239 2.246-.157 3.392-.305 1.434-.184 3.108.003 4.485-.348.666-.17 1.242-.513 1.932-.641.864-.16 1.56-.077 2.336-.528 1.364-.79 2.782-1.16 4.302-1.634 1.087-.338 2.839-1.31 3.923-.447 2.094 1.665-2.835 3.61-3.761 4.071-3.003 1.501-6.148 2.078-9.48 2.667-1.655.293-3.305.626-4.982.795-.934.094-3.186-.312-3.905.322-1.066.941-1.844 2.694-2.632 3.852-.935 1.374-1.87 2.749-2.806 4.122 4.949 0 9.975 1.055 14.881-.068 4.394-1.004 8.192-3.414 12.52-4.587 2.004-.543 3.563-1.9 5.505-2.563 2.471-.845.466 1.636-.111 2.379-2.641 3.395-5.435 6.633-9.634 8.43-2.075.889-3.923 1.98-6.262 2.152-2.458.181-4.782.978-7.252.933-2.322-.043-4.688.123-6.977-.309-2.186-.414-1.933.591-1.816 2.215.077 1.071-.572 2.401.063 3.401.795 1.252 4.995.697 6.319.635 2.268-.105 4.557-.465 6.827-.429 2.237.035 4.399-.836 6.419-1.611 3.288-1.263 6.515-2.603 9.762-3.95 1.575-.654 3.177-1.249 4.769-1.87.974-.38 2.671-.343 3.307-1.233-4.011 3.649-8.712 6.639-13.789 8.93-2.682 1.21-5.487 2.259-8.415 2.856-2.976.606-6.026.845-9.016 1.394-1.274.234-2.563.454-3.866.463-.802.005-1.421-.015-1.841.699-.607 1.03-.382 2.433-1.191 3.365-.484.558-1.308.373-1.967.228-1.47-.325-2.654-.391-4.165-.325-.451.021-3.759-.386-3.542.404" fill="#3F7F00"/><path fill-rule="evenodd" clip-rule="evenodd" d="M168.705 161.715c-2.188-.497-4.448-.882-6.504-1.76-1.992-.85-3.532-2.251-5.033-3.679-3.391-3.226-4.997-6.905-6.218-11.18-.572-2-.806-4.013-1.103-6.055-.313-2.147-.688-4.195-.291-6.354.837-4.561 1.877-9.061 2.906-13.587.972-4.276 2.795-8.333 4.869-12.274.994-1.89 2.193-3.681 3.212-5.557 1.028-1.89 1.914-3.792 3.404-5.433 2.905-3.198 5.969-5.986 9.635-8.44 1.644-1.099 3.104-1.968 5.172-2.168 2.235-.217 4.28-.623 6.472.042 1.826.554 4.551.888 6.064 2.023 1.753 1.314 3.724 2.4 5.261 3.94 2.872 2.873 4.972 6.482 6.026 10.238 1.237 4.41 1.622 9.002 2.017 13.525.409 4.665.75 9.401.258 14.072-.477 4.538-1.596 9.267-3.325 13.551-1.607 3.98-4.291 7.338-6.726 10.907-2.138 3.131-5.964 5.952-9.597 7.531-4.167 1.812-8.488 2.638-12.982 1.494-1.168-.295-2.346-.552-3.517-.836" fill="#010101"/><path d="M168.705 161.715c-2.188-.497-4.448-.882-6.504-1.76-1.992-.85-3.532-2.251-5.033-3.679-3.391-3.226-4.997-6.905-6.218-11.18-.572-2-.806-4.013-1.103-6.055-.313-2.147-.688-4.195-.291-6.354.837-4.561 1.877-9.061 2.906-13.587.972-4.276 2.795-8.333 4.869-12.274.994-1.89 2.193-3.681 3.212-5.557 1.028-1.89 1.914-3.792 3.404-5.433 2.905-3.198 5.969-5.986 9.635-8.44 1.644-1.099 3.104-1.968 5.172-2.168 2.235-.217 4.28-.623 6.472.042 1.826.554 4.551.888 6.064 2.023 1.753 1.314 3.724 2.4 5.261 3.94 2.872 2.873 4.972 6.482 6.026 10.238 1.237 4.41 1.622 9.002 2.017 13.525.409 4.665.75 9.401.258 14.072-.477 4.538-1.596 9.267-3.325 13.551-1.607 3.98-4.291 7.338-6.726 10.907-2.138 3.131-5.964 5.952-9.597 7.531-4.167 1.812-8.488 2.638-12.982 1.494-1.168-.295-2.346-.552-3.517-.836" stroke="#010101" stroke-width=".75" stroke-miterlimit="10" stroke-linecap="round" stroke-linejoin="round"/><path fill-rule="evenodd" clip-rule="evenodd" d="M169.568 158.841c-2.151-.489-4.424-.767-6.448-1.628-1.964-.835-3.522-2.263-4.893-3.759-2.85-3.109-4.768-6.855-5.768-10.789-1.143-4.493-1.043-9.151-.368-13.698.666-4.484 1.65-9.105 3.089-13.439 1.435-4.319 3.914-8.307 6.087-12.34 1.016-1.885 1.867-3.923 3.282-5.598 1.358-1.609 2.943-3.107 4.451-4.6 1.542-1.525 3.305-2.641 5.19-3.784.828-.502 1.651-1.085 2.586-1.416 1.083-.384 2.323-.351 3.467-.436 4.725-.35 8.85 1.27 12.632 3.74 3.046 1.988 5.519 5.39 6.958 8.508 1.621 3.514 2.06 7.353 2.505 11.106.965 8.124 1.207 16.318-.531 24.385-.787 3.655-2.567 7.209-4.469 10.489-1.847 3.184-4.164 6.163-6.984 8.698-2.392 2.151-5.574 4.468-8.908 5.216-1.805.405-4.043.534-5.899.5-2.053-.038-3.999-.739-5.978-1.155" fill="#7FFF00"/><path fill-rule="evenodd" clip-rule="evenodd" d="M169.568 159.759l2.153-12.139c-.508-.115-.226.176-.496.356-.27.181-.762.078-1.064.049-.993-.096-1.922-.028-2.858-.422-2.194-.923-4.4-2.715-6.184-4.181a29.345 29.345 0 01-5.136-5.494 21.473 21.473 0 01-1.966-3.271c-.237-.493-.379-.913-.379-1.456 0-.461-.541-.768-.431-1.246 2.939 2.673 5.868 5.394 9.398 7.432 1.051.606 9.711 2.423 9.546 3.142l1.722-7.049c-.363.069-.561-.174-.843-.315-.558-.279-1.238-.209-1.824-.499-.973-.48-1.839-.835-2.898-1.127-2.036-.56-3.884-1.935-5.367-3.28-1.754-1.59-2.939-3.632-4.063-5.614-.563-.994-.925-2.069-1.474-3.068-.504-.917-1.287-1.852-1.184-2.935.781.71 1.637 1.198 2.355 1.98.782.852 1.821 1.453 2.783 2.118 2.471 1.709 4.951 3.41 7.506 5.016 1.457.916 3.203 1.971 4.967 2.336.973.201 1.112-.461 1.216-1.218.179-1.295.485-2.565.777-3.842.294-1.283-.132-.927-1.034-1.545-.831-.571-1.892-.839-2.615-1.543-1.814-1.769-3.536-3.724-4.494-6.005-.962-2.289-.943-4.775-1.268-7.176-.385-2.829-.72-5.672-.72-8.526.476.863.377 1.934.74 2.848.363.914.741 1.822 1.155 2.717.972 2.095 1.77 4.264 2.969 6.267 1.033 1.723 2.476 3.923 4.315 5.028 1.963 1.18 2.959-.273 3.441-1.754l2.024-6.213c.262-.803.861-1.756.733-2.612-.14-.946-.944-2.008-1.429-2.839-2.355-4.038-3.615-8.263-3.615-12.841 1.032 1.877 1.637 3.878 2.76 5.727.464.764.941 1.613 1.702 2.173.73.537 1.632.865 2.395 1.369.395.261 1.237.88 1.666.328.528-.682.843-1.67 1.296-2.418.999-1.65 1.884-3.37 2.789-5.058.601-1.122 2.171-1.222 1.34.272-.374.673-.296 1.628-.536 2.37-.368 1.133-.749 2.255-1.074 3.4-.565 1.994-1.448 3.882-1.914 5.898-.331 1.437-.544 2.851-.896 4.285-.04.161-.336 1.138-.001 1.202.996.19 2.162.062 3.157-.076 2.264-.314 4.271-.92 5.839-2.477 1.039-1.031 2.275-2.063 3.848-2.34 1.668-.294.67 2.808.378 3.428-1.412 2.99-5.139 5.138-8.358 6.278-.936.332-1.916.533-2.914.623-.637.057-2.116-.198-2.536.305-.381.455-.416 1.057-.626 1.577a14129.1 14129.1 0 01-1.488 3.692l-1.635 4.055c-.293.728-1.338 2.004-.496 2.715 1.958 1.651 5.925 1.397 8.06.328 2.667-1.336 4.669-3.428 6.823-5.334.966-.854 2.223-1.541 3.095-2.462.35-.369 1.209-1.773 1.868-1.665-.915.531-.749 1.75-.998 2.579-.46 1.53-1.344 2.915-2.027 4.364-1.292 2.741-2.974 5.383-4.778 7.871-2.432 3.353-9.286 7.238-13.294 3.591l-2.152 9.399c.358-.069.54.171.812.316.494.261 1.126.075 1.657.19 1.299.283 2.624.277 3.95.277 2.582 0 4.247-1.868 6.059-3.246 1.923-1.463 3.89-3.007 5.643-4.636.774-.719 1.782-1.279 2.494-2.031.354-.374 1.092-1.583 1.773-1.444-1.048.685-1.021 2.054-1.694 2.971a119.437 119.437 0 01-3.488 4.491c-2.101 2.594-4.246 5.384-7.122 7.328-2.5 1.689-6.164 2.461-9.163 3.079-1.034.213-1.895.055-2.098 1.235-.301 1.76-.933 3.452-1.407 5.175-.357-.162-5.48-1.918-5.167-.783" fill="#3F7F00"/><path fill-rule="evenodd" clip-rule="evenodd" d="M234.148 168.765c-5.094 0-10.155 1.061-15.255.612-4.776-.42-9.794-1.335-14.225-3.058-4.157-1.617-7.592-4.371-10.872-7.116-1.429-1.196-2.547-2.617-3.516-4.141-1.172-1.84-2.733-3.528-3.482-5.569-.719-1.959-.987-4.022-1.417-6.041-.226-1.058-.622-2.102-.714-3.181-.107-1.261.066-2.577.115-3.839.088-2.241-.051-4.502.213-6.735.275-2.32 1.327-4.539 2.029-6.77 1.32-4.193 3.328-8.159 5.403-12.079 2.071-3.913 5.179-7.062 8.182-10.401 1.403-1.56 3.102-2.582 4.892-3.735 2.094-1.35 4.078-2.855 6.316-4.01 2.04-1.054 4.345-1.508 6.591-2.046 2.521-.604 5.094-1.645 7.675-1.965 2.118-.264 4.32.025 6.456-.065a87.688 87.688 0 017.869.011c2.449.116 4.949.136 7.361.57 2.453.442 4.824 1.255 7.171 2.024 4.029 1.32 8.057 3.61 11.137 6.309 3.507 3.072 6.187 6.317 8.703 10.104 2.552 3.842 4.458 8.034 6.249 12.207.846 1.969 1.532 3.962 1.994 6.035.497 2.229 1.143 4.269.916 6.544-.251 2.518-.071 5.068-1.071 7.474-1.032 2.48-2.204 5.162-3.725 7.425-1.437 2.137-3.197 4.269-4.987 6.173-1.832 1.95-4.401 3.682-6.571 5.318-2.125 1.603-4.646 2.64-7.033 3.864-1.373.703-2.723 1.476-4.198 1.993-1.373.482-2.821.774-4.22 1.188-2.701.8-5.406 1.674-8.247 1.951l-9.739.949" fill="#010101"/><path d="M234.148 168.765c-5.094 0-10.155 1.061-15.255.612-4.776-.42-9.794-1.335-14.225-3.058-4.157-1.617-7.592-4.371-10.872-7.116-1.429-1.196-2.547-2.617-3.516-4.14-1.172-1.841-2.733-3.529-3.482-5.57-.719-1.959-.987-4.022-1.417-6.041-.226-1.058-.622-2.102-.714-3.181-.107-1.261.066-2.577.115-3.839.088-2.241-.051-4.502.213-6.735.275-2.32 1.327-4.539 2.029-6.77 1.32-4.193 3.328-8.159 5.403-12.079 2.071-3.913 5.179-7.062 8.182-10.401 1.403-1.56 3.102-2.582 4.892-3.735 2.094-1.35 4.078-2.855 6.316-4.01 2.04-1.054 4.345-1.508 6.591-2.046 2.521-.604 5.094-1.645 7.675-1.965 2.118-.264 4.32.025 6.456-.065a87.688 87.688 0 017.869.011c2.449.116 4.949.136 7.361.57 2.453.442 4.824 1.255 7.171 2.024 4.029 1.32 8.057 3.61 11.137 6.309 3.507 3.072 6.187 6.317 8.703 10.104 2.552 3.842 4.458 8.034 6.249 12.207.846 1.969 1.532 3.962 1.994 6.035.497 2.229 1.143 4.269.916 6.544-.251 2.518-.071 5.068-1.071 7.474-1.032 2.48-2.204 5.162-3.725 7.425-1.437 2.137-3.197 4.269-4.987 6.173-1.832 1.95-4.401 3.682-6.571 5.318-2.125 1.603-4.646 2.64-7.033 3.864-1.373.703-2.723 1.476-4.198 1.993-1.373.482-2.821.774-4.22 1.188-2.701.8-5.406 1.674-8.247 1.951l-9.739.949" stroke="#010101" stroke-width=".75" stroke-miterlimit="10" stroke-linecap="round" stroke-linejoin="round"/><path fill-rule="evenodd" clip-rule="evenodd" d="M234.148 166.021c-2.471.32-4.968.391-7.457.506-2.584.12-5.179.343-7.761.072-4.708-.496-9.43-1.199-13.61-3.352-1.98-1.02-3.833-2.23-5.613-3.514-1.839-1.327-3.975-2.682-5.454-4.35-1.344-1.518-2.249-3.377-3.285-5.073-1.267-2.074-1.585-4.062-2.289-6.311-.673-2.152-1.125-4.139-1.053-6.389.075-2.339.252-4.687.401-7.023.133-2.108.804-3.967 1.435-5.979.672-2.148 1.1-4.399 2.061-6.461.862-1.851 1.953-3.614 2.887-5.436 1.054-2.057 2.2-3.987 3.817-5.728 3.059-3.295 6.238-6.271 10.074-8.808 1.692-1.12 3.704-3.043 5.74-3.572 2.404-.625 4.802-1.268 7.206-1.898 4.716-1.235 9.674-1.525 14.57-1.474 4.928.052 9.938.662 14.65 1.995 2.121.6 4.379 1.115 6.308 2.14 1.949 1.035 3.801 2.32 5.595 3.56 3.685 2.55 6.278 5.421 8.66 8.997 2.548 3.826 4.931 7.514 6.458 11.792a88.382 88.382 0 012.018 6.454c.622 2.285 1.285 4.494 1.023 6.864-.227 2.056-.354 4.156-1.09 6.122-.745 1.994-1.635 3.997-2.733 5.853-3.815 6.451-9.963 10.953-16.743 14.66-1.808.989-3.589 2.023-5.573 2.7-2.088.712-4.284 1.194-6.428 1.748-4.5 1.161-9.19 1.419-13.814 1.904" fill="#E1EDC2"/><path d="M234.148 166.021c-2.471.32-4.968.391-7.457.506-2.584.12-5.179.343-7.761.072-4.708-.496-9.43-1.199-13.61-3.352-1.98-1.02-3.833-2.23-5.613-3.514-1.839-1.327-3.975-2.682-5.454-4.35-1.344-1.518-2.249-3.377-3.285-5.073-1.267-2.074-1.585-4.062-2.289-6.311-.673-2.152-1.125-4.139-1.053-6.389.075-2.339.252-4.687.401-7.023.133-2.108.804-3.967 1.435-5.979.672-2.148 1.1-4.399 2.061-6.461.862-1.851 1.953-3.614 2.887-5.436 1.054-2.057 2.2-3.987 3.817-5.728 3.059-3.295 6.238-6.271 10.074-8.808 1.692-1.12 3.704-3.043 5.74-3.572 2.404-.625 4.802-1.268 7.206-1.898 4.716-1.235 9.674-1.525 14.57-1.474 4.928.052 9.938.662 14.65 1.995 2.121.6 4.379 1.115 6.308 2.14 1.949 1.035 3.801 2.32 5.595 3.56 3.685 2.55 6.278 5.421 8.66 8.997 2.548 3.826 4.931 7.514 6.458 11.792a88.382 88.382 0 012.018 6.454c.622 2.285 1.285 4.494 1.023 6.864-.227 2.056-.354 4.156-1.09 6.122-.745 1.994-1.635 3.997-2.733 5.853-3.815 6.451-9.963 10.953-16.743 14.66-1.808.989-3.589 2.023-5.573 2.7-2.088.712-4.284 1.194-6.428 1.748-4.5 1.161-9.19 1.419-13.814 1.904" fill="#7FFF00"/><path d="M234.148 166.021c-2.471.32-4.968.391-7.457.506-2.584.12-5.179.343-7.761.072-4.708-.496-9.43-1.199-13.61-3.352-1.98-1.02-3.833-2.23-5.613-3.514-1.839-1.327-3.975-2.682-5.454-4.35-1.344-1.518-2.249-3.377-3.285-5.073-1.267-2.074-1.585-4.062-2.289-6.311-.673-2.152-1.125-4.139-1.053-6.389.075-2.339.252-4.687.401-7.023.133-2.108.804-3.967 1.435-5.979.672-2.148 1.1-4.399 2.061-6.461.862-1.851 1.953-3.614 2.887-5.436 1.054-2.057 2.2-3.987 3.817-5.728 3.059-3.295 6.238-6.271 10.074-8.808 1.692-1.12 3.704-3.043 5.74-3.572 2.404-.625 4.802-1.268 7.206-1.898 4.716-1.235 9.674-1.525 14.57-1.474 4.928.052 9.938.662 14.65 1.995 2.121.6 4.379 1.115 6.308 2.14 1.949 1.035 3.801 2.32 5.595 3.56 3.685 2.55 6.278 5.421 8.66 8.997 2.548 3.826 4.931 7.514 6.458 11.792a88.382 88.382 0 012.018 6.454c.622 2.285 1.285 4.494 1.023 6.864-.227 2.056-.354 4.156-1.09 6.122-.745 1.994-1.635 3.997-2.733 5.853-3.815 6.451-9.963 10.953-16.743 14.66-1.808.989-3.589 2.023-5.573 2.7-2.088.712-4.284 1.194-6.428 1.748-4.5 1.161-9.19 1.419-13.814 1.904" stroke="#010101" stroke-width=".75" stroke-miterlimit="10" stroke-linecap="round" stroke-linejoin="round"/><path fill-rule="evenodd" clip-rule="evenodd" d="M234.582 166.021l-2.152-11.748c-.773.919-2.173 1.102-3.358 1.158-2.039.095-4.072.115-6.109-.013-3.817-.241-7.628-.673-11.365-1.434-6.869-1.398-14.103-3.295-19.21-7.934 2.523 1.147 5.777 1.267 8.51 1.847 3.47.737 7.006 1.185 10.538 1.591 1.48.17 2.982.177 4.456-.047 1.69-.256 3.416-.176 5.111-.396 3.358-.437 6.757-.254 10.134-.254-.123-2.106-.244-4.212-.366-6.319-.022-.384.161-1.026-.415-1.118-.997-.161-2.172-.019-3.176.046-2.141.138-4.245.398-6.398.313-2.4-.095-4.797-.294-7.197-.414-4.66-.232-8.802-1.805-12.95-3.655a50.986 50.986 0 01-5.379-2.783c-.81-.484-1.785-.749-2.483-1.383-.444-.404-.905-1.279-1.678-1.135 1.883 0 3.663.575 5.469.982 1.965.444 3.975.68 5.967.994 4.276.672 8.584.926 12.89 1.37 3.85.397 7.784 1.097 11.659.547 1.489-.211 2.456-.287 2.348-1.757-.044-.593.375-5.04-.056-5.206-1.38-.533-3.736-.062-5.224-.062-1.967 0-3.863-.47-5.733-.976-1.88-.509-3.81-.945-5.494-1.898-3.227-1.825-5.671-4.671-7.99-7.355-1.114-1.29-2.223-2.647-3.051-4.11-.781-1.379-1.251-3.03-2.604-4.067.699-.114 1.566 1.266 1.926 1.665.892.989 2.267 1.728 3.383 2.495a72.249 72.249 0 008.932 5.255c2.736 1.352 5.735 2.508 8.815 3.009 1.659.27 3.892.402 5.402-.399 1.093-.581.988-1.788 1.141-2.801l.77-5.076c.159-1.049.858-2.849.448-3.888-.395-1.002-2.71-1.84-3.645-2.416-2.934-1.806-6.008-3.405-8.837-5.354-1.197-.824-2.443-1.673-3.063-2.96-.369-.766-1.694-1.99-1.496-2.843 1.602 1.905 4.424 2.405 6.473 3.744 2.403 1.57 4.768 2.439 7.705 2.889 1.437.22 5.588.627 6.161-.931.754-2.052 1.417-3.992 2.411-5.979.608-1.214 1.359-3.639 3.21-3.639 1.598 0 .619 2.71.415 3.44-.7 2.494-.479 5.186-.523 7.735-.024 1.417-.203 2.857.054 4.266.124.676.323 1.318.338 2.009.012.525.552 1.296.45 1.74.256-.412.774-.423 1.23-.407.816.029 1.596-.235 2.357-.463 1.68-.505 3.326-1.093 4.988-1.643 1.431-.475 3.028-.868 4.307-1.644 1.122-.68 1.925-1.775 2.902-2.61 1.426-1.218 4.366-3.885 6.669-2.996 1.268.49-.359 3.692-.816 4.39-3.381 5.171-9.177 7.72-15.257 9.577-1.146.35-3.439.276-4.162 1.26-.599.816-.49 1.896-.699 2.818l-2.38 10.515c3.439 0 6.905-.002 10.25-.829 1.44-.357 2.955-.678 4.308-1.262 1.488-.643 2.754-1.726 3.957-2.727 2.67-2.22 5.36-4.428 7.948-6.729 1.177-1.045 2.305-2.142 3.56-3.112.455-.351 2.003-1.117 1.838-1.788 0 1.726-.677 3.359-1.134 5.012-.501 1.813-.834 3.653-1.551 5.413a27.648 27.648 0 01-5.722 8.777c-2.389 2.471-5.592 3.983-8.89 5.217-1.962.734-3.974 1.386-6.076 1.688-2.098.301-4.224.13-6.335.13.309 2.256.528 4.522.835 6.778.088.654.039 1.411.251 2.044.265.796 1.298.576 2.006.564 4.505-.076 9.331-.821 13.362-2.759 1.991-.958 3.649-2.499 5.318-3.851 1.838-1.49 3.73-2.913 5.596-4.372 1.619-1.263 2.856-2.795 4.39-4.114 1.532-1.317 3.431-2.245 4.838-3.688-2.872 5.224-6.455 10.096-10.513 14.618-1.963 2.188-4.049 4.256-6.614 5.872-2.71 1.707-5.845 2.432-8.891 3.488-1.451.504-2.927.946-4.397 1.4-1.118.345-2.643.433-2.823 1.687-.227 1.591.204 3.304.203 4.908 0 .808.024 1.247-.945 1.417-1.264.223-2.556-.04-3.823-.084-1.3-.047-4.456-.507-5.249.76" fill="#3F7F00"/><path fill-rule="evenodd" clip-rule="evenodd" d="M212.623 165.237c-2.35 0-4.671.434-7.02.453-2.697.022-5.419.014-8.095-.313-4.671-.569-8.726-2.105-12.477-4.667-1.846-1.259-3.73-2.602-5.4-4.051-1.537-1.333-2.386-3.15-3.461-4.779-1.113-1.686-1.339-3.634-1.669-5.536a48.591 48.591 0 01-.692-7.153c-.057-2.134-.154-4.109.346-6.214.536-2.249 1.173-4.548 2.095-6.692 1.745-4.058 3.685-7.939 6.676-11.365 2.823-3.232 6.172-5.664 9.832-8.06 3.757-2.461 9.006-3.58 13.535-4.202 4.758-.654 9.53-.328 14.308-.142 4.192.162 9.009 1.435 12.512 3.548 6.919 4.173 11.622 10.542 15.019 17.316 1.972 3.934 4.155 8.224 3.974 12.646-.087 2.127-.389 4.445-1.074 6.484-.617 1.838-1.136 3.938-2.317 5.555-5.102 6.986-12.312 11.889-20.992 14.661-4.922 1.572-9.936 2.085-15.1 2.512" fill="#010101"/><path d="M212.623 165.237c-2.35 0-4.671.434-7.02.453-2.697.022-5.419.014-8.095-.313-4.671-.569-8.726-2.105-12.477-4.667-1.846-1.259-3.73-2.602-5.4-4.051-1.537-1.333-2.386-3.15-3.461-4.779-1.113-1.686-1.339-3.634-1.669-5.536a48.591 48.591 0 01-.692-7.153c-.057-2.134-.154-4.109.346-6.214.536-2.249 1.173-4.548 2.095-6.692 1.745-4.058 3.685-7.939 6.676-11.365 2.823-3.232 6.172-5.664 9.832-8.06 3.757-2.461 9.006-3.58 13.535-4.202 4.758-.654 9.53-.328 14.308-.142 4.192.162 9.009 1.435 12.512 3.548 6.919 4.173 11.622 10.542 15.019 17.316 1.972 3.934 4.155 8.224 3.974 12.646-.087 2.127-.389 4.445-1.074 6.484-.617 1.838-1.136 3.938-2.317 5.555-5.102 6.986-12.312 11.889-20.992 14.661-4.922 1.572-9.936 2.085-15.1 2.512" stroke="#010101" stroke-width=".75" stroke-miterlimit="10" stroke-linecap="round" stroke-linejoin="round"/><path fill-rule="evenodd" clip-rule="evenodd" d="M212.623 163.282c-2.459 0-4.882.48-7.345.494-2.453.015-4.912-.048-7.332-.445-4.328-.711-8.554-2.244-11.941-4.839-1.731-1.327-3.422-2.767-4.768-4.431-.639-.79-1.153-1.656-1.787-2.447-.611-.762-1.483-1.535-1.715-2.487-.519-2.124-1.187-4.225-1.473-6.391-.318-2.41-.003-4.836.13-7.247.115-2.101.973-4.099 1.61-6.1a42.703 42.703 0 012.639-6.4c1.992-3.937 4.585-7.576 8.053-10.595 3.2-2.785 7.046-4.85 11.18-6.191 2.149-.697 4.288-1.539 6.568-1.798 2.331-.264 4.788-.314 7.135-.272 4.397.079 8.999.473 13.036 2.111 3.831 1.554 7.681 2.936 10.475 5.91 5.875 6.254 10.135 13.804 11.899 21.893 1.733 7.948-3.745 15.489-10.01 20.51-3.466 2.777-7.471 4.862-11.808 6.296-2.083.688-4.194 1.536-6.403 1.822-2.687.348-5.441.373-8.142.608" fill="#7FFF00"/><path fill-rule="evenodd" clip-rule="evenodd" d="M213.052 163.282l-1.722-9.399c-.373.597-1.65.589-2.29.701-1.344.236-2.575.547-3.965.505-3.126-.096-6.333-.612-9.35-1.34-5.673-1.37-11.473-2.172-15.826-6.131 2.278-.162 4.272 1.067 6.431 1.49 2.525.494 5.102.776 7.683.85 2.63.076 5.335.341 7.951-.023 2.815-.39 5.665-.359 8.505-.359l-.749-5.111c-.196-1.338-2.147-.723-3.086-.583-3.684.547-7.373.134-11.062-.25-3.629-.379-7.277-1.752-10.52-3.233-1.274-.582-2.625-1.198-3.693-2.068-.622-.507-1.794-1.815-2.75-1.678 1.473 0 2.895.397 4.319.688 1.751.36 3.556.541 5.335.749 3.415.4 6.836.766 10.257 1.129 3.043.324 6.092.651 9.158.737 1.274.036 1.227-.592 1.135-1.588-.122-1.325-.065-2.661-.065-3.99 0 .134-3.644-.297-3.995-.343-2.989-.397-6.159-1.05-8.826-2.383-2.462-1.231-4.559-3.344-6.222-5.375-.896-1.095-1.439-2.396-2.336-3.486-.695-.844-1.999-1.803-1.871-2.977.695.751 1.758 1.248 2.556 1.915.953.795 1.993 1.512 3.02 2.227a42.153 42.153 0 006.623 3.755c2.311 1.051 4.961 2.03 7.634 1.801.778-.067 2.401-.3 2.903-.896.508-.604.363-1.743.466-2.458.252-1.765.653-3.513.894-5.276.252-1.837-2.422-2.335-3.88-3.044-2.306-1.121-4.2-2.827-6.151-4.38-1.42-1.131-3.301-2.304-3.301-4.217.734.667 1.617.81 2.433 1.313.704.433 1.132 1.115 1.861 1.549 2.01 1.198 4.015 2.045 6.44 2.204 1.233.081 2.47.059 3.705.056 1.113-.003 1.315.078 1.645-.855.706-2.002 1.435-3.914 2.324-5.847.298-.648 1.575-2.475 2.136-.975.3.803.334 1.975.037 2.787-.741 2.019-.346 4.203-.346 6.285v3.175c0 .399.047.671.291 1.01.31.431.14.964.14 1.438.368-.588 1.553-.574 2.184-.632 1.318-.122 2.527-.631 3.735-1.094 1.137-.435 2.388-.701 3.424-1.329 1.202-.728 2.217-1.675 3.301-2.534.66-.525 4.812-3.47 5.469-1.852.464 1.14-.768 3.134-1.43 4.038-2.433 3.324-6.915 5.019-10.791 6.549-.993.392-1.964.825-3.077.755-1.156-.073-1.255.903-1.378 1.704-.46 2.974-1.244 5.935-1.867 8.884 4.633 0 9.573-.059 13.375-2.805 4.197-3.03 7.821-6.685 11.596-10.118.11 1.451-.514 2.867-.857 4.261-.324 1.319-.602 2.658-1.208 3.9-1.316 2.693-2.864 5.343-4.937 7.623-1.758 1.934-4.523 2.64-6.925 3.674-2.92 1.256-6.158 1.297-9.322 1.297l.608 5.253c.037.323-.076 2.057.302 2.167 1.506.434 3.762-.112 5.249-.432 1.853-.4 3.802-.651 5.561-1.335 3.547-1.381 6.127-4.144 8.947-6.436 1.46-1.186 2.863-2.43 4.364-3.575 1.271-.969 2.316-2.401 3.817-3.082-.658.43-.845 1.207-1.09 1.863-.401 1.07-1.283 1.897-1.918 2.848-1.248 1.874-2.518 3.74-4.035 5.446-1.509 1.697-3.13 3.317-4.928 4.765-1.938 1.561-4.344 2.478-6.676 3.436-2.165.889-4.481 1.454-6.735 2.121-1.732.512-.802 3.943-.888 5.264-.067 1.02-3.727.488-4.535.504-.482.009-3.393-.024-3.211.773" fill="#3F7F00"/><path fill-rule="evenodd" clip-rule="evenodd" d="M207.457 179.731c-9.197 0-18.71-.836-26.894-4.963-3.794-1.913-7.361-4.438-9.894-7.673-.64-.816-1.18-1.685-1.726-2.555-.523-.832-1.349-1.763-1.542-2.72-.4-1.993-.497-4.427-.313-6.445.195-2.145 1.05-4.251 1.715-6.303.675-2.087 1.788-3.734 2.929-5.625 2.054-3.407 4.94-6.372 8.079-9.027 1.703-1.441 3.754-2.545 5.65-3.76 2.058-1.319 3.965-2.459 6.347-3.246 2.094-.691 4.167-1.486 6.288-2.103 2.467-.719 5.134-.789 7.697-1.039 10.167-.991 20.07.05 29.737 3.071 4.478 1.4 8.299 3.285 11.756 6.275 3.24 2.803 5.747 6.145 7.63 9.825 2.1 4.103 3.48 8.31 3.66 12.844.037.933.277 2.012-.015 2.923-.272.846-.763 1.622-1.072 2.459-.803 2.173-2.026 3.872-3.733 5.557-5.889 5.812-13.734 9.31-22.121 11.112-3.687.792-7.541 1.379-11.316 1.668-4.238.324-8.619-.125-12.862-.274" fill="#010101"/><path d="M207.457 179.731c-9.197 0-18.71-.836-26.894-4.963-3.794-1.913-7.361-4.438-9.894-7.673-.64-.816-1.18-1.685-1.726-2.555-.523-.832-1.349-1.763-1.542-2.72-.4-1.993-.497-4.427-.313-6.445.195-2.145 1.05-4.251 1.715-6.303.675-2.087 1.788-3.734 2.929-5.625 2.054-3.407 4.94-6.372 8.079-9.027 1.703-1.441 3.754-2.545 5.65-3.76 2.058-1.319 3.965-2.459 6.347-3.246 2.094-.691 4.167-1.486 6.288-2.103 2.467-.719 5.134-.789 7.697-1.039 10.167-.991 20.07.05 29.737 3.071 4.478 1.4 8.299 3.285 11.756 6.275 3.24 2.803 5.747 6.145 7.63 9.825 2.1 4.103 3.48 8.31 3.66 12.844.037.933.277 2.012-.015 2.923-.272.846-.763 1.622-1.072 2.459-.803 2.173-2.026 3.872-3.733 5.557-5.889 5.812-13.734 9.31-22.121 11.112-3.687.792-7.541 1.379-11.316 1.668-4.238.324-8.619-.125-12.862-.274" stroke="#010101" stroke-width=".75" stroke-miterlimit="10" stroke-linecap="round" stroke-linejoin="round"/><path fill-rule="evenodd" clip-rule="evenodd" d="M207.31 178.165c-5.033-.763-10.326-.053-15.286-1.196-4.299-.991-8.782-2.518-12.447-4.794-3.588-2.228-6.6-4.688-8.35-8.376-.931-1.964-1.698-4.032-1.878-6.177-.192-2.277.495-4.587 1.024-6.798 1.98-8.277 9.753-14.711 17.031-19.411 3.742-2.415 8.57-3.691 13.023-4.574 4.82-.956 9.934-1.275 14.856-.993 9.684.555 18.891 2.707 27.031 7.599 3.778 2.271 6.507 5.863 8.277 9.588.921 1.939 1.874 3.875 2.734 5.837.977 2.23 1.355 4.467 1.72 6.829.307 1.985-.481 3.766-1.25 5.581-.38.899-.567 1.665-1.218 2.453-.822.997-1.652 1.988-2.449 3.001-1.298 1.652-2.968 2.575-4.8 3.668-2.133 1.273-4.323 2.479-6.622 3.49-4.208 1.854-9.034 3.203-13.669 3.682-5.1.526-10.097.663-15.229.606-.833-.008-1.666-.015-2.499-.015" fill="#7FFF00"/><path fill-rule="evenodd" clip-rule="evenodd" d="M208.314 178.165v-8.616c-.816 1.355-4.529.547-5.814.386-3.657-.457-7.161-1.22-10.728-2.077-3.877-.934-7.717-1.862-11.402-3.33-1.833-.73-3.547-1.677-5.374-2.415-.702-.284-1.126-2.144-1.988-1.962 1.743 0 3.142 1.097 4.737 1.566 2.067.609 4.195 1.017 6.297 1.51 4.193.982 8.508 1.811 12.861 1.647 2.857-.106 5.59.342 8.42.631.617.063 1.918.382 2.5.078.827-.434.42-4.231.491-5.041-1.537 0-3.038-.379-4.574-.394-1.522-.015-3.047-.108-4.55-.336-3.295-.499-6.468-1.053-9.717-1.792-2.854-.648-5.662-1.549-8.148-3.003-2.533-1.482-5.303-2.699-7.455-4.657.26.416.853.451 1.315.479.927.054 1.776.337 2.652.595 1.807.533 3.698.75 5.532 1.187 3.781.902 7.529 1.932 11.37 2.614 3.712.658 7.478 1.306 11.268 1.389 1.455.032 2.115-.095 2.549-1.43.306-.942.336-1.932.619-2.876-1.219.097-2.289-.579-3.455-.767-1.419-.228-2.746-.2-4.142-.622-2.519-.764-5.196-1.408-7.384-2.835-2.224-1.449-3.96-3.593-5.596-5.557-.91-1.094-1.688-2.231-2.231-3.516-.411-.974-.776-2.101-1.734-2.758.647-.106 1.252 1.14 1.642 1.493a23.482 23.482 0 002.993 2.324c2.22 1.438 4.487 2.84 6.863 4.059 2.326 1.193 4.766 1.996 7.298 2.735 1.896.553 4.229 1.33 6.118.25.584-.334.733-1.322.884-1.872.277-1.004.692-1.969 1.067-2.945.241-.625 1.334-2.326.957-2.986-.478-.84-2.067-1.395-2.919-1.855-2.285-1.231-4.43-2.68-6.548-4.134-1.803-1.239-3.717-2.657-3.717-4.903-.175.885 2.017 1.636 2.659 1.942 2.115 1.007 4.017 2.362 6.203 3.254 1.77.722 3.894 1.245 5.847 1.121.882-.057 1.908.266 2.744-.101.791-.347.781-1.355 1.185-1.964.752-1.131 1.782-2.445 2.766-3.418.449-.446 3.346-1.852 3.251-.377-.053.81-.67 1.661-.988 2.4a26.531 26.531 0 00-1.242 3.571 26.539 26.539 0 00-.897 6.887c.454-.748 1.652-.391 2.383-.391 1.407 0 2.778-.365 4.176-.463 2.23-.156 4.802-.007 6.787-1.104.378-.208.518-.627.92-.81a42.645 42.645 0 011.99-.852c1.241-.489 2.608-.885 3.91-1.219 1.978-.507 1.791 1.209 1.117 2.32-1.072 1.769-3.274 2.714-5.251 3.426-2.784 1.002-5.626 1.656-8.579 2.089-1.388.203-2.776.406-4.168.585-1.08.14-1.881.278-2.45 1.19-1.564 2.507-2.862 5.182-4.28 7.76.459-.036.874.151 1.293.284.739.236 1.458-.018 2.202.117 1.389.253 2.806.382 4.223.382 2.826 0 5.676-.413 8.223-1.571l8.455-3.845c1.244-.566 2.415-1.247 3.652-1.822 1.128-.525 2.581-.803 3.382-1.769.146 1.005-.747 2.124-1.226 2.969-.722 1.269-1.424 2.413-2.429 3.525-2.171 2.404-4.449 4.872-7.491 6.396-2.86 1.433-6.082 2.233-9.292 2.686-1.717.243-3.453.436-5.192.474-.903.02-1.653-.205-2.529-.342-.843-.132-1.617-.074-2.41-.435l-.431 7.049c6.215 0 13.169.814 18.701-2.322 2.622-1.486 5.552-2.465 8.24-3.846 1.323-.679 2.657-1.34 3.943-2.077 1.216-.696 2.488-1.545 3.991-1.545-2.382 1.083-3.857 3.155-5.702 4.811-1.949 1.75-4.27 3.106-6.549 4.466-2.438 1.454-4.977 2.92-7.812 3.629-2.804.701-5.744.86-8.591 1.368-1.327.236-2.659.472-4.009.566-1.228.084-1.468-.007-1.759 1.115-.231.885-.199 3.633-1.395 3.746-1.851.176-7.473-1.872-8.528-.119" fill="#3F7F00"/><path fill-rule="evenodd" clip-rule="evenodd" d="M109.372 139.99l11.693 29.685c11.388 10.665 23.38 22.627 81.428 22.394 43.494.136 72.505-7.341 85.896-17.715 9.145-7.973 13.755-35.418 13.755-35.418s-19.049 21.715-99.794 21.715-92.98-20.661-92.98-20.661h.002z" fill="#000"/><path fill-rule="evenodd" clip-rule="evenodd" d="M110.928 142.957l11.735 26.955c11.153 10.082 26.656 20.698 83.803 20.574 42.818.2 69.16-9.574 82.398-19.342 9.047-7.508 12.365-29.133 12.365-29.133s-20.89 21.227-100.38 21.094c-79.488-.132-89.923-20.148-89.923-20.148h.002z" fill="#BF8F5B"/></svg>