<svg width="361" height="224" fill="none" xmlns="http://www.w3.org/2000/svg"><g clip-path="url(#clip0_547:3986)" fill-rule="evenodd" clip-rule="evenodd"><path d="M356.433 13.283c-13.181 4.977-30.609 5.493-46.167 6.643-.865-.168-.554.574-1.171.604-6.161.378-15.241-.231-19.17.904-4.597-.93-12.241-.454-20.345-.604-9.829-.18-19.005-.757-30.91-2.113-2.862-.326-6.874-1.283-8.997-1.509-3.483-.371-5.476-.383-7.042-2.113.101-8.783 13.066-7.64 19.561-10.567 9.38-.667 14.318-1.046 21.911-1.51 3.392-.207 7.395-.49 10.953-.603.659-.022 1.642.8 2.738.602 2.14-.378 7.616-.95 11.738-.602.38-.01.302-.371.392-.604 1.499.774 10.701.83 12.911 0 10.799.69 19.156 1.909 33.252 2.415.588 1.078 1.958-.324 1.958 1.209 1.628-.056 6.542.238 11.344 1.509 3.338.882 10.056 3.292 7.044 6.339z" fill="#fff"/><path d="M352.132 17.813c.229.977.821.562 1.172.904.061 1.31-1.225.66-1.955 1.813.003.6 1.066.383.783 1.206 1.981.519 1.971-1.408 3.13-.604 4.838 7.395 2.739 26.702 2.739 39.848 0 3.023.878 6.392-1.567 8.152-1.961 1.413-7.042 1.636-10.173 2.415-4.37 1.091-9.209 2.319-12.518 3.02-2.677-.034-8.064.422-9.78 1.81-13.308.959-29.563.615-40.686-.601-3.212-.355-4.518-1.394-7.434-.302-.918-.502-.848-1.762-.784-3.02-4.412-10.884-8.507-22.013-17.996-28.982.124-.7-.064-1.157-.391-1.509-8.67-7.432-20.825-13.623-33.256-12.075-1.731-2.55-6.113-3.359-7.435-5.133-1.986-2.67-.438-3.984-.392-7.85.687.75.716.495 1.175-.301 8.256 3.068 17.983 3.653 27.388 4.528 2.611.243 5.448 1.233 7.043 1.209-.023 0 1.77-.622 1.955-.605 11.163 1.059 19.173 1.312 26.212 1.509 14.604.169 27.699-.132 40.298-.904 2.836-.174 5.759-1.145 8.606-1.21.71-.015 1.594.603 2.345.605 3.069.01 8.534-1.152 12.519-1.81 3.325-.551 5.665-1.563 9.002-2.113zm-9.001 5.432c.35-.976.545.867 2.739.302.814-.779.334-2.491-.78-2.717.029 1.196-3.111.847-1.959 2.415zm-8.215 1.209c1.516.187 1.611.25 2.739-.302.294-.928-1.072-.58-.783-1.509h-2.346c-.284.921.4 1.098.39 1.81zm-5.867.603h2.346c.191-1.255-.465-1.856-1.566-2.113-.87.554-1.287 1.242-.78 2.113zm-6.651 1.811c-.01-.712.672-.89.392-1.81-2.293-2.128-4.293 2.25-.392 1.81zm30.121 0c1.647.364 1.717-.486 2.743-.604.184-.949-.557-1.18-.783-1.811h-2.347c-.79 1.091.038 1.462.387 2.415zm-46.16.302c.652.4 1.309.799 2.738.605.085-.236.01-.597.392-.605.006-1.113-1.14-1.333-1.959-1.81-.542.486-1.386.742-1.171 1.81zm7.039-1.51c.235.626-.482 1.984.391 2.115.268-.751 1.191.445 1.567.602-.214-1.068 1.385-.742 1.172-1.811-.675-1.024-1.408-1.336-3.13-.907zm31.299 1.208c.634.717 1.553 1.216 2.347 1.811.22-.737 1.515-.644 1.175-1.81-.466-.849-2.077-.814-3.13-1.21.03.526-.09.941-.392 1.21zm-7.825 2.718c1.07.754 1.669.123 2.739.604.807-.882 1.261-1.137.783-2.415h-3.13c.282.921-.676.887-.392 1.81zm-5.085.905c.363.322 1.443.093 1.172.905 1.191-.29 1.889-.958 2.35-1.811-.525-.2-.729-.646-.783-1.21-2.14-.239-3.051.466-2.739 2.116zm22.299-.905c-.777-.504-.496.027-1.567 0 .227.53-.471 1.774.392 1.81.309-.693 1.369.521 1.958.605 1.51-.87.427-2.528-.783-3.02v.605zm-28.95 2.112c1.037-.003 2.236.113 2.738-.302.283-.922-.401-1.1-.392-1.811-2.19-.383-2.648.57-2.346 2.113zm-8.609.604c1.949-.047 2.33.452 3.521-.302-.024-2.577-2.157-1.322-3.129-2.113.086.972-.692 1.278-.392 2.415zm29.343 3.02c.242.818.776 1.412 1.566 1.81.684-.634 1.283-2.216 0-2.717-.382.408-1.318.391-1.566.907zm-6.649 2.415c.794.1 2.149-1.152 1.173-2.415h-2.347c-.138 1.211.006 2.209 1.174 2.415zm14.865 0c.882-.545.921-1.525.392-2.415h-2.739c-.263 1.612.846 2.167 2.347 2.415zm-31.297-.907c.029.526-.089.94-.392 1.21.923.926 5.13 1.014 5.085-.605.485-.978-1.264-.231-.783-1.209-1.143.325-2.018.857-3.91.605zm8.606 1.21c1.061.66.974.333 2.346.601.592-.769 1.106-1.383.392-2.415h-2.347c.011.713-.674.89-.391 1.813zm21.124 4.527h2.743c.436-.951.034-.683 0-1.813-1.365.049-1.662-.732-2.743-.905-.183 1.081-.633 1.745 0 2.718zm-9.388 4.226c.023-.317.503-.238.392.302 1.774.16 2.554-.445 2.347-1.81-.568-.467-2.003-.268-3.13-.303.225.53-.472 1.773.391 1.81zm9.388-.302c-.075 1.368.255 2.422 1.96 2.415 1.534-.826 1.241-2.72-.784-3.02-.392.482-.369 1.216-1.176.605zm-3.129 4.527c1.331-.766.377-1.68 0-2.717h-1.955c-.371 1.697.551 2.393 1.955 2.717zm-6.651 3.623c-.372-1.093 1.69-.307 1.958-.906.274-1.518-.811-1.99-2.738-1.811-.586.956-.082 2.064.78 2.717zm9.393-2.414v1.81c1.535-.28.987 1.05 2.738.605.29-.408.87-2.108.392-2.113-.03.29-1.634-.73-3.13-.302zm-3.13 5.434c1.146-1.41.5-2.631-1.566-3.02-1.048 1.119-1.105 3.244 1.566 3.02zm3.13 2.718c1.652-.794.885 1.066 3.13.601.236-.722.56-1.375.389-2.415h-3.131c.284.924-.398 1.1-.388 1.814zm-3.522 4.225c.899-.799.895-1.919 0-2.718h-1.958c-.5 1.327-.086 2.592 1.958 2.718zm-6.651 0c.907-1.283-.035-2.46-2.349-2.113-.918 1.287.515 2.089 2.349 2.113zm9.781.302c-.42 1.127.971.86.779 1.81 1.207-.211.756-.211 1.96 0-.192-.95 1.2-.682.783-1.81-1.258.265-.538-.996-1.567-.907-.392.504-1.809.214-1.955.907zm-11.347 3.322c.723.044.242 1.022.783 1.206h2.739v-1.81c-1.268.13-3.386-.398-3.522.604z" fill="#fff"/><path d="M345.089 20.83c1.114.226 1.594 1.938.78 2.717-2.193.565-2.388-1.278-2.739-.302-1.151-1.568 1.989-1.22 1.959-2.415zm-10.563 1.812h2.346c-.289.929 1.077.58.783 1.509-1.128.552-1.222.489-2.739.302.01-.712-.674-.889-.39-1.81zm-4.697.302c1.101.256 1.757.858 1.566 2.113h-2.346c-.507-.871-.09-1.56.78-2.113zm-7.04 2.113c.281.922-.401 1.1-.392 1.811-3.9.44-1.9-3.938.392-1.81zm29.343-.603h2.347c.226.63.967.862.783 1.81-1.026.118-1.095.969-2.743.605-.349-.954-1.177-1.325-.387-2.415zm-44.603.906c.818.477 1.964.697 1.959 1.81-.382.007-.306.37-.392.605-1.43.195-2.086-.204-2.739-.605-.213-1.069.631-1.324 1.172-1.81zm8.998 1.206c.213 1.069-1.386.742-1.172 1.81-.376-.156-1.299-1.353-1.567-.601-.872-.13-.156-1.49-.391-2.116 1.723-.43 2.456-.118 3.13.907zm28.562-.906c1.053.395 2.664.36 3.13 1.208.34 1.167-.955 1.073-1.175 1.811-.794-.594-1.713-1.093-2.347-1.81.302-.269.422-.684.392-1.21zm-7.826 2.115h3.13c.478 1.278.024 1.533-.783 2.415-1.07-.482-1.669.15-2.739-.604-.283-.924.675-.89.392-1.811zm-2.737.602c.054.562.257 1.01.783 1.209-.461.853-1.159 1.52-2.35 1.81.271-.81-.808-.582-1.172-.904-.312-1.65.599-2.356 2.739-2.115zm19.56.604c1.21.492 2.293 2.15.783 3.02-.588-.084-1.648-1.298-1.958-.605-.863-.036-.165-1.28-.392-1.81 1.071.027.79-.504 1.567 0v-.605zm-26.604.605c-.01.71.674.89.392 1.81-.502.415-1.7.3-2.738.303-.302-1.544.156-2.497 2.346-2.113zm-10.563.302c.972.79 3.105-.465 3.129 2.113-1.19.754-1.572.255-3.521.302-.3-1.138.477-1.444.392-2.415zm30.517 4.527c1.283.501.684 2.083 0 2.718-.79-.398-1.324-.993-1.566-1.811.248-.516 1.184-.499 1.566-.907zm-9.39.907h2.347c.977 1.263-.38 2.515-1.173 2.415-1.167-.206-1.311-1.204-1.174-2.415zm13.694 0h2.739c.529.89.489 1.869-.392 2.415-1.502-.248-2.611-.803-2.347-2.415zm-131.454.302c2.494.792 3.859 2.455 4.697 4.528-1.57.806-2.904-.503-3.913-.604-1.026.317-1.745.867-1.959 1.81-1.368-2.07.643-4.127 1.175-5.734zm106.413.602c-.481.979 1.268.231.783 1.209.044 1.619-4.162 1.53-5.085.604.302-.27.421-.683.392-1.209 1.892.253 2.767-.28 3.91-.604zm5.088 0h2.347c.714 1.032.2 1.646-.392 2.415-1.372-.268-1.285.06-2.346-.602-.284-.923.401-1.1.391-1.813zm-104.067.604c4.83.376 7.249 2.285 10.561 1.811-.417 1.128.975.863.783 1.814 1.986.39 3.614-.173 3.522 2.415-.999 1.181-3.954-.779-3.522.302-.459-.754-2.137-.565-2.738-1.209.27-1.214-.376-1.723-.392-2.717-1.346 1.8-3.802 1.189-7.434 1.508-1.253-.791-1.394-2.475-.78-3.924zm124.799 3.02c1.081.172 1.377.953 2.743.904.034 1.13.436.862 0 1.813h-2.743c-.633-.973-.183-1.637 0-2.718zm-107.587 4.225c2.251.779 4.292 1.72 6.651 2.416-.622 3.164-2.095 1.03-5.475 1.209-.036-1.28-1.23-1.669-1.956-2.416.165-.474 1.229-.258.78-1.209zm97.807.907c1.128.035 2.562-.164 3.13.302.207 1.366-.575 1.97-2.347 1.811.112-.54-.37-.619-.392-.302-.862-.038-.165-1.28-.391-1.811zm10.956.904c2.025.3 2.318 2.194.784 3.02-1.704.008-2.035-1.047-1.96-2.415.807.61.784-.123 1.176-.605zm-6.259 2.414h1.955c.377 1.037 1.331 1.951 0 2.718-1.405-.324-2.327-1.02-1.955-2.718zm-94.679 2.116h1.567c.064.415.716 2.345.78.904.856.045.841.762.783 1.511-1.473.054-1.782.54-2.346.602-.398-.194-.404-.693-1.175-.602.048-.87-.213-1.978.391-2.415zm89.202 1.509c1.926-.18 3.012.292 2.738 1.81-.267.6-2.329-.187-1.958.907-.862-.654-1.366-1.762-.78-2.717zm5.477 2.716c2.066.389 2.712 1.61 1.566 3.02-2.671.224-2.614-1.901-1.566-3.02zm5.083 3.924h3.13c.172 1.04-.152 1.692-.388 2.415-2.245.465-1.478-1.396-3.13-.602-.009-.712.673-.89.388-1.813zm-5.866 3.321h1.958c.896.8.899 1.92 0 2.718-2.045-.126-2.459-1.391-1.958-2.718zm-7.043.604c2.314-.346 3.256.831 2.349 2.114-1.834-.024-3.267-.826-2.349-2.113zM353.695 64c1.029-.09.309 1.171 1.567.906.417 1.127-.975.86-.783 1.81-1.204-.211-.753-.211-1.96 0 .192-.95-1.199-.682-.779-1.81.146-.693 1.563-.403 1.955-.907zm-203.049.906h.783c3.777 3.272 7.66 15.867-1.175 16 .428-2.52 3.136-2.704 3.522-5.131.557-3.501-3.171-7.022-3.13-10.87zm193.269 2.717v1.811h-2.739c-.541-.184-.061-1.162-.783-1.206.136-1.003 2.254-.475 3.522-.605zm-183.488 34.112c-.876-1.575 1.277-2.63 1.958-3.923.042-5.862-4.072-8.393-7.042-11.17-3.041 3.367-9.09 4.748-14.476 2.112-1.557-9.338 11.398-4.822 16.823-3.32 3.934 3.13 11.909 13.044 2.737 16.301zm-17.213-16.3c-.171 1.035.153 1.69.392 2.414 3.439.695 7.763.127 8.606-2.113-3.161-.118-6.412-1.51-8.998-.302z" fill="#000"/><path d="M152.213 85.736c-.844 2.241-5.167 2.808-8.606 2.113-.239-.725-.563-1.379-.392-2.415 2.585-1.208 5.836.184 8.998.302z" fill="#fff"/><path d="M322.786 86.945c-2.528 1.464-7.709 3.03-8.218-1.508 2.465-.661 7.218-1.071 8.218 1.508zm-19.169-1.209c3.098.683 2.773-.194 6.651.602v1.814c-1.407 1.039-3.728.216-3.909.904-.628-.521-1.185-1.098-2.742-.904-.329-.653-1.012-1.03-.78-2.116.481.34.802.263.78-.3zm-5.869 2.718c.179 2.127 4.258 3.604 1.959 5.734-1.567-.143-2.71-2.784-4.305-3.924-3.563.182-4.77.33-6.651 1.81-.971-.308-5.226-1.594-5.477-1.206-1.009-.415-.088-1.85 0-2.415 5.404 2.145 8.563-1.886 14.474 0zm11.348.904c.714.717 1.019 1.747.392 2.717-1.038.005-2.305-.167-2.349.605 1.642-.214 3.539 1.316 3.521 3.322-1.643 1.5-2.36.945-5.085 1.206-2.28-1.92.417-4.628-1.175-6.338.12-1.62 2.346-1.613 4.696-1.512zm6.259.906h5.085c-.144.514.305.57.783.605-.067 1.256-1.382 1.548-2.739 1.81.5.81.624 1.436 1.956.905-.134.607.08.946.783.907.004.805-1.236.656-1.175 1.51-.537-.754-1.782-.338-1.955.3-1.534-.474-3.157-1.635-1.955-3.319.745.565.707-.18 1.955 0-1.617-.362-2.831-1.037-2.738-2.718zm39.124 2.717c2.075.68 3.474 1.73 1.563 3.32-3.298-1.106-10.723 3.205-15.257.906v-1.81c6.211.84 10.633-1.614 13.694-2.416zm-125.196 1.207c1.563-.239 3.394 2.144 1.959 3.321-3.022.371-3.929-2.34-1.959-3.322zm68.857 2.415c-3.534 2.495-8.682.88-11.734 3.019-2.675-.42-3.222-1.775-3.131-4.83 2.381-.877 3.153 1.05 5.869 1.209 3.753.213 7.2-2.776 8.996.602zm-63.769 1.813c1.217.469 2.665.76 2.346 2.415-1.21.113-2.884.578-3.912-.604-.296.475-1.242.449-1.173 1.206-.381-.511-1.083-.774-2.349-.602.009-.712-.671-.89-.391-1.813 1.506-.26 3.346-.552 3.522.907.517-.605 1.7-.703 1.957-1.509zm6.652 3.319c-1.15-.081-1.455-.414-1.959 0-.937.121.216-1.373-1.173-.904-.319-3.459 5.188-1.601 3.132.904zm-21.129-2.718c1.13.438 1.509 1.452 2.347 2.113-1.697 2.248 1.165 3.08 0 5.434-.554-.025-1.108-.049-1.173.302-.888-.218-1.171-.909-1.566-1.508 2.249-2.311-.541-3.792.392-6.34zm73.941 7.246c-1.175-.376-3.654-1.28-5.476-.602-1.741-1.295-7.361-1.353-4.692-4.228 3.573 1.106 7.373-1.192 12.128-1.206-.355 4.036 5.351 1.82 5.084 5.434-.574-.432-1.239-.233-1.172.602-1.545-1.811-4.436-.376-5.872-.904v.904zm50.08-5.735c1.129.98 5.714-.078 7.042 1.509-.79 2.41-9.046 1.501-9.389-.907.806-.181 2.716.489 2.347-.602zm-120.108.302c1.658-.073 3.098.023 3.521.905.35 2.225-3.434 1.508-3.912.302-.051-.541.477-.636.391-1.207zm25.43 2.718c.895 1.304 2.865 1.315 1.959 3.319-.507.415-1.701.3-2.742.302.006-2.849-.245-4.127-.78-6.338 3.394-.477 3.597 2.019 1.563 2.717zm-92.72 27.169c5.555-3.368 15.101-4.69 15.649-12.377.554-7.788-7.074-12.478-15.26-14.492-3.164.434-9.555-.507-13.299.906-2.314 2.14-6.501 2.832-6.262 6.943.331 1.053 1.611 1.373 2.742 1.813.213.437-.46 1.56.388 1.509-.01.293-.478.233-.78.302-2.423-.644-4.257-1.707-4.697-3.321-1.365-5.014 6.154-7.813 9.389-9.962 5.101-.194 8.778-.518 12.519 0 14.436 1.997 24.401 17.035 10.956 25.963-2.375-.022-2.945 1.351-4.305 2.113-3.413-.07-3.044 1.254-7.04.603zm80.2-27.774v1.811h-2.738c-2.008-1.673.65-3.144 2.738-1.811zm-4.303.303c.12 1.098-.061 1.962-.392 2.717-1.214.03-1.115-.951-2.738-.604-.594-2.204 1.353-3.43 3.13-2.113zm8.999 2.113c-1.814-.214-3.559-.477-3.132-2.416 2.099-.688 4.234.711 3.132 2.416zm-14.868.302c.421 1.221.421 2.098 0 3.319-1.579-.509-1.678-.294-3.129-.904-.086-.972.691-1.277.392-2.415 1.559-.167 1.178-.167 2.737 0zm120.499 0c.3.712.77 2.086 0 2.717-1.095-.361-2.699-.333-4.305-.302-.311-.565-.653-1.105-.78-1.813 1.31.037 3.397-.14 5.085-.602zm-105.631 3.318c-1.454.541-3.193-.022-3.522-1.206 1.049-2.296 3.714-1.247 3.522 1.206zm-8.608-.302c-.43.168-.069 1.17-.783 1.814-3.302.83-3.322-2.688-1.956-3.624.51.712 2.484.297 2.346 1.511.437-.572.979-1.058 1.175-1.813 1.167.108 1.984.482 2.74.907v1.811c-.698.167-1.624.154-1.956.604-.375-.517-1.299-.61-1.566-1.21zm-12.519-1.205c4.19 1.621-.341 4.67 1.567 7.547h-2.35c-.369-2.334-.503-5.128.783-7.547zm28.945 1.807c1.073.592 3.427 1.43 1.96 3.02-3.106.26-2.842-1.58-1.96-3.02zm-14.08 7.852c.615-.106-.341-.53.392-.604-.466-.146-2.159-.338-2.347-1.509.219-.734.334-1.552 1.566-1.509-.277-.894-1.015-1.432-2.35-1.511.558-.776.918-1.707 2.35-1.81.509.812 1.33 1.388 1.956 2.113-.109.621-1.044.601-1.567.906 2.602 1.785.302 3.629 1.567 6.339-.955.343-1.898.304-3.131-.302-.397-1.229.538-2.982 1.564-2.113zm4.305-6.943c1.879.415 3.626 1.966 1.567 3.019-1.577.209-.962-1.272-2.35-1.209-.189-.947.557-1.178.783-1.81z" fill="#000"/><path d="M165.122 111.095c1.621-.084 1.525.395 2.739 0 .442.663.449 1.663 1.567 1.811 1.675 10.24-9.734 11.548-16.824 13.284-5.393-.726-9.37 1.942-11.739 4.527-.073-.343-.391-.169-.391 0-.914-.098-.379-1.316-1.172-1.511 3.296-5.078 9.609-4.396 15.649-5.434 4.929-.842 9.316-3.046 11.736-6.942.086-.138.563.513.392.604 1.047-.56.006-2.644.391-3.322-.791-1.047-3.509-1.366-2.348-3.017zm58.685 0c.818.657 1.118-.152 2.346 0 .672.487.972 1.263.784 2.415-1.223.58-2.818.779-3.914 0-.426-1.336.663-1.503.784-2.415zm19.562.602c1.038.005 2.235-.113 2.739.302.161 1.747.33 2.801.783 4.831-1.602.731-2.063-.41-3.522-.605.841-2.076-.749-2.838 0-4.528zm-14.085.302c1.495-.147 1.251 1.049 3.128.605-.079.943.265 2.215-.391 2.716-1.767-.068-3.651-1.005-2.737-3.321zm19.953 1.209c2.273-.044 2.965 1.133 2.738 3.017-1.73.332-1.945-.511-3.129-.602-.173-1.04.155-1.693.391-2.415zm-32.08 1.508c.64 1.032.458 2.602-.391 3.322-.825-.268-1.156-.919-2.346-.907-.286-1.726.228-2.842 2.737-2.415zm22.299 0c1.416-.087 1.512.845 2.738.906.172 1.037-.152 1.693-.391 2.415-3.445.539-3.487-1.913-2.347-3.321zm-16.433.604h1.96c.161.578.139 1.3 1.172 1.207.293.931-1.348.368-.784 1.511-1.938.491-1.245-1.051-2.738-.907-.283-.924.675-.887.39-1.811zm5.869.905c.465.349 1.385.343 2.35.302.022.991 1.111 1.156.78 2.416-.666-.111-.736.235-.78.604-.87-.233-1.526-.633-2.742-.604-.644-.981-.149-1.868.392-2.718zm-9.389.302c2.322-.133 2.216 2.365 1.566 3.624-.735-.963-1.473-.052-2.35-.907-.381-1.403.511-1.823.784-2.717z" fill="#000"/><path d="M354.479 120.453c.095 1.684-2.559 1.246-2.347 3.019.388.502 1.809.214 1.955.905 2.548.356.487-2.842 2.739-2.718v6.946c-.691.56-1.142-.133-1.955-.303-.216.536-.201 1.253-.784 1.509.895 1.024 1.382.992 2.739 1.209-.019 1.393-.284 2.596-1.563 3.016 2.783 4.79 1.289 11.387-.391 16.001.582.161.459.3 1.563.604.112 2.995.188 4.307 0 7.245-1.723.179-2.798.857-2.347 2.717 1.029.56 1.484-.309 2.739.302.644 8.51-4.966 10.388-10.955 13.583-.814.127-1.036-.206-1.563-.302-2.65 3.319-10.086 4.53-15.257 5.736-1.357-.26-.707-2.071-1.959-2.414-.974.457-.489 2.036-1.172 2.717-4.209 1.219-7.998-2.742-12.521-3.924.441-.363 1.117-.548.783-1.511-.124-.71-1.853-.18-1.563-1.206-.612.837-1.115 1.757-1.959 2.414-1.963-.901-4.817-1.113-4.693-3.623-1.553-.09-1.865.776-2.349 1.511-.732-.641-1.032-1.618-1.956-2.115-1.299.306-1.225 1.67-3.129 1.511-.807-.486-.907-1.513-.783-2.718-3.544-.115-3.054 3.012-5.869 1.207-.041-1.238 1.564-1.209 1.175-2.718-.337-.243-.232-.825-.782-.904-.978.152-1.307.803-2.347.904-.254 1.201 1.036 1.214.78 2.418-2.62.009-4.113-.853-5.085-2.116-3.995 2.148-8.539-1.191-10.172.303-.899-.615-.14-2.507-.392-3.621h2.739c.032-1.133.296-2.444-1.564-2.114-.037-.941-.729-2.078.784-2.417.003.803-.15 1.725.389 2.116 1.168-.436 1.33.246 2.349-.303.042-2.044-1.913-2.55-1.175-5.132-1.882-.445-1.634.752-3.13.604.439-3.761-3.225-4.354-5.085-6.341 1.029-.715 3.181-1.833 2.347-3.019-1.7-1.464-4.07.988-2.739 2.717-2.849-1.046-4.775-1.985-8.217-2.717-.224-.976.12-1.518.783-1.811-.729-.442-1.038-1.211-2.347-1.209-.006-1.311-.13-2.715.392-3.621 1.465.227 1.908-.34 1.956-1.209.297-1.132-1.493-.655-1.563-1.508 2.694-6.373 7.288-11.282 10.561-17.206 2.222.382 6.097-.457 7.434 0 0 1.316-1.34 1.783-.392 3.018.525-.061.729-1.255.783 0 1.334.224.643-1.113 1.564-1.209.27-1.215-1.647-.741-1.564-1.809 11.853-1.104 28.708-1.234 42.252-1.512-.149.791-1.255.845-.783 2.115.168.674 1.929.121 2.738.301 1.78-.571.37-2.089 1.175-3.017 5.231-.227 11.595-2.658 17.215-1.512.812-.076.106-1.326.78-1.508 4.262-1.34 7.952 1.233 11.738 2.719zm-12.128.604c.545.583 1.447.894 2.346 1.207 1.392-.779.739-2.769-.782-3.02-.22.838-1.348.975-1.564 1.813zm8.214 0c-1.314.109-.652-1.309-1.175-1.813h-1.171c-2.201 1.828 1.034 3.857 2.346 1.813zm-20.736 1.508c.502.518.808 1.187 1.958 1.206 1.036-.82.691-2.552-1.175-2.714.294.929-1.073.58-.783 1.508zm5.48.907c5.042 2.185.777-5.404 0 0zm-25.43-.907c-.308 1.546.694 2.079 2.739 1.811.521-2.348-.828-2.741-2.739-1.811zm36.381 3.021c1.584.25 2.334-2.86-.391-3.02-.884 1.007-1.025 2.358.391 3.02zm-43.816.301c.226-1.182-.337-1.754-.783-2.415h-1.563c-1 1.634.497 3.069 2.346 2.415zm-13.693-1.209c-.274 1.98 1.177 1.463 2.346 1.811.773-.337 1.429-2.494 0-2.718-.76.318-1.563.608-2.346.907zm27.387 1.811c.468-1.277.516-2.676-1.566-2.718-.608 1.052-.576 2.931 1.566 2.718zm23.083.604c2.395.782 3.105-.837 3.13-2.717-2.643-.326-3.286.888-3.13 2.717zm-66.901.303c.907-.096 1.502.049 1.955.302.21-.946 1.614-.971 1.175-2.415-1.962-.006-3.347.435-3.13 2.113zm21.128-.303h3.129v-1.508c-.496-.347-3.085-.607-3.522 0 .523.209-.194.806.393 1.508zm12.518 2.113c.9-1.253 1.782-2.95-.784-3.319-.798.912-.027 2.697.784 3.319zm12.519-2.717c-.133 1.311.298 2.188 1.563 2.415.21-.946 1.615-.971 1.175-2.415-.939-.857-1.694-.494-2.738 0zm30.905 1.813c1.026.116 1.096.968 2.742.602.124-.708.619-1.133.388-2.113-.576-.158-.983-.447-1.562-.602-.596.646-1.701.902-1.568 2.113zm-6.651-1.51c-.124.709-.618 1.132-.389 2.113 1.248-.259 1.211.476 1.955.604 1.086-.818 1.675-2.813-.783-3.019.023.564-.299.638-.783.302zm-43.424 3.019c5.323-2.17-3.769-3.693 0 0zm28.167 0c.102-.47.86-.209 1.175 0 .867-.833.746-1.533.392-2.718h-1.567c-.375 1.039-1.238 1.882 0 2.718zm5.477.301c.838-.793 2.296-1.575 1.175-3.019h-1.956c-.733 1.103-.333 2.507.781 3.019zm-57.51-.301c.681-.022 1.217.066 1.566.302.714-.714 1.019-1.747.39-2.717-2.032-.128-2.434 1.466-1.956 2.415zm3.913-.907c1.029-.089.309 1.172 1.563.907 1.04-.103 1.321-.792 1.566-1.509-.814-1.273-3.04-1.022-3.129.602zm12.519 1.813c1.204-.211.753-.211 1.955 0-.563-1.143 1.077-.58.784-1.511-1.032.093-1.01-.629-1.172-1.207h-1.567c-.188 1.082-.637 1.745 0 2.718zm19.56.905c.95-.637 2.37-2.516.784-3.32-.061.749-1.323.089-1.566 0-.405 1.391-1.475 2.85.782 3.32zm-26.211-1.811c.366.322 1.442.093 1.176.907 1.541-.236 1.193-.236 2.738 0 .558-.403.558-1.713 0-2.113-1.771.041-4.188-.416-3.914 1.206zm-13.694 1.508c.541-.486 1.386-.742 1.175-1.811-.502-.415-1.699-.297-2.738-.302-.156 1.226.144 2.103 1.563 2.113zm65.336 1.511c1.827-.499 1.563-1.843.783-3.019h-1.175c-1.095.884-.752 2.338.392 3.019zm-39.907.604c.577-.933 1.675-1.794.783-3.019h-1.955c-.69 1.114-.461 2.84 1.172 3.019zm4.696-1.812c.127.707.471 1.248.783 1.812h1.955c.342-.749.765-2.341 0-3.019-1.808-.29-1.82.805-2.738 1.207zm14.866 1.812h1.958c-.277-1.12.668-1.298.392-2.414-.777-.005-.497-.826-1.567-.605-.962 1.125-1.085 1.233-.783 3.019zm29.343.302c.924-.007 1.153.519 2.35.3.388-.837.967-2.992-.784-3.016-.252 1.113-1.971 1.095-1.566 2.716zm-63.77-1.813v1.511c1.742.985 1.115.256 2.739.905.417-1.258.102-1.333 0-2.717-1.038.004-2.235-.114-2.739.301zm57.51 2.717c2.167-.269 2.028-1.815 1.175-3.018h-1.564c-.532.916-.634 2.49.389 3.018zm11.347-1.206c1.222.771 1.7.745 3.129.905 1.412-2.197-2.781-3.897-3.129-.905zm-79.421-.907c.619 2.214-2.974 3.981.392 4.83.678-.685.945-1.685.783-3.019.819-.175 1.118-.747 2.347-.602v-1.813c-2.016-.446-1.682.917-3.522.604zm36.777 2.718c3.528-3.732-4.671-2.341 0 0zm19.953 0c.942-.123.85.551 1.955.302-.45-.95.615-.734.783-1.208-.695-.469-.688-1.481-1.955-1.509-.347.739-1.175 1.108-.783 2.415zm-60.643.302c.163-.515.507.062 1.175 0 .044-.369.117-.714.783-.604.284-.921-.401-1.101-.391-1.81-2.493-.438-2.808 1.586-1.567 2.414zm8.609-1.511c-.175 1.341.217 2.248 1.955 2.116.946-.528 1.821-2.393.392-3.019-.226.729-1.477.67-2.347.903zm10.564 2.116c1.248-.261 1.211.474 1.956.602.375-.919.789-1.806 1.175-2.718-1.048.003-.851-.953-1.958-.904-.513.912-1.609 1.376-1.173 3.02zm35.993.904c.342-.441.309-1.17 1.563-.905-.175-1.174-.741-2.046-2.738-1.813-1.1 1.494.279 2.427 1.175 2.718zm-25.041-.904c.567.567.876 1.336 2.35 1.206-.42-1.127.971-.86.779-1.811-1.256.267-.534-.994-1.562-.907.109 1.02-1.674-.036-1.567 1.512zm17.216 1.81c.328-.752.513-1.618.392-2.717-3.946-.575-2.892 3.483-.392 2.717zm20.736-.302c.503.415 1.697.3 2.738.302.353-1.918-.865-2.343-1.958-2.415-.15.788-1.255.843-.78 2.113zm-54.383 1.206c.061-.958.889-1.327.783-2.415-.461-.346-1.381-.341-2.346-.3-.324 1.558.678 2.091 1.563 2.715zm8.609-.904c.522.431 2.216.431 2.738 0v-1.511c-1.34-.813-3.313-.098-2.738 1.511zm60.248.605c.598-.961.137-1.329 0-2.415h-1.564c-1.012.999-.149 2.572 1.564 2.415zm-45.775-1.813c.819 1.169-1.636 1.307-.392 1.813.653-.961.131 1.474.784 1.508 2.496.492 1.77-3.238.783-3.623-.066.353-.617.329-1.175.302zm39.516 2.415c.075-.946 1.547-.818 1.175-2.113-.57-.467-2.003-.267-3.13-.302-.806 1.201.217 2.317 1.955 2.415zm-80.984 0c.766-.089.776.408 1.175.604 1.2-.481 2.092-1.201 1.956-2.717-2.272-.244-3.055.663-3.131 2.113zm9.389.604c1.043.496 3.292.15 3.912-1.206.068-1.059-1.379-.951-1.958-1.511-.398 1.1-2.607.806-1.954 2.717zm22.298 0c.507.415 1.701.3 2.739.302.127-1.35.825-2.488-.78-3.018-.719.856-2.464.915-1.959 2.716zm57.514-.303c.023 1.391 1.523 1.644 3.519 1.512.15-1.423-.028-2.592-1.956-2.415-.003.83-.703 1.596-1.563.903zm-85.681 1.209c.504.415 1.701.298 2.739.302.537-.391.389-1.312.391-2.116-2.111-.218-3.55.083-3.13 1.814zm17.216.904c.26-1.152 1.003-.058 2.739-.3.235-.724.559-1.377.391-2.417-2.821-.655-4.225 1.361-3.13 2.717zm25.429-1.205c.139 1.612 3.218 1.664 3.129-.303-.529-.498-.999-1.039-1.959-1.208.419 1.127-1.462.478-1.17 1.511zm8.214-.303c-.283.923.675.887.392 1.81 1.904.263 2.464-.514 2.738-1.508-.8-.29-1.547-.617-2.347-.907-.044.369-.117.716-.783.605zm-39.515 1.81c.38-.56.985 1.233 2.35.907.538-.388.385-1.311.392-2.113-1.238.05-1.309-.803-2.742-.604.109.528-1.102 1.506 0 1.81zm66.902.605c1.379.579 1.885-.298 2.739-.907-1.012-.424-.703-1.871-2.739-1.508v2.415zm-13.693 1.208c1.099-1.096.892-3.074-1.563-3.019-.261 1.609.225 2.641 1.563 3.019zm-43.428-.906c1.032-.093 1.009.629 1.175 1.206 1.502-.435 2.107-1.092 1.566-2.415-1.147.08-1.203-.68-2.349-.601.283.92-.399 1.098-.392 1.81zm48.904-.604c.93.491.624 1.936 2.741 1.511.312-.565.653-1.108.78-1.813-1.261-.592-2.811-.888-3.521.302zm-64.553 2.415c.223-1.263 1.872-2.014.392-3.02-2.091-.688-5.135 3.174-.392 3.02zm26.213-2.113c-.098 1.722 1.735 1.67 2.739 1.81.544-.385.239-1.425.783-1.81-1.267.374-.3-.979-1.562-.605-.336.45-1.262.437-1.96.605zm-5.867.906c.068.953.273 1.798 1.562 1.811 1.207.227.478-1.042 1.96-.604.702-2.732-2.089-2.022-3.522-1.207zm57.117 1.811c.501-.275.624.374 1.959.302.366-1.262.821-1.788.391-3.018-2.053-.267-3.423 1.571-2.35 2.716zm-86.459.302c1.27-.174 1.821.207 2.738.303.249-1.017 1.124-1.551.783-3.02-2.357-.008-3.694.774-3.521 2.717zm18.386.904c.095-.776.675.415 1.567 0 .283-.99 2.244-2.655 0-3.017-1.523.428-3.031 1.98-1.567 3.017zm59.468-1.206c1.436.919 3.177 1.423 3.521-.604-.639-.615-1.416-1.12-2.738-1.207-.226.631-.971.86-.783 1.811zm-67.682.907c1.235.913 1.672.781 3.522.905.061-.961.885-1.328.78-2.415-1.153-.573-2.421.09-3.13-.303-.004.901-1.016 1.027-1.172 1.813zm37.165.602c1.719 1.209 3.868-.28 3.913-2.113-2.179-.344-4.149-.125-3.913 2.113zm8.609-.602c.567.467 2.002.265 3.13.3v-1.81h-3.13v1.51zm-14.085 1.206v-1.811c-.504-.417-1.701-.299-2.738-.302-.886 1.317.263 2.513 2.738 2.113zm-17.216.605c.797-.293.848-1.16.783-2.113-.461-.349-1.381-.342-2.346-.303-.216 1.373.213 2.25 1.563 2.416zm64.556.301c.636-.432 1.528.202 2.739-.604.627-3.344-5.843-1.295-2.739.604zm-87.247.303c.111-.715 1.047.343 1.566.302.975-.658 2.207-1.115 1.955-2.717-2.474-.115-5.406.936-3.521 2.415zm30.517-2.116v1.512c.767-.091.776.408 1.175.604.503-.946.809-.158 1.956-.604.283-.924-.675-.89-.392-1.811-1.039.002-2.236-.115-2.739.299zm49.687 2.116c1.754.897 3.754-.212 3.13-2.116-2.229-.209-3.439.367-3.13 2.116zm-56.338 1.508c.92-.008 1.152.521 2.346.302.154-1.257 1.717-1.76.783-3.019-2.068.112-3.202.951-3.129 2.717zm-7.826.302c.239-.722.564-1.378.392-2.414h-3.13c-.405 1.819 1.338 1.987 2.738 2.414zm66.902-.604c-.083 1.045-.556 1.423.392 2.114.256-.905.834.289 1.562 0 .168-.576.844-.758.783-1.51-.391-.403-.646-.911-1.175-1.208-.092.533-.67.687-1.562.604zm-65.336 2.415c.503.415 1.701.3 2.739.302.725-.649 1.044-1.61 1.176-2.718-2.64-.226-4.268.332-3.915 2.416zm15.649-.904c.743 1.019 1.57 1.511 2.739 1.508.35-.736.913-1.309.783-2.415-.777-.004-.496-.823-1.562-.604-.639.515-1.224 1.069-1.96 1.511zm19.17 2.113c.083-.366.437-.187.783 0 .8-1.155.08-2.31 0-3.624h-1.175c-.712.862-1.499 3.299.392 3.624zm16.432-1.814c.8.091.767.818 1.567.907-.003-.806 1.235-.656 1.172-1.509-.503-.519-.808-1.19-1.955-1.209-.227.632-.972.863-.784 1.811zm5.868 0c1.487 1.178 2.184.887 3.912 0-.633-.617-.566-1.773-1.955-1.81-.807.6-.37.6-1.175 0 .103.884-.884.929-.782 1.81zm-13.691.907c1.255-.266.534.995 1.563.907.663-.698 1.013-1.634.784-3.02-1.971-.211-2.579.627-2.347 2.113zm-34.038.302c1.013.799 1.455.288 2.739.605.15-.897.961-2.189.391-2.718-2.341-.297-3.34.443-3.13 2.113zm14.865-1.81c-.526 3.142 4.875 2.506 3.522 0a5.668 5.668 0 00-3.522 0zm-31.297 2.716h2.346c.128-.709.619-1.134.392-2.115-2.013-.992-3.763.605-2.738 2.115zm10.955-.906c.041.774.219 1.441.78 1.811 1.334.182 2.661-1.128 1.567-2.717-1.49-.244-1.199.883-2.347.906zm63.77 0c.225.531-.472 1.774.391 1.811.392-.931.647.656 1.175.604.35-1.039 2.175-.936 1.955-2.415-1.546.391-.799-.995-2.346-.604.051.543-.389.708-1.175.604zm-55.163 3.321c.916.133 2.534.56 3.522-.302.082-1.171-.414-1.893-1.567-2.113-.386 1.008-2.385.775-1.955 2.415zm45.774 0c1.426.911.811-.226 3.13 0 .124-.71.617-1.135.391-2.115-.503-.415-1.699-.298-2.738-.301-.061.959-.888 1.328-.783 2.416zm-61.815-1.51c-.273 1.521.813 1.989 2.74 1.813-.01-.712.674-.889.392-1.813-.572-.443-2.562-.443-3.132 0zm10.173.604c.283.923-.675.887-.392 1.811 1.111-.053.764 1.021 2.346.604.239-.722.564-1.378.391-2.415-1.231-.339-.885-.027-2.345 0zm11.734 2.718c.097-.779.675.415 1.567 0 .585-.489.585-2.228 0-2.718-2.295-.401-3.014 2.017-1.567 2.718zm45.383 0h2.35c.45-.845.45-1.57 0-2.415-2.175-.17-2.913 1.346-2.35 2.415zm-60.639.906c.232-1.091.659-2.027 0-3.02-4.485-.314-2.118 2.711 0 3.02zm18.778 0h2.74c-.087-.973.693-1.277.391-2.415-2.063-.837-3.63.371-3.131 2.415zm16.824-.605c2.028.256 2.839-.425 3.129-1.511-1.499-1.277-4.497-.206-3.129 1.511zm16.04 1.811c.814-1.261.319-2.963-.783-3.621-1.044 1.273-2.576 3.444.783 3.621zm12.127-.302c.736.767.831.14 1.567.907.806-.486.755-1.631 2.346-1.511.293-2.912-4.528-1.745-3.913.604zm-57.9-.904c.006.798-.217 1.776.783 1.81.4-.833 1.082.14 2.738-.604-.284-.924.674-.887.392-1.811-2.05-.332-2.45-.036-3.913.605zm-5.086 1.508c.239.698 2.048.838 2.739.303-.137-.899-.226-1.838-1.175-2.113-.729.442-1.859.577-1.564 1.81zm27.384 1.207c1.133-.133 1.783-.636 1.959-1.509-.54-.688-.896-1.525-2.739-1.206-.127 1.201-.021 2.228.78 2.715zm-33.643-.905c.609.536 1.098 1.162 2.739.905.663-1.014.235-2.185-1.175-2.415-.907.204-1.643.544-1.564 1.51zm16.82.605c.875.852 1.614-.059 2.35.904.792-.705 1.073-1.987.392-3.019h-1.959c-.063.858-.715 1.26-.783 2.115zm47.34.601c1.739.136 2.13-.771 1.955-2.113-2.196-1.056-3.444 1.084-1.955 2.113zm-43.035.605c.65.506 2.298.24 3.522.302v-1.811c-1.918-.218-3.556-.397-3.522 1.509zm44.99 2.415c.466.348 1.386.34 2.35.302.329-.751.51-1.617.392-2.717-1.267.374-.299-.976-1.566-.605-.286 1.09-1.415 1.526-1.176 3.02zm-62.986.302c1.204-.211.753-.211 1.956 0 .236-.722.564-1.378.392-2.414-1.94-1.349-3.825.729-2.348 2.414zm5.477-2.113c-.01 1.113.175 2.079 1.566 2.113.051-1.253.254-.061.78 0 .239-.722.564-1.378.391-2.414h-1.956c.021.564-.301.638-.781.301zm29.734 2.415c1.204-.211.752-.211 1.956 0 .417-.282.124-1.113 1.175-.906.188-.948-.556-1.179-.783-1.81-2.396-.087-2.832 1.365-2.348 2.716zm10.172.303c-.098-.882.736-1.042 1.173-1.512-.729-.44-.462-1.655-1.956-1.508-1.27.951-1.586 2.85.783 3.02zm13.302.604c.43-.715.484-.211 1.956-.302 3.145-3.16-4.473-3.332-1.956.302zm8.606-1.813c.918.098.38 1.317 1.175 1.512.277-.163 1.834-.215 2.346 0-.324-.856.551-.784.392-1.512-.555-.782-1.265-1.44-3.13-1.206.45.948-.614.732-.783 1.206zm-57.51.906c.934 1.209 1.207 1.064 3.13 1.509-.209-1.066.631-1.322 1.172-1.811-1.258-1.526-3.047-1.056-4.302.302zm5.085 1.811c1.587-.417 1.239.657 2.347.605.044-.369.117-.715.783-.605.316-1.047-.582-1.158-.391-2.113-1.688-.67-3.039.373-2.739 2.113zm34.819.605c1.389.1.965.83 2.35.302-.191-.954.704-1.067.392-2.113-.742-.035-.274-1.001-1.175-.907-.587.858-2.157.954-1.567 2.718zm-46.946 0h2.739c-.045-1.071.283-2.433-1.175-2.415-.322.957-2.134.769-1.564 2.415zm24.646.604c.697-.872 1.99-1.285 1.566-3.019-3.25-.342-3.697 2.333-1.566 3.019zm-32.08-.604c1.268-.172 1.967.09 2.346.604.404-.698 1.347-.976 1.175-2.113-.57-.467-2.003-.267-3.13-.302.009.709-.675.887-.391 1.811zm66.118 3.624c1.592.403 2.401-1.546 1.956-3.624-.739.069-.863-.341-1.563-.303-.587.769-1.377 2.951-.393 3.927zm-21.128-.908c.383-1 .773.337 1.175.302.582-.353.461-1.255 1.562-1.209.192-.95-1.199-.683-.779-1.81h-2.35c-.409.804-.734 2.319.392 2.717zm-9.388-.604c.919.298.649 1.512 1.958 1.512.198-.755 1.038-1.01 1.172-1.814-1.535.18-.458-1.655-2.346-1.206.06.749-.616.933-.784 1.508zm33.646-.906c-.283.924.398 1.1.392 1.813 2.021.351 2.037-.842 2.345-1.813-.829-.774-1.741-.53-2.737 0zm-8.997 1.51c-.083 1.045-.558 1.423.391 2.114.619.221 2.742 0 2.739-1.811-1.337.226-.496-1.228-1.959-.906.067 1.193-.602-.096-1.171.603zm-20.737 4.226c.749.43 1.121 1.148 2.347 1.208 1.204-1.01 1.925-3.496-1.172-3.321.312 1.248-1.424.917-1.175 2.113zm12.518 1.511c.068-.353.619-.329 1.175-.302.236-.725.563-1.378.392-2.414-1.268.374-.3-.979-1.567-.605-.877.734-2.084 2.847 0 3.321z" fill="#fff"/><path d="M243.76 118.34c2.655-.394 3.998.988 3.13 2.415h-2.74c-.176-1.091-1.001-1.462-.39-2.415zm-18.39 3.319c-1.235.415-1.305.066-2.738 0-1.92-2.784 3.901-3.85 2.738 0zm13.694-2.717c1.541-.119 2.541 1.277 3.129 2.717-.758 1.496-3.02.034-3.129.907-1.321-.888-.588-2.593 0-3.624zm-24.645.302h2.738c-.284.924.674.89.392 1.813-.666-.113-.739.233-.783.602-1.542-.116-1.198-.213-2.739-.602-.283-.923.675-.889.392-1.813zm129.496 0c1.521.251 2.174 2.241.782 3.02-.9-.313-1.801-.624-2.346-1.207.216-.838 1.344-.975 1.564-1.813zm4.305 0h1.171c.523.504-.14 1.922 1.176 1.813-1.314 2.044-4.549.015-2.347-1.813zm-127.934 1.813c.688.852 1.331 2.592 0 3.32-1.016-.122-1.18-.9-2.345-.905-.154-1.525-.02-2.832 2.345-2.415zm8.214 0c1.321.491 3.858 1.309 2.349 3.017-2.183.027-3.322-1.509-2.349-3.017zm102.111 0c1.867.162 2.211 1.895 1.175 2.715-1.149-.019-1.455-.688-1.958-1.206-.289-.929 1.077-.58.783-1.509zm4.699 2.411c.777-5.404 5.042 2.185 0 0zm-101.723-1.809c2.125-.127 2.921.766 3.522 1.813-.862 1.241-2.199.914-3.912.3.003-.801-.147-1.723.39-2.113zm79.031 2.718c-2.045.267-3.047-.266-2.739-1.811 1.911-.932 3.26-.538 2.739 1.811zm33.252-1.812c2.725.161 1.974 3.27.391 3.02-1.417-.661-1.276-2.013-.391-3.02zm-123.237.303c2.038.164 2.795 2.152 2.35 3.322-1.717.317-1.287-1.022-2.742-.907-.169-1.039.156-1.693.392-2.415zm-5.085.904c.3 1.14-.478 1.445-.392 2.418-1.541.235-1.197.235-2.738 0-.24-.726-.565-1.379-.392-2.418.844-.255 2.028-.408 3.522 0zm82.55-.3h1.563c.446.661 1.009 1.233.783 2.415-1.849.654-3.346-.781-2.346-2.415zm-9 .3c1.429.224.773 2.38 0 2.718-1.169-.349-2.62.169-2.346-1.811.782-.3 1.585-.59 2.346-.907zm23.474 0c2.082.042 2.034 1.44 1.566 2.718-2.142.212-2.174-1.667-1.566-2.718zm27.779.605c-.025 1.879-.735 3.498-3.13 2.717-.156-1.83.487-3.044 3.13-2.717zm-111.109 3.019c-.666-.111-.739.235-.783.604-1.949-.106-2.977-.926-2.739-2.718 1.869-.425 3.722.13 3.522 2.114zm44.207-2.113c.439 1.444-.964 1.469-1.175 2.415-.452-.254-1.047-.399-1.955-.302-.216-1.678 1.169-2.119 3.13-2.113zm17.606.303c.437-.607 3.025-.347 3.522 0v1.508h-3.129c-.587-.703.13-1.3-.393-1.508zm12.127.301c2.566.369 1.684 2.066.784 3.319-.811-.622-1.582-2.407-.784-3.319zm16.041.602c.438 1.444-.965 1.469-1.175 2.415-1.267-.227-1.696-1.104-1.563-2.415 1.044-.494 1.799-.857 2.738 0zm-103.282-.299h2.345c.346.737.911 1.306.784 2.414-1.054.33-2.005.057-3.129-.302v-2.112zm16.43 0c.691.27 1.139.727 1.956.904v1.511c-.574.7-1.239-.591-1.175.602-1.659.005-2.654-.543-2.738-2.414.954-.635 2.011.477 1.957-.603zm23.863 0c.704-.04.828.369 1.565.3.17 1.238-.361 1.936-.782 2.717-.342-.897-3.184-.311-4.305 0-.904-.568-1.497-1.378-.78-2.414 1.3-.304 4.254.667 4.302-.603zm92.723 0c.579.155.987.445 1.562.602.23.979-.263 1.405-.388 2.113-1.645.366-1.716-.487-2.742-.602-.132-1.212.973-1.468 1.568-2.113zm-7.435.299c2.458.206 1.869 2.201.783 3.019-.744-.127-.707-.863-1.955-.604-.229-.98.264-1.403.389-2.113.484.336.806.263.783-.302zm-44.204 3.323c-3.769-3.693 5.323-2.17 0 0zm28.164-2.719h1.567c.353 1.184.475 1.884-.392 2.718-.314-.209-1.073-.47-1.175 0-1.238-.836-.375-1.679 0-2.718zm4.696 0h1.956c1.121 1.444-.339 2.226-1.175 3.019-1.114-.512-1.514-1.916-.781-3.019zm-54.773.303c.629.97.324 2.002-.39 2.717-.349-.236-.885-.324-1.566-.302-.478-.949-.076-2.543 1.956-2.415zm5.086.906c-.245.717-.526 1.405-1.566 1.509-1.254.265-.534-.995-1.563-.907.089-1.624 2.315-1.875 3.129-.602zm-67.682 2.113c-.312-.565-.656-1.105-.783-1.811.656-.4 1.312-.8 2.738-.604.568.47.523 1.408 1.175 1.811-.907 1.248-1.283.667-3.13.604zM291.881 128h1.567c.161.578.14 1.299 1.172 1.206.293.932-1.347.369-.784 1.511-1.202-.21-.751-.21-1.955 0-.637-.973-.188-1.636 0-2.717zm18.778.302c.243.089 1.505.749 1.566 0 1.586.803.166 2.683-.784 3.32-2.257-.47-1.187-1.929-.782-3.32zm-21.516.302c.557.401.557 1.711 0 2.113-1.545-.235-1.197-.235-2.739 0 .267-.812-.808-.584-1.175-.906-.273-1.622 2.144-1.165 3.914-1.207zm-19.17.602c1.038.005 2.236-.113 2.738.303.211 1.068-.632 1.325-1.175 1.81-1.419-.01-1.719-.888-1.563-2.113zm66.507.605h1.175c.78 1.176 1.044 2.52-.783 3.019-1.144-.681-1.487-2.135-.392-3.019zm-86.068.301c3.228.025 4.897 1.251 7.43 1.811-.948 3.988-5.088-.563-7.822 0-.051-.744-.061-1.454.392-1.811zm45.383.303h1.955c.891 1.226-.208 2.086-.784 3.019-1.634-.179-1.863-1.905-1.171-3.019zm8.604 0c.765.678.342 2.27 0 3.019h-1.955c-.312-.564-.656-1.105-.783-1.812.918-.402.93-1.497 2.738-1.207zm12.911 0c1.07-.221.79.6 1.567.605.276 1.117-.669 1.295-.392 2.414h-1.958c-.303-1.786-.179-1.894.783-3.019zm30.126.605c1.751.024 1.172 2.178.784 3.016-1.197.219-1.426-.307-2.35-.3-.405-1.621 1.314-1.603 1.566-2.716zm-62.598.602c.101 1.384.417 1.459 0 2.717-1.625-.649-.996.081-2.739-.905v-1.511c.505-.415 1.702-.297 2.739-.301zm54.383 0h1.564c.853 1.203.992 2.749-1.175 3.018-1.023-.528-.921-2.102-.389-3.018zm14.865 2.717c-1.429-.16-1.907-.133-3.129-.905.347-2.992 4.541-1.292 3.129.905zm-79.028-2.416v1.813c-1.229-.145-1.528.427-2.347.602.162 1.334-.105 2.334-.783 3.019-3.365-.849.227-2.616-.392-4.83 1.84.313 1.506-1.051 3.522-.604zm33.256 3.318c-4.671-2.341 3.528-3.731 0 0zm20.735-2.411c1.267.027 1.26 1.039 1.955 1.509-.168.474-1.233.258-.783 1.208-1.105.248-1.013-.424-1.955-.302-.392-1.307.436-1.676.783-2.415zm-59.859.302c-.01.709.675.889.391 1.81-.666-.11-.739.235-.783.604-.668.062-1.012-.515-1.175 0-1.241-.827-.926-2.851 1.567-2.414zm9.389 0c1.429.626.554 2.491-.392 3.019-1.737.132-2.13-.774-1.955-2.116.87-.232 2.121-.173 2.347-.903zm9.389 0c1.107-.05.909.907 1.958.904-.386.911-.8 1.798-1.175 2.717-.746-.127-.708-.862-1.956-.601-.435-1.644.661-2.108 1.173-3.02zm-42.253.604c1.395.523 3.878.74 6.259 0-.143.514.305.567.783.602-1.18 2.862-5.281 1.602-5.475 5.132-2.193-.604-6.661-1.024-5.089-3.621 1.258-.187.538 1.085 1.567.303.411-1.33 1.392-1.937 1.955-2.416zm75.9.603c1.997-.233 2.562.639 2.738 1.813-1.254-.266-1.221.464-1.563.904-.897-.291-2.276-1.224-1.175-2.717zm-22.3.301c1.028-.088.306 1.173 1.562.907.192.951-1.199.684-.778 1.811-1.475.13-1.784-.639-2.351-1.206-.107-1.548 1.676-.492 1.567-1.512zm16.04.605c.12 1.098-.064 1.965-.392 2.717-2.499.766-3.553-3.292.392-2.717zm21.125.302c1.092.072 2.311.497 1.958 2.415-1.04-.002-2.235.114-2.738-.302-.475-1.27.63-1.325.78-2.113zm-56.726.604c.965-.041 1.885-.046 2.346.301.106 1.088-.722 1.456-.783 2.414-.885-.624-1.887-1.157-1.563-2.715zm12.91.3v1.511c-.522.431-2.216.431-2.738 0-.575-1.609 1.398-2.324 2.738-1.511zm55.946-.3h1.564c.137 1.086.598 1.455 0 2.416-1.713.157-2.576-1.416-1.564-2.416zm-110.72.303h1.173c.984 2.058 4.49 2.174 4.305 5.132-3.468 1.707-6.153-.605-5.478-5.132zm67.685-.003c.987.385 1.713 4.115-.783 3.623-.653-.034-.131-2.469-.783-1.508-1.245-.506 1.21-.644.391-1.813.557.028 1.108.052 1.175-.302zm36.384.302c1.128.037 2.56-.164 3.13.303.373 1.295-1.099 1.166-1.175 2.113-1.737-.099-2.76-1.214-1.955-2.416zm-75.898.303c.136 1.515-.756 2.235-1.956 2.717-.398-.196-.408-.693-1.175-.604.077-1.45.86-2.357 3.131-2.113zm8.214 0c.578.559 2.024.451 1.958 1.511-.621 1.356-2.869 1.702-3.912 1.206-.654-1.911 1.555-1.617 1.954-2.717zm22.302 0c1.605.53.907 1.668.78 3.018-1.038-.002-2.232.114-2.739-.302-.505-1.8 1.24-1.859 1.959-2.716z" fill="#000"/><path d="M149.083 138.264c2.581 2.798 6.345 5.581 10.172 5.734 1.184-3.324-6.285-2.326-6.26-5.734 1.424-.292 6.267-.886 7.04.302 3.063-.836 9.318.241 16.432.602 6.806.346 9.628-.214 16.432.604 1.265.152 1.948.961 3.13 1.209 1.531.319 3.772-.16 5.479 0 1.449.132 3.075.385 4.692.601 2.754.372 5.483 1.428 8.219 1.814 2.562.358 5.096-.13 7.434.302 2.002.369 3.676 1.076 5.085 1.206 3.488.325 4.867 1.558 7.826 2.718.312.123 3.995.858 5.475 1.509 1.843.813 2.725 2.338 4.692 3.322 3.767 1.879 8.753 2.552 12.131 5.132 1.156 3.204-1.582 5.481-2.738 7.849-1.306.371-2.277.408-3.912 1.509-6.974.578-8.291.508-12.911 1.813-4.897-.042-9.838.567-14.085.904-1.755.14-3.14 1.002-4.697 1.209-3.988.523-9.316.236-14.082.604-3.005.232-7.889.015-12.127.3-14.814 1.005-33.51.725-49.687.907-3.646-1.278-12.357-.742-17.998-1.207-1.379-.116-1.679-.469-4.302 0-15.897-1.44-36.242-2.37-51.254-5.434.497-2.125-1.343-3.781-.391-6.038 1.171-2.771 8.17-8.825 12.522-10.265.322-.107 1.245.126 1.563 0 1.396-.545 2.083-1.579 3.13-1.81 2.207-.486 4.406-.673 5.868-1.81 4.597-.195 8.261-2.481 12.522-3.322 6.485-1.28 13.228-1.745 19.17-2.718.551-.09.468.254 1.563 0 2.315-.535 3.805-.095 5.089-.302.61-.098 1.726-.951 2.346-.907 1.586.119 3.2.182 5.085 0 3.085-.294 6.149-.768 8.218-.602.903.171 2.447.304 3.129-.001z" fill="#fff"/><path d="M353.695 138.567c1.927-.177 2.105.992 1.955 2.415-1.995.132-3.495-.121-3.518-1.512.86.693 1.56-.073 1.563-.903zm-84.114.299c-.003.803.146 1.725-.391 2.116-1.038-.005-2.235.113-2.739-.302-.42-1.732 1.019-2.033 3.13-1.814zm17.215 0c.168 1.039-.156 1.693-.392 2.417-1.734.241-2.477-.852-2.738.3-1.094-1.356.31-3.372 3.13-2.717zm23.472 0c.958.169 1.429.71 1.958 1.208.09 1.968-2.99 1.915-3.129.303-.293-1.032 1.588-.383 1.171-1.511zm7.825.604c.8.29 1.547.617 2.347.907-.274.994-.834 1.77-2.738 1.508.283-.924-.675-.887-.392-1.811.666.111.739-.235.783-.604zm-40.298.604c1.433-.198 1.503.654 2.742.605-.007.801.147 1.725-.392 2.113-1.365.327-1.97-1.467-2.35-.907-1.102-.305.109-1.282 0-1.811zm66.902.001c2.036-.364 1.727 1.084 2.739 1.508-.853.61-1.359 1.486-2.739.907v-2.415zm-15.251.605c2.455-.054 2.662 1.923 1.564 3.019-1.338-.378-1.825-1.41-1.564-3.019zm-41.478.302c1.146-.079 1.202.68 2.349.601.541 1.322-.064 1.98-1.566 2.415-.166-.577-.144-1.299-1.175-1.206-.007-.712.675-.89.392-1.81zm52.033.903c-.127.705-.468 1.248-.78 1.813-2.116.425-1.811-1.019-2.741-1.511.71-1.189 2.26-.893 3.521-.302zm-67.681-.302c1.48 1.006-.168 1.757-.392 3.02-4.744.154-1.7-3.708.392-3.02zm27.778.302c1.264-.374.297.979 1.563.605-.545.385-.239 1.425-.784 1.81-1.002-.14-2.835-.089-2.738-1.81.699-.168 1.625-.155 1.959-.605zm-4.303 2.718c-1.482-.438-.753.83-1.96.604-1.289-.013-1.494-.858-1.562-1.811 1.433-.815 4.224-1.525 3.522 1.207zm55.945-2.113c.43 1.23-.025 1.757-.391 3.019-1.333.071-1.457-.578-1.959-.303-1.073-1.144.297-2.982 2.35-2.716zm-85.289.302c.341 1.469-.534 2.003-.783 3.02-.916-.096-1.467-.478-2.738-.303-.172-1.944 1.165-2.725 3.521-2.717zm16.433.604c2.244.361.283 2.027 0 3.017-.892.415-1.472-.776-1.567 0-1.464-1.037.044-2.589 1.567-3.017zm58.684 0c1.321.087 2.098.592 2.738 1.207-.344 2.026-2.085 1.523-3.521.604-.188-.951.557-1.18.783-1.811zm-67.293.905c.71.393 1.977-.27 3.13.302.105 1.087-.719 1.454-.78 2.415-1.85-.124-2.286.009-3.522-.905.156-.785 1.168-.911 1.172-1.812zm39.903.306c-.046 1.832-2.194 3.322-3.914 2.113-.235-2.238 1.735-2.457 3.914-2.113zm4.699-.004h3.13v1.81c-1.129-.034-2.563.167-3.13-.3v-1.51zm-16.823.604c1.037.003 2.234-.116 2.738.302v1.811c-2.475.4-3.624-.796-2.738-2.113zm-16.041.302c.965-.039 1.885-.046 2.346.303.065.952.014 1.82-.783 2.113-1.35-.166-1.779-1.043-1.563-2.416zm68.856 2.113c-1.21.805-2.101.172-2.738.604-3.103-1.899 3.367-3.948 2.738-.604zm-86.463-1.508c.253 1.601-.98 2.058-1.955 2.717-.519.042-1.455-1.016-1.566-.302-1.885-1.479 1.047-2.53 3.521-2.415zm29.734 0c-.283.921.675.887.392 1.811-1.146.446-1.452-.342-1.956.604-.398-.196-.408-.695-1.175-.604v-1.512c.504-.414 1.701-.297 2.739-.299zm50.08.299c.623 1.904-1.375 3.012-3.13 2.116-.31-1.749.9-2.325 3.13-2.116zm-56.339.907c.934 1.259-.629 1.761-.783 3.019-1.194.219-1.426-.309-2.346-.302-.074-1.767 1.06-2.605 3.129-2.717zm-13.694.605h3.13c.172 1.036-.153 1.692-.392 2.414-1.4-.427-3.143-.595-2.738-2.414zm71.203 1.206c.529.297.784.805 1.175 1.208.061.752-.615.934-.783 1.509-.728.29-1.305-.905-1.562 0-.948-.69-.476-1.068-.392-2.113.891.083 1.469-.071 1.562-.604zm-62.986.604c-.13 1.108-.449 2.069-1.175 2.718-1.037-.004-2.236.113-2.739-.302-.352-2.085 1.276-2.643 3.914-2.416zm13.694 0c1.067-.219.786.6 1.563.604.13 1.106-.433 1.678-.784 2.415-1.168.003-1.996-.488-2.738-1.508.737-.443 1.322-.996 1.959-1.511zm16.821 0h1.175c.08 1.314.8 2.469 0 3.624-.346-.187-.7-.367-.783 0-1.892-.325-1.105-2.762-.392-3.624zm17.607 0c1.146.019 1.451.69 1.955 1.209.064.852-1.175.702-1.172 1.509-.8-.089-.767-.816-1.567-.907-.188-.949.557-1.18.784-1.811zm5.867 0c.806.6.368.6 1.175 0 1.389.037 1.321 1.193 1.955 1.81-1.728.887-2.425 1.178-3.912 0-.103-.882.884-.926.782-1.81zm-12.127.604c.229 1.386-.121 2.322-.784 3.02-1.029.089-.308-1.172-1.563-.907-.232-1.486.376-2.324 2.347-2.113zm-33.255.302c.57.528-.242 1.821-.391 2.718-1.283-.317-1.726.194-2.739-.605-.21-1.67.789-2.41 3.13-2.113zm15.261.301c1.354 2.506-4.046 3.142-3.522 0a5.668 5.668 0 013.522 0zm-32.085.603c.227.98-.263 1.406-.392 2.116h-2.346c-1.025-1.511.725-3.108 2.738-2.116zm10.564.303c1.094 1.588-.233 2.899-1.567 2.717-.561-.371-.739-1.037-.78-1.811 1.148-.023.857-1.15 2.347-.906zm62.598.302c1.547-.391.8.994 2.346.604.22 1.479-1.604 1.376-1.955 2.415-.53.052-.783-1.535-1.175-.604-.862-.037-.164-1.28-.391-1.811.786.104 1.226-.061 1.175-.604z" fill="#000"/><path d="M270.756 158.188c-4.505-.228-10.714-.285-13.694-3.623 4.08-1.592 9.642-.921 14.083 2.414-.303.27-.42.683-.389 1.209z" fill="#fff"/><path d="M296.965 153.66c1.153.22 1.649.942 1.567 2.113-.988.863-2.605.436-3.522.302-.429-1.64 1.57-1.407 1.955-2.415zm44.603 0c1.038.003 2.235-.115 2.738.301.226.979-.266 1.405-.391 2.115-2.319-.226-1.704.911-3.13 0-.105-1.089.722-1.458.783-2.416zm-59.468.905c.284.924-.4 1.101-.391 1.813-1.927.176-3.013-.292-2.74-1.813.571-.443 2.561-.443 3.131 0zm9.39.604c.171 1.037-.154 1.693-.392 2.415-1.582.417-1.235-.657-2.346-.605-.284-.923.674-.887.392-1.81 1.459-.027 1.113-.339 2.346 0zm10.954 0c.585.489.585 2.228 0 2.718-.892.415-1.47-.779-1.567 0-1.447-.701-.728-3.119 1.567-2.718zm46.166.302c.45.845.45 1.57 0 2.415h-2.35c-.563-1.068.175-2.584 2.35-2.415zm-62.989.302c.659.993.232 1.929 0 3.02-2.118-.309-4.485-3.334 0-3.02zm21.908.605c.302 1.138-.478 1.442-.392 2.415h-2.739c-.498-2.044 1.069-3.252 3.131-2.415zm16.828.301c-.29 1.085-1.101 1.765-3.129 1.511-1.369-1.719 1.629-2.789 3.129-1.511zm12.123-.301c1.102.658 1.597 2.361.783 3.621-3.359-.177-1.827-2.349-.783-3.621z" fill="#000"/><path d="M64.577 156.978c1.146 3.636-13.63 8.039-11.347 1.209 3.942-.686 6.68-.882 11.347-1.209z" fill="#fff"/><path d="M353.303 159.092c-1.591-.12-1.542 1.025-2.346 1.512-.736-.766-.831-.14-1.567-.907-.615-2.349 4.206-3.516 3.913-.605zm-57.901-.904c.283.924-.675.887-.392 1.811-1.656.744-2.337-.229-2.738.604-1-.034-.777-1.013-.784-1.81 1.465-.641 1.865-.937 3.914-.605zm-7.434.303c.948.275 1.038 1.214 1.175 2.113-.691.536-2.5.396-2.739-.303-.295-1.233.835-1.368 1.564-1.81zm25.04.302c1.843-.32 2.197.518 2.739 1.206-.175.872-.825 1.376-1.959 1.509-.801-.487-.907-1.514-.78-2.715zm-31.299.3c1.409.231 1.836 1.401 1.175 2.415-1.64.258-2.13-.369-2.739-.905-.079-.966.657-1.306 1.564-1.51zm16.039 0h1.959c.681 1.032.4 2.314-.392 3.019-.736-.963-1.475-.052-2.35-.904.068-.855.72-1.257.783-2.115zm48.512.604c.175 1.341-.215 2.249-1.955 2.113-1.489-1.03-.241-3.17 1.955-2.113zm-41.468 1.209v1.811c-1.223-.062-2.872.203-3.522-.303-.034-1.906 1.604-1.727 3.522-1.508zm42.644.903c1.268-.371.3.978 1.566.605.118 1.1-.063 1.966-.392 2.717-.964.039-1.884.047-2.35-.302-.239-1.494.89-1.931 1.176-3.02zm-61.815.908c.172 1.036-.156 1.692-.392 2.414-1.203-.211-.752-.211-1.956 0-1.476-1.685.409-3.763 2.348-2.414zm3.913 0h1.957c.171 1.036-.154 1.692-.392 2.414-.526-.061-.729-1.253-.78 0-1.391-.034-1.576-1-1.566-2.113.478.337.8.263.781-.301zm31.298 0c.226.63.971.862.783 1.809-1.05-.205-.758.625-1.175.907-1.204-.212-.752-.212-1.956 0-.483-1.351-.047-2.803 2.348-2.716zm7.042 0c1.494-.148 1.226 1.068 1.956 1.508-.437.47-1.27.629-1.173 1.511-2.369-.17-2.053-2.069-.783-3.019zm16.041 3.321c-1.472.09-1.526-.413-1.956.302-2.517-3.634 5.101-3.462 1.956-.302zm7.434-2.717c1.866-.233 2.575.424 3.13 1.206.159.728-.716.656-.392 1.512-.512-.215-2.069-.163-2.345 0-.797-.195-.258-1.413-1.175-1.512.167-.474 1.231-.258.782-1.206zm-53.992 1.81c-.54.489-1.381.745-1.172 1.811-1.923-.445-2.196-.3-3.13-1.509 1.255-1.358 3.044-1.828 4.302-.302zm3.52 0c-.19.954.709 1.066.392 2.113-.666-.11-.739.236-.783.604-1.108.053-.761-1.021-2.347-.604-.299-1.74 1.052-2.783 2.738-2.113zm33.649 0c.9-.093.433.872 1.175.907.312 1.046-.582 1.158-.392 2.113-1.385.527-.961-.202-2.35-.303-.59-1.763.98-1.859 1.567-2.717zm-46.947.299c1.459-.018 1.13 1.344 1.175 2.414h-2.739c-.569-1.645 1.244-1.456 1.564-2.414zm24.651 0c.424 1.734-.868 2.147-1.565 3.019-2.131-.685-1.684-3.361 1.565-3.019zm-33.26.608c1.128.034 2.56-.165 3.13.302.172 1.137-.77 1.415-1.175 2.113-.379-.514-1.079-.776-2.346-.605-.284-.923.4-1.101.391-1.81zm66.119 1.508c.7-.039.824.372 1.563.302.445 2.079-.363 4.028-1.956 3.625-.983-.976-.193-3.158.393-3.927zm-21.911.303h2.35c-.42 1.127.971.86.779 1.81-1.101-.047-.98.856-1.562 1.209-.402.034-.793-1.302-1.175-.302-1.127-.399-.802-1.914-.392-2.717zm-8.214.604c1.888-.449.811 1.385 2.346 1.206-.133.804-.974 1.059-1.172 1.814-1.309 0-1.038-1.214-1.958-1.512.169-.575.845-.759.784-1.508zm35.601.602c-.308.97-.324 2.164-2.345 1.813.006-.713-.675-.889-.392-1.813.995-.53 1.906-.775 2.737 0zm-10.564.906c1.462-.322.622 1.133 1.959.906.003 1.811-2.12 2.032-2.739 1.811-.948-.691-.474-1.069-.391-2.114.569-.698 1.238.591 1.171-.603zm-20.732 2.718c3.097-.175 2.375 2.311 1.172 3.321-1.226-.061-1.598-.779-2.347-1.208-.25-1.197 1.486-.866 1.175-2.113zm11.342.301c1.268-.374.3.979 1.567.605.171 1.036-.156 1.689-.392 2.414-.557-.026-1.108-.051-1.175.302-2.084-.473-.877-2.586 0-3.321zM45.017 185.961c2.435.293 3.705 2.03 2.346 3.622-1.165-1.499-1.2-.568-2.738-2.114-.16-.726.713-.655.392-1.508zm-6.652 1.207c1.731-.13 2.477.504 2.738 1.511-.834-.143-.744.43-.783.905-.977-.038-1.223-.576-1.563.302-.638-.516-1.184-1.098-1.175-2.113.664.109.739-.236.783-.605zm17.215 2.416c.9.284 1.26.019 2.738.302-.605 2.18.79 2.811 2.738 3.02-.595 1.368-2.741 1.694-4.695 1.208.563-2.147-1.119-2.561-.781-4.53zm204.612.301c.914.101 1.615.364 2.347.605.314 1.046-.583 1.159-.392 2.113-2.082.098-2.802-1.433-1.955-2.718zm-210.483.605c.452.844.452 1.57 0 2.415-1.535-.067-2.302-.323-2.347-2.114.463-.348 1.382-.341 2.347-.301zm220.655.302c1.754.617.596.054 2.739.604.417 1.128-.971.861-.783 1.811h-1.956c.284-.823-.779-.607-.783-1.209-.286-.823.777-.607.783-1.206zm-4.696 1.206c.507.877.507 2.143 0 3.02h-1.955c-.061-.961-.888-1.328-.783-2.415 1.561.299 1.178-.902 2.738-.605zm-231.998.303c1.107-.249 1.015.424 1.958.302.388 1.307-.44 1.676-.784 2.415-.614-.131-.334-.949-1.566-.604-.243-1.17-.322-1.243.391-2.113zm226.13.906c.15 1.879-.984 2.793-3.129 2.113-.602-2.045 1.188-2.92 3.129-2.113zm-216.742.605c1.586-.418 1.24.654 2.35.602-.022 1.09-.977 1.461-1.175 2.414-.891-.219-.117-1.72-1.566-1.509.33-.351.519-.807.391-1.507zm228.478.301c.045.769.72 1.056 1.175 1.509-1.037.206-.438 1.675-1.955 1.509-.471-.845-1.213-1.479-1.175-2.718.455-.253 1.048-.398 1.955-.3zm-219.869.301c1.818-.399 1.31 1.002 3.13.604.023 1.39.937 2.095 2.739 2.113.283.924-.675.889-.392 1.812-2.123.229-2.693-.739-2.738-2.115h-2.739c-.452-.844-.452-1.568 0-2.414zm10.561.604c-.191.953.707 1.065.392 2.113-.363-.184-1.443-.703-1.172.302-1.575-.113-.961-.194-2.35-.604v-1.509c.57-.468 2.006-.265 3.13-.302zm3.912 0c.316.208 1.074.469 1.175 0 1.318.369 2.13 1.975.784 2.717-1.404-.325-2.332-1.02-1.959-2.717zm188.184 1.208c.246.167 1.18 1.227 1.563.302 1.506.673.341 2.077 0 3.017-2.48.304-3.32-.656-3.13-2.415 1.255.266 1.224-.464 1.567-.904zm-190.139.904c1.169.005 1.331.786 2.347.907.086 2.01-1.363 1.324-2.347 2.113-1.212-.801-.65-2.137 0-3.02zm-12.125 4.229c-.698-.571-1.291-1.222-1.176-2.415 1.394-.496 3.098.095 2.738 1.81-.694.069-1.958-.304-1.563.605zm208.132-2.116c.249 1.201-.496 1.631-1.175 2.116-3.349-.31-1.499-4.101 1.175-2.116zm-201.874-.3c.98.651 2.416.951 3.13 1.81.08.969-1.71.491-1.567 1.509-1.258-.614-3.527-2.019-1.563-3.319z" fill="#000"/><path d="M358 7.246c4.151 4.072 2.808 12.793 2.738 18.414-.401 31.59-.841 61.135-.783 91.775.019 10.497-.764 24.628-.784 35.924-.01 7.459 1.961 15.585-3.521 19.32-1.481.87-3.277 1.496-4.302 2.717-1.461.027-1.114.339-2.347 0-1.689 1.281-3.594 2.116-5.479 3.02-1.776.85-4.145 1.233-5.868 2.113-3.611 1.842-6.378 5.044-9.781 7.245-.977.631-2.661 1.366-3.912 2.113-3.554 2.127-6.53 3.345-10.953 4.528-1.267.338-2.281 1.42-3.521 1.812-5.062 1.595-11.023 1.558-15.652 3.32-4.043 1.543-6.24 4.294-10.561 4.83-.626.623-1.814.816-2.348 1.511-4.655 1.15-9.515 2.959-14.866 4.528-4.668 1.369-6.874 1.94-12.911 3.019-8.199 1.465-16.54 4.02-25.038 5.133-2.907.377-6.132-.084-9.001.302-3.939.529-5.824 1.423-11.735 1.811-5.263.346-11.357.919-16.04 1.509-1.133.142-2.053.859-3.129.906-3.168.138-6.286-.677-9.389-.302-2.722.33-6.766.612-10.173.605-2.804-.008-5.584.329-7.825.302-1.888-.024-5.925-1.855-6.651.302-1.012-1.408-1.853.219-2.347-.907-9.694.32-29.415-.34-35.602-1.81-9.424-.388-11.828-.749-21.128-1.813-2.152-.246-4.224-1.222-6.259-1.508-10.93-1.539-21.16-2.981-30.905-5.435-4.15-1.045-8.991-2.759-12.52-3.923-6.062-2.006-14.082-4.931-20.736-9.059-4.687-1.15-10.844-1.854-16.04-4.225-2.758-1.256-8.262-3.744-8.607-6.64-.484-4.038 6.107-6.727 8.606-7.849 2.623-1.179 8.116-3.006 12.128-4.528 1.426.093 2.547-.049 3.521-.302.624-.424 1-1.042 1.175-1.813 7.116.797 12.214-.871 16.041-1.81 3.499.456 3.585-.351 6.26-1.207-.874-7.196.782-14.577 7.433-17.509.92-.408 3.085-.639 4.694-1.208 2.4-.851 4.355-2.076 7.434-2.415 1.99-.219 3.918.282 5.868 0 2.076-.303 3.763-1.185 5.867-1.207 2.362-1.193 5.282-1.757 8.218-2.717 2.38-.781 5.492-1.862 8.605-2.718 6.24-1.715 18.661-4.299 25.429-5.132 1.472.035 1.324.55 1.958.601 11.364-1.834 14.532-2.399 26.604-2.414.631-4.585 2.235-5.297 5.869-5.431-.146 2.301-3.395 2.211-2.739 5.131 13.952.529 21.284.372 39.515 1.811 1.414.111 4.802 1.263 5.085 1.207 2.914-.56 8.297-11.832 8.605-12.68 3.083-8.368 4.406-18.31 4.306-29.282-.213-22.762 3.14-49.997 1.566-70.037-.373-4.712-2.84-14.153.389-17.51 1.96-2.036 6.329-2.036 7.435-3.623 11.525-1.743 23.347-4.02 35.992-4.528 1.939-.078 7.094-.8 9.781-.906 3.225-.126 6.486.204 9.389 0 3.489-.241 5.667-.256 9.781-.3 2.209-.025 9.252.032 14.868.3.838.041 2.149-.637 3.13-.602 2.916.095 10.815 1.23 14.473.602 5.008 1.425 19.015 1.604 25.429 2.717 1.792.312 3.659 1.506 5.48 1.813 3.751.626 6.145 1.483 9.781 2.11zm-8.609-.301c-4.802-1.27-9.717-1.565-11.345-1.509 0-1.532-1.368-.13-1.958-1.209-14.095-.506-22.452-1.725-33.252-2.415-2.21.83-11.411.774-12.911 0-.089.233-.013.594-.392.605-4.123-.35-9.599.223-11.737.601-1.096.197-2.079-.624-2.739-.601-3.559.112-7.561.395-10.952.601-7.593.465-12.532.843-21.912 1.512-6.494 2.926-19.459 1.783-19.561 10.566 1.567 1.73 3.559 1.742 7.042 2.113 2.123.227 6.135 1.182 8.998 1.509 11.905 1.357 21.08 1.934 30.909 2.113 8.103.15 15.747-.327 20.345.604 3.929-1.134 13.009-.525 19.17-.904.617-.03.305-.771 1.172-.604 15.557-1.15 32.984-1.666 46.166-6.643 3.012-3.047-3.707-5.457-7.043-6.34zm-6.259 12.981c-3.987.658-9.45 1.82-12.52 1.81-.751-.002-1.636-.62-2.345-.604-2.847.064-5.77 1.034-8.606 1.21-12.599.771-25.694 1.072-40.298.903-7.039-.196-15.05-.449-26.212-1.508-.185-.018-1.977.604-1.955.604-1.595.025-4.432-.965-7.043-1.209-9.405-.874-19.131-1.459-27.387-4.528-.458.797-.487 1.051-1.175.302-.048 3.864-1.595 5.18.391 7.85 1.321 1.774 5.703 2.581 7.435 5.132 12.43-1.548 24.586 4.643 33.256 12.076.327.35.516.807.392 1.508 9.487 6.97 13.582 18.099 17.995 28.982-.064 1.258-.133 2.518.784 3.02 2.916-1.091 4.221-.052 7.434.302 11.125 1.216 27.378 1.56 40.686.602 1.716-1.388 7.103-1.845 9.781-1.81 3.308-.7 8.147-1.93 12.518-3.02 3.13-.779 8.212-1.003 10.172-2.416 2.445-1.76 1.567-5.129 1.567-8.151 0-13.146 2.1-32.454-2.739-39.849-1.159-.803-1.149 1.123-3.13.605.284-.823-.78-.607-.783-1.207.729-1.152 2.015-.503 1.955-1.813-.35-.341-.943.074-1.172-.904-3.338.55-5.678 1.562-9.001 2.113zM242.977 147.925c7.26.737 9.614-7.065 15.649-9.058 6.893-9.23 13.646-22.423 16.432-36.224 1.089-5.393.687-16.75-.783-19.32-1.977-15.883-8.492-28.265-17.603-38.642-1.652-.637-3.205-1.351-3.522-3.02-2.388-.974-4.27-2.34-5.868-3.922-3.239-.474-5.967-3.418-10.173-4.23-1.498-.286-3.368-.984-4.695-1.206-2.544-.425-8.294.232-11.735.605-1.885.204-3.642.71-5.088.602-1.886 3.904-1.574 8.181-.78 12.378 4.183-1.512 11.083-2.94 16.432-1.51 1.289.347 2.527 2.37 4.692 1.51 1.793 1.135 3.283 2.5 5.869 3.02 5.387 3.498 9.497 9.377 13.694 15.093 2.738 3.727 5.638 8.516 6.259 12.981 3.714 26.614-6.406 51.103-30.123 57.358-4.45.396-5.849.665-8.609.907-1.55-.86-4.087-.641-5.476-.907-1.964 1.906-5.167 2.858-5.088 6.341 1.846.683 5.9.639 7.825.904 1.058-.788-1.46-1.913 0-3.016 1.672 1.341 2.381-.445 3.914-.302.578 1.162 2.489 1.297 2.738 2.718-1.398.634-2.308-.676-2.738.904 1.356 1.415 5.981 1.764 7.822 1.813.553-2.09-1.672-3.302 0-4.53-.402 1.014 1.219.472 1.958.604.684 1.874 1.222 2.866 1.172 5.736 3.626.202 5.03 2.128 7.825 2.413zm-12.518-58.567c2.419-3.432 6.259-4.367 12.127-5.434 3.149-9.183-3.885-13.829-4.693-21.734-5.469-.788-9.839-4.805-16.04-2.718-2.054 2.241-5.18 3.653-7.826 5.435-.837 8.377-.783 17.976-.783 26.867 0 3.281-1.598 6.672.392 9.66 4.86-5.307 8.166-10.167 16.823-12.076zM358 92.982c.037-4.928 1.362-12.06.391-16.001-.777-3.147-4.861-2.917-7.434-3.923-4.302 1.087-11.255 2.267-16.432 4.225-8.53 1.212-18.141 2.17-27.387 3.02-10.778.99-21.074.12-29.344 6.338.586 11.052-1.117 18.794-2.738 28.377 2.101.797 2.942 2.56 4.696 3.624 5.794.501 8.105.374 12.91 1.509 1.869-1.341 5.34-.349 7.043 0 4.571-.973 10.567-.774 15.649-.302.27-.597 1.043-.805 1.955-.907 5.773.232 18.558-1.536 28.17-3.621 10.303-2.238 14.592-6.061 10.953-14.19-1.111.193-2.025.793-3.914-.3V99.32h4.697c.442-1.766.766-3.876.785-6.338zm-139.669 37.131c2.092.196 1.268 2.646 3.91 2.415-.086-.983-1.2-3.207.392-3.623.741-.067.862.34 1.567.302-.004 1.549.573 1.98 0 3.322 1.228.341 1.031-.086 1.955.302.885-1.13.834-2.98 2.738-3.322.682.784.551 2.194 1.958 2.415 2.376.224 1.735-1.881 3.13-2.415.513 1.167 2.927 1.025 3.913.302 1.064-2.977-.204-4.412 1.563-6.339.698.168 1.624.156 1.958.602.675 1.426-.242 1.845-.391 3.322 2.038-.037 2.515-1.277 3.522-2.113-.211-.945-1.615-.971-1.176-2.414.771.09.777-.409 1.176-.605.9.41 1.741.868 3.13.907 1.846-.985 1.467-3.919 1.562-5.434.761.201 1.738-.361 2.738-.302 4.812-5.428-.758-12.861-1.955-19.018-1.457-.025-1.264-.456-1.958.3-.711-.758-.948-1.882-3.13-1.51-.811.922.452 2.33 0 3.924.749.128 1.684.111 1.566.907-.484 3.349-.522 4.368.392 7.849-.538-.012-.86.143-1.175.303-1.436.1-2.005-.465-2.346-1.209.506-3.283.338-7.758-1.956-11.471-1.894 1.634-2.543-3.105-5.087-2.113-.302.67-.227 1.636-1.175 1.81-3.02-.105-1.723-4.453-5.085-4.829-2.288-.255-5.218 1.968-6.651 3.624.851.24 2.045.197 3.129.904.357.775.634 1.713-.391 2.113-2.459.187-3-1.105-5.476-.904-2.213.909-3.064 2.87-4.305 4.528.314 1.063 2.388.774 2.345 2.113-.171 1.52-1.412.643-1.955 1.508-.438-.666-1.722-.683-2.738-.904-1.837 2.617-1.06 8.479-1.567 13.885-.42 4.506.342 7.487.392 11.473 1.738.671 2.856.293 3.912 1.206.796-.393.54-1.597 1.569-1.811zm124.408-12.377c-.674.182.032 1.433-.78 1.508-5.619-1.147-11.984 1.285-17.215 1.512-.807.928.605 2.446-1.175 3.017-.808-.18-2.569.374-2.738-.301-.472-1.269.634-1.324.783-2.115-13.544.277-30.4.409-42.252 1.512-.083 1.068 1.834.594 1.564 1.81-.921.095-.231 1.432-1.564 1.208-.054-1.255-.258-.061-.783 0-.948-1.235.392-1.702.392-3.018-1.337-.457-5.212.382-7.435 0-3.272 5.925-7.866 10.833-10.56 17.206.069.853 1.86.376 1.563 1.509-.049.868-.49 1.435-1.956 1.208-.522.907-.397 2.31-.392 3.621 1.309-.002 1.618.767 2.347 1.209-.663.293-1.007.836-.783 1.811 3.441.732 5.368 1.671 8.217 2.717-1.331-1.729 1.038-4.18 2.738-2.717.835 1.187-1.317 2.304-2.346 3.02 1.86 1.986 5.524 2.579 5.085 6.34 1.497.148 1.248-1.049 3.13-.604-.739 2.582 1.217 3.088 1.175 5.133-1.019.548-1.181-.134-2.349.302-.538-.39-.386-1.312-.39-2.116-1.512.339-.82 1.476-.783 2.417 1.86-.331 1.596.98 1.564 2.114h-2.739c.252 1.115-.507 3.006.392 3.621 1.634-1.494 6.177 1.845 10.172-.302.972 1.262 2.465 2.124 5.085 2.115.255-1.204-1.035-1.216-.78-2.418 1.04-.1 1.369-.752 2.347-.904.55.079.445.66.782.904.39 1.509-1.216 1.479-1.175 2.718 2.815 1.805 2.325-1.322 5.869-1.207-.124 1.204-.024 2.231.783 2.718 1.904.16 1.83-1.204 3.129-1.511.924.496 1.222 1.474 1.956 2.115.485-.734.796-1.601 2.349-1.511-.124 2.51 2.729 2.722 4.693 3.624.843-.659 1.347-1.577 1.959-2.415-.29 1.026 1.439.496 1.563 1.206.334.963-.342 1.148-.783 1.512 4.524 1.181 8.313 5.141 12.521 3.923.682-.681.198-2.259 1.172-2.717 1.252.343.602 2.154 1.959 2.414 5.17-1.206 12.608-2.417 15.257-5.736.528.096.749.429 1.563.302 5.989-3.195 11.598-5.073 10.955-13.583-1.255-.612-1.71.258-2.739-.302-.451-1.86.624-2.537 2.347-2.717.188-2.938.112-4.25 0-7.245-1.104-.304-.982-.443-1.564-.604 1.682-4.614 3.175-11.21.392-16.001 1.279-.42 1.545-1.623 1.562-3.016-1.356-.217-1.843-.185-2.738-1.209.583-.256.568-.973.783-1.509.812.169 1.265.863 1.955.303v-6.946c-2.25-.124-.19 3.074-2.738 2.718-.146-.691-1.567-.403-1.955-.905-.212-1.773 2.442-1.335 2.347-3.019-3.784-1.488-7.474-4.06-11.738-2.719zm-196.786 20.528c-2.069-.166-5.133.308-8.217.602-1.886.182-3.5.119-5.086 0-.62-.044-1.734.809-2.346.907-1.284.206-2.773-.233-5.089.302-1.095.254-1.012-.091-1.563 0-5.941.973-12.684 1.438-19.17 2.717-4.261.841-7.925 3.128-12.522 3.322-1.462 1.138-3.661 1.325-5.867 1.811-1.048.232-1.735 1.265-3.13 1.81-.32.126-1.242-.107-1.564 0-4.353 1.44-11.35 7.493-12.522 10.265-.952 2.258.888 3.913.391 6.038 15.012 3.063 35.357 3.995 51.254 5.434 2.623-.469 2.923-.116 4.302 0 5.641.465 14.352-.071 17.998 1.207 16.177-.183 34.873.097 49.687-.907 4.238-.285 9.122-.068 12.127-.3 4.766-.369 10.093-.082 14.082-.604 1.557-.207 2.942-1.069 4.697-1.209 4.248-.337 9.189-.945 14.085-.904 4.62-1.305 5.937-1.236 12.911-1.814 1.636-1.1 2.606-1.137 3.912-1.508 1.156-2.368 3.894-4.645 2.738-7.849-3.378-2.58-8.364-3.253-12.13-5.132-1.968-.983-2.849-2.509-4.693-3.322-1.48-.652-5.163-1.386-5.475-1.51-2.959-1.158-4.338-2.393-7.826-2.717-1.407-.13-3.083-.838-5.085-1.206-2.337-.432-4.871.056-7.434-.303-2.736-.386-5.464-1.442-8.219-1.813-1.617-.216-3.244-.469-4.692-.601-1.707-.161-3.948.318-5.479 0-1.182-.248-1.866-1.057-3.13-1.209-6.803-.819-9.625-.259-16.432-.604-7.114-.362-13.369-1.438-16.432-.602-.773-1.19-5.616-.594-7.04-.303-.025 3.409 7.444 2.411 6.26 5.735-3.827-.153-7.59-2.935-10.172-5.735-.681.308-2.225.175-3.129.002zm125.191 18.716c-4.441-3.336-10.003-4.007-14.083-2.414 2.98 3.338 9.189 3.395 13.694 3.623-.03-.526.087-.939.389-1.209zM53.23 158.189c-2.283 6.83 12.493 2.427 11.347-1.209-4.667.327-7.405.523-11.347 1.209zm2.35 16.905c.2 4.422 7.198 7.982 10.56 10.567 6.792 5.217 15.957 9.605 23.084 12.075-.02-.565.302-.64.783-.302 1.182-.211 1.821 1.147 1.955 1.209 4.03 1.867 10.656 2.786 14.868 4.528.955.395 2.257.058 3.13.302 1.236.344 1.847 1.251 3.13 1.509 1.706.344 3.722-.128 5.477.302.974.238 1.643 1.039 2.738 1.208 2.315.357 5.976.003 7.043 0 16.3-.051 37.276 1.479 59.077-.302 5.087.643 12.114.3 16.039-.907 2.025-.622 3.057-.312 5.089-.604 4.247-.613 9.455-2.621 10.56-2.718 1.455-.123 6.034-1.401 7.434-1.206 1.745-2.201 8.189-2.302 10.956-2.718 12.518-6.458 32.644-15.394 34.426-31.095.236-2.068-.29-4.262-.783-5.434-11.318 6.727-24.952 8.313-39.511 9.965-9.576 1.084-17.514 1.15-29.734 2.113-25.159 1.98-45.831 1.346-69.248.302-3.207-.145-6.464-.071-9.781-.302-14.188-.988-27.887-.801-42.253-3.624-2.738.681-12.194-2.235-15.257-2.414-2.23 1.136-10.011 2.553-9.782 7.546zm210.871 23.548c.377 1.017-1.2 2.061 0 2.717 1.003-.346 2.554-.221 3.913 0 .408-1.235-.299-1.769.78-2.717 3.525 1.304 5.833 2.329 7.435.602-.589-.809-1.723-.275-1.955-1.811.341-1.407 2.381-.833 3.522 0 .371 1.295-1.099 1.167-1.175 2.113 3.755.264 5.53-1.226 8.605-.602.064-.356-.067-.857.392-.907.236.755 3.881-.192 4.696-.906 8.653-.809 19.902-4.11 28.167-7.85.991-.744 2.216-2.577 3.13-2.415-.055-1.026.305-3.284-.784-1.81.051-2.653-4.266-1.939-4.301-4.528-2.354.526-3.249-1.982-4.305-.605v-1.206c-7.887-1.147-15.976-3.19-24.646-1.812-6.125-2.049-11.659-.082-19.17.604-3.601 3.966-7.208 7.923-11.738 11.17v1.811c-1.99 1.077-4.457-.438-5.476 1.509.859.445 1.58.997 1.956 1.813-.851.248-.87 1.137-1.956 1.206-.431-.774-1.506-1.051-2.346-1.509.016.646-1.731 1.442-.783 1.811.249-.737 1.826-.047 1.955.302.293 1.533-.39 2.315-1.564 2.718-.366-.725-1.573-.8-1.175-2.113-1.213.069-1.22 1.068-1.566 1.81 3.063.018-.146 3.027 2.35 3.322.42-.884 1.08-1.583 2.738-1.511.448 1.064.859 2.154 1.955 2.718 3.522-.553 7.61-.204 10.564-1.811-.907-.096-1.502.049-1.955.302-1.143-.943-.322-2.425-.783-3.321-1.232-.347-.952.474-1.567.604-.041-.57-1.292-.211-1.172-.906-.184-1.248.923-1.501 1.564-2.113.544.889 2.264.871 1.565 2.717 1.182.092 3.042-.338 3.13.604zm-220.264 2.113c4.71.828 15.311 2.611 21.52 1.811.258-.806.163-1.887.784-2.416.242 1.581.525-.636 1.563-.302 1.105.354 1.299 1.415 1.567 2.414 1.916-.129 5.693-.997 7.039-1.508.42-1.631-1.169-1.715-2.347-2.113.092 1.277-.812 1.786-1.955 2.113-.16-.582-1.52-.238-1.175-1.209-.331-1.26 1.06-1.194 1.566-1.81-2.951-1.982-5.587-2.339-7.825-4.83-1.096.16-2.035.443-3.13.604-1.216-.976-.458-2.116 0-3.322-2.961-1.562-4.98-3.569-7.042-5.132-1.837-1.39-2.764-3.892-4.693-4.829-.786-.381-4.76-1.153-7.434-1.51-2.487-.334-4.86-.024-6.26 0-3.534.057-8.09-.785-11.738-.906-7.861 1.346-16.18 3.456-23.083 8.453v3.32c4.38 3.763 11.605 5.336 17.998 7.547 9.965 1.187 17.415 3.76 24.645 3.625zm210.092 3.621c-.522.032-2.359.728-2.738.604-2.464-.784-5.746.624-8.998.907-4.317.374-10.579.345-12.91.302-12.886 1.655-24.439 1.587-35.605 2.113-4.751.224-9.957.425-16.432.302-4.121.653-6.101.587-10.561 0-10.793 1.066-40.186.229-54.383-.604-.047-.003-.032.616-.388.604-4.645-.162-15.598-1.224-20.736-1.512-5.047.022-8.985-.201-13.693-.602.217 0 .446-.245 0-.302-9.03.861-18.797-3.363-25.037 0 2.546 4.172 10.806 3.938 14.865 6.943 3.181.551 4.451-.084 5.868 1.206 13.07 1.742 23.585 3.186 35.214 5.133 6.033-.922 11.201 1.712 18.386.604 14.149 2.24 32.459.889 48.12 1.208 4.339-.68 10.715-.784 17.606-1.511 5.967-.628 12.099-1.044 16.433-.904 5.037-2.206 11.727-1.764 18.778-2.718 9.994-1.911 18.352-4.039 27.388-4.829 3.464-2.46 10.071-2.494 10.561-7.245-3.422-.908-7.838.072-11.738.301z" fill="#000"/><path d="M355.262 52.53c.478.003-.103 1.704-.392 2.112-1.751.445-1.203-.884-2.738-.604v-1.811c1.496-.428 3.1.592 3.13.302z" fill="#000"/><path d="M213.635 101.433c-1.99-2.987-.391-6.378-.391-9.66 0-8.89-.054-18.49.783-26.866 2.647-1.781 5.772-3.194 7.826-5.435 6.201-2.089 10.57 1.928 16.04 2.717.808 7.906 7.842 12.552 4.693 21.735-5.869 1.066-9.708 2.002-12.127 5.434-8.657 1.909-11.963 6.768-16.824 12.075z" fill="#fff"/><path d="M216.764 131.923c-1.056-.914-2.174-.535-3.912-1.206-.051-3.987-.812-6.967-.392-11.473.507-5.407-.269-11.269 1.567-13.885 1.016.221 2.299.238 2.739.904.541-.865 1.782.013 1.955-1.509.042-1.338-2.032-1.049-2.346-2.113 1.241-1.658 2.092-3.619 4.305-4.527 2.476-.202 3.018 1.09 5.476.904 1.025-.4.748-1.339.391-2.113-1.084-.708-2.279-.663-3.129-.904 1.433-1.656 4.362-3.88 6.651-3.624 3.362.375 2.064 4.724 5.085 4.83.948-.175.873-1.14 1.175-1.811 2.544-.993 3.193 3.746 5.087 2.113 2.293 3.712 2.462 8.188 1.957 11.47.34.745.909 1.31 2.345 1.209.316-.16.637-.315 1.175-.302-.914-3.481-.876-4.501-.391-7.849.117-.797-.818-.78-1.567-.907.452-1.595-.811-3.002 0-3.924 2.182-.373 2.421.752 3.13 1.509.694-.755.5-.325 1.958-.3 1.197 6.157 6.766 13.591 1.955 19.018-.999-.059-1.976.504-2.738.302-.095 1.516.284 4.449-1.562 5.435-1.389-.04-2.23-.497-3.13-.907-.398.195-.404.695-1.175.604-.44 1.444.963 1.47 1.175 2.415-1.006.835-1.484 2.076-3.522 2.113.149-1.476 1.066-1.896.392-3.322-.335-.447-1.261-.435-1.959-.602-1.767 1.927-.499 3.362-1.563 6.339-.987.722-3.4.865-3.912-.302-1.396.533-.755 2.639-3.131 2.415-1.406-.221-1.275-1.632-1.958-2.415-1.904.341-1.853 2.191-2.738 3.322-.924-.388-.726.04-1.955-.303.573-1.341-.004-1.771 0-3.322-.705.04-.826-.368-1.567-.302-1.591.417-.478 2.641-.392 3.624-2.643.231-1.819-2.219-3.91-2.416-1.031.215-.775 1.419-1.569 1.812zm1.177-2.112c-.654-.403-.609-1.341-1.175-1.811-1.427-.196-2.083.204-2.739.604.127.706.471 1.246.783 1.811 1.846.063 2.222.644 3.131-.604zm29.733-28.981c.535 2.212.786 3.489.78 6.339 1.04-.003 2.235.112 2.742-.303.906-2.004-1.064-2.014-1.959-3.319 2.034-.697 1.831-3.193-1.563-2.717zm-16.432-3.32c1.436-1.177-.395-3.56-1.958-3.323-1.971.981-1.064 3.693 1.958 3.322zm1.172 2.414c-.175-1.46-2.015-1.167-3.522-.907-.28.924.4 1.101.392 1.813 1.266-.172 1.967.091 2.348.602-.069-.757.877-.731 1.173-1.206 1.028 1.182 2.702.717 3.912.604.319-1.655-1.129-1.945-2.346-2.415-.257.807-1.44.905-1.957 1.509zm5.479.906c1.388-.469.235 1.025 1.172.905.503-.415.808-.082 1.959 0 2.055-2.505-3.452-4.363-3.131-.905zm-18.39 4.529c.395.599.678 1.29 1.566 1.508.065-.351.619-.327 1.173-.302 1.165-2.354-1.697-3.186 0-5.434-.838-.661-1.217-1.675-2.346-2.113-.935 2.548 1.855 4.029-.393 6.341zm3.913-3.321c.478 1.206 4.263 1.923 3.912-.303-.423-.881-1.863-.978-3.521-.904.086.57-.442.665-.391 1.207zm10.564 2.716h2.739v-1.811c-2.09-1.333-4.748.138-2.739 1.811zm-4.696.605c1.623-.347 1.524.634 2.738.604.331-.754.512-1.619.392-2.717-1.777-1.317-3.724-.091-3.13 2.113zm8.997-2.416c-.427 1.939 1.318 2.201 3.132 2.416 1.102-1.705-1.033-3.104-3.132-2.416zm-14.474 2.718c.3 1.138-.478 1.442-.392 2.415 1.452.61 1.55.395 3.129.904.42-1.221.42-2.098 0-3.319-1.558-.167-1.177-.167-2.737 0zm14.086 2.112c.328 1.184 2.066 1.747 3.521 1.206.191-2.453-2.474-3.502-3.521-1.206zm-22.692-.301c-.385 1.402.507 1.822.78 2.717-.738.437-1.731.673-1.562 1.811.098 1.569 2.126 1.369 3.129 1.511-.143-1.199.356-2.894-.392-3.624 2.372-.184.899-3.182-.392-3.322-.34.442-.312 1.169-1.563.907zm19.17 2.414c.332-.45 1.258-.437 1.956-.604v-1.811c-.756-.425-1.573-.799-2.74-.907-.196.754-.738 1.241-1.175 1.814.138-1.214-1.836-.799-2.346-1.512-1.366.936-1.347 4.454 1.956 3.624.714-.644.353-1.646.783-1.814.267.601 1.191.694 1.566 1.21zm-14.868 5.133h2.35c-1.908-2.877 2.623-5.926-1.567-7.547-1.286 2.419-1.152 5.213-.783 7.547zm31.692-2.718c1.467-1.589-.886-2.427-1.96-3.019-.88 1.439-1.145 3.28 1.96 3.019zm-17.608 6.943c1.233.607 2.176.646 3.13.302-1.264-2.71 1.036-4.554-1.566-6.339.523-.304 1.458-.284 1.566-.906-.624-.725-1.446-1.3-1.955-2.114-1.432.104-1.792 1.034-2.35 1.811 1.335.079 2.073.617 2.35 1.511-1.232-.044-1.347.774-1.566 1.509.188 1.171 1.881 1.363 2.346 1.509-.732.074.223.498-.391.604-1.026-.869-1.961.884-1.564 2.113zm5.086-7.245c1.388-.064.773 1.418 2.35 1.209 2.059-1.053.312-2.604-1.567-3.019-.226.631-.972.862-.783 1.81zm-15.65 1.511c1.096.779 2.691.58 3.914 0 .188-1.152-.112-1.928-.784-2.415-1.228-.152-1.527.657-2.346 0-.121.912-1.21 1.079-.784 2.415zm20.346 2.715c1.457.195 1.919 1.336 3.522.605-.453-2.03-.622-3.083-.783-4.831-.504-.415-1.701-.297-2.739-.302-.749 1.69.841 2.452 0 4.528zm-11.347-.905c.656-.501.311-1.773.392-2.716-1.878.444-1.635-.752-3.129-.605-.915 2.316.969 3.253 2.737 3.321zm16.823.303c1.184.091 1.398.934 3.129.602.227-1.884-.465-3.061-2.739-3.017-.234.722-.562 1.375-.39 2.415zm-34.426 1.508c1.19-.013 1.521.639 2.345.907.851-.72 1.033-2.29.392-3.322-2.508-.427-3.022.689-2.737 2.415zm27.384.907c.239-.723.563-1.378.391-2.415-1.225-.061-1.321-.993-2.738-.906-1.14 1.407-1.098 3.859 2.347 3.321zm-19.17-.907c1.494-.145.8 1.398 2.738.907-.564-1.143 1.077-.58.784-1.511-1.033.093-1.009-.629-1.172-1.207h-1.96c.285.924-.673.887-.39 1.811zm5.867 1.811c1.216-.029 1.871.371 2.742.604.044-.369.115-.715.78-.604.331-1.261-.759-1.425-.78-2.415-.965.041-1.885.046-2.35-.303-.541.851-1.036 1.738-.392 2.718zm-9.781.302c.877.855 1.615-.055 2.35.907.65-1.259.756-3.757-1.566-3.624-.273.894-1.165 1.314-.784 2.717zm25.433 1.511h2.739c.869-1.427-.475-2.809-3.13-2.415-.612.953.213 1.324.391 2.415zm-21.519.904c1.433.066 1.502.415 2.738 0 1.162-3.85-4.659-2.784-2.738 0zm16.431.906c.109-.872 2.372.589 3.129-.907-.588-1.44-1.589-2.835-3.129-2.717-.588 1.032-1.321 2.737 0 3.624zm-25.038-1.508c1.541.389 1.197.486 2.738.602.045-.369.118-.715.784-.602.283-.923-.675-.889-.392-1.813h-2.738c.284.924-.674.89-.392 1.813zm3.915 2.415c1.165.005 1.329.783 2.345.905 1.331-.728.688-2.468 0-3.32-2.365-.417-2.499.89-2.345 2.415zm12.908.602c1.509-1.708-1.028-2.526-2.349-3.017-.973 1.508.166 3.044 2.349 3.017zm2.348-.302c1.713.615 3.05.942 3.912-.3-.601-1.047-1.397-1.94-3.522-1.813-.537.39-.387 1.312-.39 2.113zm-10.956 1.511c1.454-.116 1.025 1.224 2.742.906.445-1.169-.312-3.157-2.35-3.322-.236.723-.561 1.377-.392 2.416zm-8.215-1.511c-.171 1.039.153 1.692.392 2.418 1.541.235 1.197.235 2.738 0-.086-.973.69-1.278.392-2.418-1.494-.408-2.678-.255-3.522 0zm13.694 1.511c-.239 1.791.79 2.611 2.739 2.717.044-.369.117-.715.783-.604.2-1.984-1.653-2.539-3.522-2.113zm-9.779 3.019c1.124.359 2.075.631 3.128.302.128-1.108-.437-1.677-.783-2.414h-2.345v2.112zm14.473-1.51c.083 1.871 1.079 2.419 2.738 2.414-.064-1.193.602.099 1.175-.602v-1.511c-.815-.176-1.265-.633-1.956-.904.054 1.081-1.003-.031-1.957.603zM357.216 99.32h-4.697v1.511c1.889 1.093 2.803.494 3.914.3 3.639 8.129-.65 11.952-10.953 14.19-9.612 2.086-22.397 3.853-28.17 3.622-.911.1-1.684.309-1.955.906-5.082-.472-11.078-.67-15.649.303-1.703-.35-5.174-1.342-7.043 0-4.805-1.136-7.116-1.009-12.91-1.51-1.754-1.064-2.595-2.827-4.696-3.623 1.621-9.584 3.324-17.325 2.738-28.378 8.27-6.218 18.565-5.348 29.344-6.338 9.245-.85 18.857-1.808 27.387-3.02 5.177-1.957 12.13-3.137 16.432-4.225 2.573 1.008 6.657.776 7.434 3.923.972 3.941-.353 11.072-.391 16.001a27.015 27.015 0 01-.785 6.338zm-42.644-13.886c.508 4.538 5.69 2.973 8.217 1.509-.999-2.58-5.752-2.17-8.217-1.509zm-11.735.602c-.232 1.086.451 1.462.78 2.116 1.556-.194 2.113.383 2.742.904.181-.688 2.502.135 3.909-.904v-1.814c-3.878-.795-3.553.081-6.651-.602.022.563-.299.64-.78.3zm-19.563 2.418c-.088.565-1.009 2 0 2.415.253-.388 4.506.897 5.477 1.206 1.881-1.48 3.088-1.629 6.651-1.81 1.594 1.14 2.738 3.78 4.305 3.923 2.299-2.13-1.779-3.606-1.959-5.733-5.911-1.888-9.07 2.143-14.474-.001zm21.125 2.415c1.592 1.71-1.104 4.42 1.175 6.338 2.725-.26 3.441.295 5.085-1.206.019-2.006-1.878-3.535-3.522-3.322.045-.772 1.313-.6 2.349-.605.628-.97.322-1.999-.391-2.717-2.349-.1-4.575-.108-4.696 1.512zm13.694 2.112c-1.248-.18-1.21.565-1.955 0-1.204 1.684.421 2.846 1.955 3.32.172-.64 1.416-1.054 1.955-.3-.061-.855 1.179-.705 1.175-1.511-.703.039-.917-.3-.783-.907-1.331.531-1.455-.096-1.956-.904 1.357-.263 2.672-.555 2.739-1.81-.478-.035-.927-.091-.783-.605h-5.085c-.093 1.68 1.121 2.356 2.738 2.717zm22.692 2.415v1.811c4.534 2.3 11.959-2.012 15.257-.906 1.911-1.59.512-2.639-1.563-3.32-3.061.802-7.483 3.256-13.694 2.415zm-51.642.605c-2.716-.158-3.487-2.086-5.869-1.209-.091 3.056.456 4.41 3.13 4.83 3.054-2.14 8.201-.524 11.735-3.02-1.795-3.377-5.242-.388-8.996-.601zm16.432 4.225c-.544.386-.239 1.425-.783 1.811.955.166 1.429.708 1.955 1.209-1.382 1.791-.058 4.781-1.172 6.942.306.067.455.253.392.605 2.095.569 4.473.353 6.259.602.672-.487.971-1.263.783-2.416-2.095.016-3.807-.722-4.305-.302 1.443-1.041 6.072-1.378 3.13-3.923-.529.583-2.062-.602-1.955-1.508.347-.639 1.191-.894 1.172-1.814-.585-.451-.7-1.27-1.563-1.508-1.033.919-2.232.334-3.913.302zm-11.347 12.68c1.821-.229 4.699.267 6.259-.302 4.385-1.6-.258-5.335-2.739-6.039-4.524-1.285-9.412 2.299-13.694 3.322-1.187 2.258.653 2.437 1.567 3.624 2.704.122 5.563-.224 8.607-.605zm-.393-7.547c1.436.528 4.327-.907 5.872.904-.068-.836.598-1.034 1.172-.602.267-3.614-5.439-1.398-5.084-5.434-4.755.015-8.555 2.312-12.128 1.206-2.669 2.875 2.951 2.934 4.692 4.228 1.822-.678 4.302.226 5.476.602v-.904zm47.733-4.228c.344 2.408 8.599 3.317 9.389.907-1.328-1.587-5.913-.529-7.042-1.509.369 1.09-1.541.42-2.347.602zm-24.258 2.717c-.038 1.439 1.658 1.537 1.959 2.717h-1.566v1.813c.614.028 1.356-.041 1.175.602-1.013.551-1.455 1.721-.392 2.416 1.79.196 4.808 1.874 5.868-1.207-1.453.015-1.699-.901-1.955-1.811h1.955c.682-2.036-1.859-1.584-2.738-2.415.612-.837 2.108-.993 2.347-2.115-1.218-.892-5.433-.892-6.653 0zm24.649 2.415c.127.708.469 1.248.78 1.813 1.605-.031 3.209-.059 4.305.302.77-.63.3-2.004 0-2.717-1.688.462-3.775.639-5.085.602z" fill="#fff"/><path d="M296.185 109.282c-.458.049-.331.55-.392.906-2.19-.078-3.304.671-5.088.907-2.143-1.327 1.799-1.641 2.349-2.717.86.759 3.362.548 4.302.904.287 1.324-.777-.244-.78.604-.381-.007-.305-.368-.391-.604z" fill="#fff"/><path d="M285.621 113.51c-.914-1.186-2.754-1.366-1.567-3.624 4.282-1.022 9.17-4.607 13.694-3.322 2.48.705 7.124 4.44 2.739 6.039-1.56.569-4.439.073-6.259.302-3.044.382-5.903.728-8.607.605zm10.956-3.624c.003-.848 1.067.72.78-.604-.94-.356-3.441-.145-4.302-.904-.55 1.076-4.492 1.39-2.349 2.717 1.783-.236 2.897-.985 5.089-.907.06-.356-.068-.857.391-.906.085.236.009.597.391.604z" fill="#000"/><path d="M65.36 167.546c3.063.179 12.52 3.096 15.258 2.415 14.366 2.823 28.065 2.636 42.253 3.624 3.317.231 6.574.157 9.78.302 23.418 1.045 44.09 1.678 69.249-.302 12.22-.963 20.157-1.03 29.734-2.113 14.559-1.652 28.192-3.239 39.511-9.965.493 1.171 1.019 3.365.783 5.434-1.782 15.701-21.908 24.636-34.426 31.095-2.767.415-9.211.516-10.956 2.717-1.4-.194-5.978 1.085-7.434 1.207-1.105.095-6.313 2.105-10.561 2.717-2.031.293-3.063-.018-5.088.605-3.925 1.206-10.952 1.549-16.04.906-21.799 1.781-42.775.251-59.077.303-1.066.003-4.727.356-7.042 0-1.095-.169-1.764-.97-2.738-1.208-1.754-.431-3.77.041-5.477-.303-1.284-.258-1.894-1.163-3.13-1.508-.873-.244-2.174.093-3.13-.302-4.212-1.742-10.837-2.662-14.868-4.529-.134-.061-.774-1.42-1.955-1.209-.481-.337-.802-.263-.784.303-7.125-2.47-16.291-6.858-23.083-12.076-3.362-2.584-10.36-6.144-10.56-10.567-.228-4.991 7.553-6.409 9.781-7.546z" fill="#fff"/><path d="M263.321 198.037c.698-1.845-1.021-1.828-1.565-2.718-.641.612-1.748.865-1.564 2.113-.12.695 1.13.338 1.172.907.615-.131.335-.951 1.567-.604.461.896-.36 2.377.783 3.321.451-.253 1.047-.398 1.955-.303-2.954 1.607-7.042 1.259-10.564 1.811-1.095-.562-1.506-1.654-1.955-2.717-1.659-.072-2.318.626-2.738 1.511-2.496-.296.713-3.304-2.35-3.322.346-.742.353-1.742 1.566-1.811-.398 1.312.808 1.388 1.175 2.114 1.175-.404 1.857-1.185 1.564-2.718-.128-.349-1.706-1.039-1.955-.303-.949-.368.798-1.164.783-1.81.84.456 1.915.734 2.346 1.509 1.085-.069 1.105-.959 1.956-1.206-.376-.816-1.096-1.369-1.956-1.814 1.019-1.945 3.486-.432 5.476-1.508v-1.811c4.531-3.248 8.137-7.205 11.738-11.17 7.511-.687 13.045-2.654 19.17-.605 8.67-1.378 16.759.665 24.645 1.813v1.206c1.057-1.378 1.952 1.13 4.305.605.035 2.589 4.353 1.873 4.302 4.528 1.089-1.475.729.783.784 1.81-.914-.162-2.14 1.67-3.131 2.415-8.264 3.739-19.513 7.041-28.167 7.849-.814.715-4.46 1.661-4.695.907-.459.049-.329.551-.392.907-3.075-.624-4.852.865-8.606.601.077-.945 1.547-.817 1.175-2.113-1.139-.833-3.181-1.406-3.521 0 .232 1.536 1.365 1.003 1.955 1.811-1.601 1.727-3.91.703-7.435-.602-1.079.948-.372 1.482-.78 2.718-1.36-.221-2.91-.346-3.913 0-1.2-.657.376-1.7 0-2.718-.088-.94-1.948-.51-3.13-.603zm-1.174-5.434c-.191-.953.707-1.067.392-2.113-.732-.241-1.433-.504-2.347-.605-.847 1.285-.127 2.816 1.955 2.718zm7.434-.605c.004.602 1.067.386.783 1.209h1.956c-.188-.95 1.2-.683.783-1.811-2.143-.55-.985.013-2.739-.604-.006.599-1.069.383-.783 1.206zm-6.65.605c-.105 1.087.722 1.454.783 2.415h1.955c.507-.877.507-2.143 0-3.02-1.561-.297-1.178.904-2.738.605zm-6.26 2.716c2.145.681 3.279-.233 3.129-2.113-1.941-.806-3.731.069-3.129 2.113zm12.91-.906c-.038 1.238.704 1.872 1.175 2.718 1.516.166.918-1.302 1.955-1.509-.454-.452-1.129-.739-1.175-1.509-.907-.098-1.5.047-1.955.3zm-16.824 2.717c-.19 1.76.65 2.72 3.13 2.414.341-.94 1.506-2.343 0-3.016-.383.924-1.317-.135-1.563-.302-.343.44-.312 1.17-1.567.904zm6.26 4.229c.677-.484 1.423-.914 1.175-2.116-2.674-1.985-4.524 1.806-1.175 2.116zM21.542 197.13c-6.393-2.211-13.618-3.784-17.998-7.547v-3.319c6.903-4.998 15.222-7.108 23.083-8.454 3.648.121 8.205.963 11.738.907 1.4-.024 3.773-.334 6.26 0 2.674.356 6.647 1.127 7.434 1.509 1.93.938 2.856 3.439 4.692 4.83 2.064 1.562 4.082 3.569 7.043 5.132-.458 1.206-1.216 2.346 0 3.321 1.095-.161 2.034-.444 3.13-.603 2.238 2.49 4.873 2.847 7.825 4.829-.506.617-1.897.551-1.566 1.81-.344.971 1.015.627 1.175 1.209 1.143-.327 2.047-.836 1.955-2.113 1.178.398 2.766.482 2.346 2.113-1.346.512-5.122 1.378-7.039 1.509-.267-1-.46-2.061-1.566-2.415-1.038-.334-1.321 1.882-1.564.303-.62.528-.525 1.609-.783 2.415-6.208.801-16.81-.983-21.52-1.811-7.23.134-14.68-2.438-24.645-3.625zm32.08 3.624c.359-1.715-1.344-2.307-2.74-1.811-.114 1.194.479 1.845 1.176 2.416-.394-.909.87-.536 1.563-.605zm-8.997-13.284c1.538 1.546 1.572.615 2.738 2.114 1.36-1.592.09-3.329-2.346-3.622.32.852-.552.781-.392 1.508zm-7.043.302c-.01 1.015.537 1.597 1.175 2.113.34-.877.586-.339 1.563-.302.039-.475-.05-1.047.783-.905-.26-1.007-1.007-1.641-2.738-1.511-.044.37-.119.715-.783.605zm18.778 6.341c1.955.487 4.1.161 4.695-1.208-1.948-.209-3.342-.84-2.738-3.02-1.477-.282-1.837-.018-2.739-.302-.336 1.971 1.346 2.384.782 4.53zm-8.998-3.321c.044 1.791.812 2.046 2.347 2.114.452-.845.452-1.571 0-2.415-.965-.041-1.884-.048-2.347.301zm-14.084 3.622c1.232-.345.951.473 1.566.604.344-.739 1.172-1.108.784-2.415-.943.123-.851-.551-1.959-.302-.713.869-.634.943-.391 2.113zm9.388.905c1.449-.211.675 1.29 1.566 1.509.197-.953 1.153-1.324 1.175-2.414-1.11.052-.763-1.02-2.35-.602.129.7-.06 1.156-.391 1.507zm9.001 1.509h2.739c.045 1.375.614 2.343 2.738 2.115-.283-.923.675-.888.392-1.812-1.803-.018-2.717-.723-2.739-2.113-1.82.398-1.312-1.003-3.13-.604-.452.846-.452 1.57 0 2.414zm7.431-1.509v1.509c1.388.41.773.492 2.35.604-.271-1.004.809-.485 1.172-.302.315-1.047-.583-1.159-.392-2.113-1.124.038-2.56-.165-3.13.302zm9 2.416c1.347-.742.535-2.349-.783-2.718-.101.469-.86.208-1.175 0-.373 1.698.555 2.393 1.959 2.718zm-3.913 2.415c.984-.789 2.433-.103 2.347-2.113-1.016-.121-1.178-.902-2.347-.907-.65.883-1.212 2.219 0 3.02zm-4.304 2.112c-.144-1.017 1.646-.54 1.567-1.509-.714-.859-2.149-1.159-3.13-1.81-1.964 1.3.305 2.705 1.563 3.319zm208.134 1.813c-.49 4.751-7.097 4.786-10.561 7.245-9.036.791-17.394 2.918-27.388 4.83-7.051.953-13.741.511-18.778 2.717-4.334-.14-10.466.275-16.433.904-6.892.728-13.267.831-17.606 1.512-15.661-.32-33.972 1.032-48.12-1.209-7.187 1.109-12.354-1.525-18.387-.604-11.627-1.946-22.144-3.391-35.214-5.133-1.416-1.29-2.687-.655-5.867-1.206-4.06-3.004-12.318-2.77-14.866-6.943 6.24-3.363 16.009.861 25.037 0 .446.057.217.303 0 .303 4.71.401 8.648.624 13.693.601 5.14.288 16.092 1.349 20.737 1.512.356.012.34-.607.388-.604 14.196.833 43.589 1.671 54.383.604 4.461.588 6.441.654 10.56 0 6.476.123 11.682-.079 16.433-.302 11.166-.525 22.719-.457 35.604-2.113 2.33.045 8.594.072 12.911-.302 3.251-.283 6.533-1.69 8.997-.907.38.124 2.216-.572 2.739-.603 3.902-.231 8.318-1.21 11.738-.302zm-32.864-58.566c.051-2.869-.487-3.861-1.172-5.736-.739-.132-2.36.41-1.958-.604-1.672 1.227.553 2.439 0 4.53-1.841-.049-6.467-.398-7.823-1.813.431-1.58 1.34-.27 2.739-.904-.249-1.421-2.159-1.555-2.739-2.718-1.532-.142-2.241 1.644-3.913.302-1.46 1.103 1.058 2.228 0 3.016-1.925-.265-5.979-.221-7.826-.904-.078-3.483 3.124-4.434 5.089-6.341 1.388.266 3.925.047 5.475.907 2.761-.241 4.159-.511 8.609-.907 23.718-6.255 33.838-30.744 30.124-57.357-.622-4.467-3.522-9.255-6.259-12.982-4.197-5.716-8.307-11.596-13.694-15.094-2.586-.518-4.076-1.884-5.869-3.02-2.165.86-3.403-1.162-4.692-1.508-5.35-1.432-12.248-.002-16.433 1.508-.793-4.196-1.105-8.473.78-12.377 1.447.108 3.203-.398 5.089-.602 3.441-.373 9.192-1.03 11.734-.605 1.328.222 3.198.92 4.696 1.207 4.207.81 6.935 3.754 10.172 4.229 1.598 1.582 3.481 2.947 5.869 3.922.315 1.669 1.869 2.384 3.522 3.02 9.111 10.377 15.626 22.76 17.603 38.642 1.47 2.57 1.872 13.927.783 19.32-2.786 13.802-9.538 26.995-16.432 36.224-6.034 1.993-8.389 9.796-15.65 9.058-2.793-.282-4.197-2.209-7.824-2.413zm-16.04-104.151c.213-.944.933-1.494 1.959-1.81 1.009.1 2.343 1.41 3.913.604-.838-2.074-2.203-3.737-4.697-4.529-.532 1.608-2.543 3.665-1.175 5.735zm9.389-.604c3.633-.32 6.088.291 7.434-1.51.017.996.663 1.504.392 2.718.601.644 2.279.454 2.738 1.21-.433-1.082 2.522.879 3.522-.303.092-2.587-1.536-2.024-3.522-2.415.192-.951-1.2-.686-.783-1.814-3.312.474-5.731-1.435-10.561-1.81-.614 1.45-.473 3.133.78 3.924zm15.652 4.53c.725.747 1.919 1.136 1.956 2.416 3.381-.18 4.855 1.955 5.475-1.21-2.359-.694-4.4-1.636-6.651-2.415.449.95-.615.735-.78 1.21zm8.215 7.547c.77-.09.776.408 1.175.602.564-.061.873-.548 2.346-.602.058-.75.073-1.466-.783-1.51-.064 1.44-.716-.49-.78-.905h-1.567c-.605.437-.344 1.545-.391 2.415zm1.566 73.961c-.716 1.036-.124 1.847.78 2.414 1.121-.311 3.964-.897 4.305 0 .421-.781.952-1.478.783-2.717-.738.069-.862-.339-1.566-.3-.049 1.271-3.003.3-4.302.603zm-3.913 5.131c2.735-.563 6.874 3.988 7.822 0-2.533-.56-4.202-1.786-7.43-1.811-.453.357-.443 1.066-.392 1.811zm-6.26 4.229c-1.029.783-.309-.489-1.567-.303-1.572 2.597 2.895 3.017 5.089 3.621.194-3.53 4.295-2.27 5.475-5.132-.478-.035-.926-.089-.783-.602-2.381.74-4.864.523-6.259 0-.563.479-1.544 1.086-1.955 2.416zm-.391 5.431c.185-2.957-3.321-3.073-4.305-5.132h-1.173c-.673 4.528 2.011 6.84 5.478 5.132z" fill="#fff"/><path d="M323.962 103.848c-.239 1.122-1.735 1.278-2.347 2.115.878.831 3.42.378 2.738 2.415h-1.955c.255.91.5 1.826 1.955 1.811-1.06 3.08-4.078 1.403-5.868 1.207-1.063-.695-.621-1.865.392-2.416.181-.643-.561-.574-1.175-.602v-1.813h1.566c-.3-1.179-1.997-1.278-1.959-2.717 1.221-.892 5.436-.892 6.653 0zm-14.474-3.924c.863.238.978 1.057 1.563 1.508.02.919-.824 1.174-1.172 1.814-.108.906 1.426 2.091 1.955 1.508 2.942 2.545-1.687 2.882-3.13 3.923.497-.42 2.21.318 4.305.302.188 1.153-.111 1.929-.783 2.416-1.786-.249-4.165-.032-6.259-.602.064-.352-.085-.538-.392-.605 1.114-2.161-.21-5.152 1.172-6.942-.526-.501-.999-1.042-1.955-1.209.544-.386.239-1.425.783-1.811 1.681.032 2.88.617 3.913-.302zm-92.724 6.641c1.291.14 2.764 3.138.392 3.322.748.729.249 2.425.392 3.624-1.003-.142-3.031.058-3.129-1.511-.169-1.138.824-1.373 1.562-1.811-.273-.895-1.165-1.315-.78-2.717 1.251.262 1.223-.465 1.563-.907zm-68.073 8.151c-3.4.066-8.402-.845-8.217-5.736 1.105-1.975 8.02-4.705 9-.602-1.117 1.083-2.445-.546-3.912-.303-2.847.47-3.671 3.368.392 4.831 5.11.412 9.934-4.727 14.474-2.718-.28.789-1.407.927-1.563 1.811-2-.415-3.716.784-7.043 1.811.045.771.716 1.059 1.175 1.511-2.648 2.33-10.506 3.86-12.909.302 1.936-1.079 6.986 1.034 8.603-.907z" fill="#000"/></g><defs><clipPath id="clip0_547:3986"><path fill="#fff" d="M0 0h361v224H0z"/></clipPath></defs></svg>