<svg viewBox="0 0 145.824 144.637" xmlns="http://www.w3.org/2000/svg"><defs><linearGradient id="a" x1="-344.15" x2="-395.85" y1="274.71" y2="425.4" gradientTransform="matrix(-.65718 0 0 .65718 -16.966 114.63)" gradientUnits="userSpaceOnUse"><stop stop-color="#fff" offset="0"/><stop stop-color="#fff" stop-opacity="0" offset="1"/></linearGradient></defs><path d="M103.047 7.226H42.78A35.488 35.488 0 007.292 42.714v59.198A35.488 35.488 0 0042.78 137.4h60.267a35.488 35.488 0 0035.488-35.488V42.714a35.488 35.488 0 00-35.488-35.488" fill="#f00a10" fill-rule="evenodd"/><path d="M87.02 72.317l21.162-21.161c2.217-2.217 3.325-4.67 3.325-7.356-.134-2.419-1.242-4.67-3.325-6.752-1.88-1.88-4.098-2.956-6.65-3.224-2.62-.202-5.106.873-7.457 3.224L72.914 58.21 51.753 37.05c-2.15-2.15-4.569-3.226-7.256-3.225-2.62.201-4.904 1.276-6.852 3.224-1.68 1.68-2.654 3.863-2.922 6.55-.269 2.821.705 5.34 2.922 7.558l21.161 21.161-21.161 21.161c-1.881 1.881-2.922 4.333-3.124 7.356.202 2.62 1.243 4.87 3.124 6.752 1.747 1.746 3.964 2.821 6.65 3.224 2.62.202 5.106-.873 7.457-3.224l21.161-21.161 21.162 21.16c2.216 2.218 4.668 3.192 7.356 2.923 2.754-.202 5.004-1.176 6.751-2.922 1.612-1.613 2.587-3.796 2.922-6.55.403-2.687-.57-5.206-2.922-7.558L87.021 72.317" fill="#cb1e0e"/><path d="M85.927 72.317l19.51-19.51c2.044-2.045 3.066-4.305 3.066-6.783-.124-2.23-1.146-4.305-3.066-6.224-1.734-1.735-3.778-2.726-6.131-2.973-2.416-.186-4.708.805-6.876 2.973L72.92 59.31 53.41 39.8c-1.983-1.983-4.213-2.974-6.69-2.973-2.416.185-4.522 1.176-6.318 2.973-1.549 1.548-2.447 3.561-2.695 6.038-.247 2.602.65 4.924 2.695 6.968l19.51 19.511-19.51 19.51c-1.734 1.735-2.694 3.995-2.88 6.783.186 2.415 1.146 4.49 2.88 6.224 1.61 1.61 3.654 2.602 6.131 2.973 2.416.186 4.708-.805 6.876-2.973l19.51-19.51 19.51 19.51c2.045 2.044 4.305 2.942 6.783 2.695 2.54-.186 4.614-1.084 6.225-2.695 1.486-1.486 2.384-3.5 2.694-6.038.372-2.478-.527-4.8-2.694-6.968L85.926 72.317" fill="#fff"/><path d="M280.23 324.53h-68.771c-18.204 0-32.859 14.655-32.859 32.859v66.553c.59 14.21 2.856 5.227 7.17-10.51 5.014-18.289 21.343-34.273 41.229-46.253 15.178-9.143 32.168-14.982 63.093-15.538 17.539-.315 15.99-22.579-9.863-27.112z" fill="url(#a)" fill-rule="evenodd" transform="matrix(.9 0 0 .9 -148.35 -279.28)"/></svg>